<svg width="94" height="57" viewBox="0 0 94 57" fill="none" xmlns="http://www.w3.org/2000/svg">
<path d="M35.0556 10.9302H36.6745L34.7302 16.926H32.9143L31.7665 13.2771L30.5673 16.926H28.7515L26.8071 10.9302H28.5545L29.7622 14.759L31.0299 10.9302H32.5888L33.7965 14.7932L35.0556 10.9302ZM37.2822 16.926V10.9302H38.9781V16.926H37.2822ZM44.2276 10.9302H45.8893V16.926H44.4932L41.8464 13.7311V16.926H40.1847V10.9302H41.5809L44.2276 14.1251V10.9302ZM51.1285 10.9302H52.7902V16.926H51.3941L48.7473 13.7311V16.926H47.0856V10.9302H48.4818L51.1285 14.1251V10.9302ZM55.6653 15.6155H58.8003V16.926H53.9865V10.9302H58.6889V12.2407H55.6653V13.2514H58.3292V14.5191H55.6653V15.6155ZM63.4503 16.926L62.3625 15.3328H61.4374V16.926H59.7414V10.9302H62.4824C64.1184 10.9302 65.1462 11.7782 65.1462 13.1487C65.1462 14.0309 64.718 14.6819 63.9728 15.0416L65.2661 16.926H63.4503ZM63.4331 13.1487C63.4331 12.5919 63.082 12.2664 62.3796 12.2664H61.4374V14.0223H62.3796C63.082 14.0223 63.4331 13.6968 63.4331 13.1487Z" fill="#6B6B6B"/>
<path d="M24.4312 27.8115V22.6698H22.4094V21.7111H27.586V22.6698H25.5641V27.8115H24.4312ZM30.0425 27.8725C29.5254 27.8725 29.0722 27.7709 28.683 27.5675C28.2995 27.3584 28.0003 27.0737 27.7853 26.7135C27.5762 26.3532 27.4716 25.9436 27.4716 25.4847C27.4716 25.0199 27.5733 24.6103 27.7766 24.2559C27.9858 23.8956 28.2705 23.6139 28.6307 23.4105C28.9967 23.2072 29.4121 23.1055 29.8769 23.1055C30.3301 23.1055 30.7339 23.2043 31.0883 23.4018C31.4427 23.5993 31.7216 23.8782 31.9249 24.2384C32.1282 24.5986 32.2299 25.0228 32.2299 25.5108C32.2299 25.5573 32.227 25.6096 32.2212 25.6677C32.2212 25.7258 32.2183 25.781 32.2125 25.8333H28.3344V25.1099H31.6373L31.2103 25.3365C31.2161 25.0692 31.1609 24.8339 31.0447 24.6306C30.9285 24.4273 30.7687 24.2675 30.5654 24.1513C30.3678 24.0351 30.1384 23.977 29.8769 23.977C29.6097 23.977 29.3744 24.0351 29.171 24.1513C28.9735 24.2675 28.8166 24.4302 28.7004 24.6393C28.59 24.8427 28.5348 25.0838 28.5348 25.3626V25.5369C28.5348 25.8158 28.5987 26.0627 28.7265 26.2777C28.8544 26.4927 29.0345 26.6583 29.2669 26.7745C29.4993 26.8907 29.7665 26.9488 30.0686 26.9488C30.3301 26.9488 30.5654 26.9081 30.7745 26.8267C30.9837 26.7454 31.1696 26.6176 31.3323 26.4433L31.9162 27.1143C31.707 27.3584 31.4427 27.5472 31.1231 27.6808C30.8094 27.8086 30.4492 27.8725 30.0425 27.8725ZM32.5125 27.8115L34.5605 25.1448L34.543 25.7287L32.5909 23.1578H33.8023L35.1705 24.9879H34.7086L36.0856 23.1578H37.2621L35.2925 25.7287L35.3012 25.1448L37.3405 27.8115H36.1117L34.6738 25.8681L35.1269 25.9291L33.7151 27.8115H32.5125ZM40.9265 27.8115V26.8703L40.8655 26.6699V25.0228C40.8655 24.7032 40.7696 24.4563 40.5779 24.282C40.3861 24.1019 40.0956 24.0118 39.7064 24.0118C39.4449 24.0118 39.1864 24.0525 38.9308 24.1339C38.6809 24.2152 38.4689 24.3285 38.2946 24.4737L37.8675 23.6807C38.1174 23.489 38.4137 23.3466 38.7565 23.2537C39.1051 23.1549 39.4653 23.1055 39.8371 23.1055C40.5111 23.1055 41.031 23.2682 41.3971 23.5935C41.7689 23.9131 41.9548 24.4098 41.9548 25.0838V27.8115H40.9265ZM39.4624 27.8725C39.1138 27.8725 38.8088 27.8144 38.5473 27.6982C38.2859 27.5762 38.0825 27.4106 37.9373 27.2015C37.7978 26.9865 37.7281 26.7454 37.7281 26.4782C37.7281 26.2167 37.7891 25.9814 37.9111 25.7722C38.0389 25.5631 38.2452 25.3975 38.5299 25.2755C38.8146 25.1535 39.1922 25.0925 39.6628 25.0925H41.0136V25.8158H39.7412C39.3694 25.8158 39.1196 25.8768 38.9918 25.9988C38.8639 26.115 38.8 26.2603 38.8 26.4346C38.8 26.6321 38.8785 26.789 39.0353 26.9052C39.1922 27.0214 39.4101 27.0795 39.689 27.0795C39.9562 27.0795 40.1944 27.0185 40.4036 26.8965C40.6185 26.7745 40.7725 26.5943 40.8655 26.3561L41.0485 27.0098C40.9439 27.2828 40.7551 27.4949 40.482 27.6459C40.2148 27.797 39.8749 27.8725 39.4624 27.8725ZM44.7908 27.8725C44.4016 27.8725 44.0268 27.8231 43.6666 27.7244C43.3122 27.6198 43.0304 27.4949 42.8213 27.3496L43.2396 26.5217C43.4487 26.6554 43.6986 26.7657 43.9891 26.8529C44.2796 26.94 44.57 26.9836 44.8605 26.9836C45.2033 26.9836 45.4502 26.9371 45.6013 26.8442C45.7582 26.7512 45.8366 26.6263 45.8366 26.4694C45.8366 26.3416 45.7843 26.2458 45.6797 26.1818C45.5752 26.1121 45.4386 26.0598 45.2701 26.025C45.1017 25.9901 44.9128 25.9582 44.7037 25.9291C44.5003 25.9001 44.2941 25.8623 44.0849 25.8158C43.8816 25.7635 43.6957 25.6909 43.5272 25.5979C43.3587 25.4992 43.2221 25.3685 43.1176 25.2058C43.013 25.0431 42.9607 24.8281 42.9607 24.5609C42.9607 24.2646 43.0449 24.0089 43.2134 23.794C43.3819 23.5732 43.6172 23.4047 43.9193 23.2885C44.2273 23.1665 44.5904 23.1055 45.0087 23.1055C45.3224 23.1055 45.6391 23.1404 45.9586 23.2101C46.2782 23.2798 46.5425 23.3786 46.7517 23.5064L46.3334 24.3343C46.1126 24.2007 45.8889 24.1106 45.6623 24.0641C45.4415 24.0118 45.2208 23.9857 45 23.9857C44.6688 23.9857 44.4219 24.0351 44.2592 24.1339C44.1023 24.2326 44.0239 24.3575 44.0239 24.5086C44.0239 24.648 44.0762 24.7526 44.1808 24.8223C44.2854 24.892 44.4219 24.9472 44.5904 24.9879C44.7589 25.0286 44.9448 25.0634 45.1481 25.0925C45.3573 25.1157 45.5635 25.1535 45.7669 25.2058C45.9702 25.2581 46.1561 25.3307 46.3246 25.4237C46.4989 25.5108 46.6384 25.6357 46.743 25.7984C46.8475 25.9611 46.8998 26.1731 46.8998 26.4346C46.8998 26.7251 46.8127 26.9778 46.6384 27.1928C46.4699 27.4077 46.2288 27.5762 45.915 27.6982C45.6013 27.8144 45.2266 27.8725 44.7908 27.8725ZM51.3881 24.5173H54.4296V25.4759H51.3881V24.5173ZM51.484 27.8115H50.351V21.7111H54.8043V22.661H51.484V27.8115ZM55.7954 27.8115V23.1578H56.8847V27.8115H55.7954ZM56.3444 22.3909C56.1411 22.3909 55.9726 22.327 55.8389 22.1992C55.7111 22.0713 55.6472 21.9174 55.6472 21.7373C55.6472 21.5514 55.7111 21.3974 55.8389 21.2754C55.9726 21.1476 56.1411 21.0837 56.3444 21.0837C56.5478 21.0837 56.7133 21.1447 56.8412 21.2667C56.9748 21.3829 57.0416 21.531 57.0416 21.7111C57.0416 21.9028 56.9777 22.0655 56.8499 22.1992C56.7221 22.327 56.5536 22.3909 56.3444 22.3909ZM58.3145 27.8115V21.3451H59.4039V27.8115H58.3145ZM66.7075 23.1055C67.0793 23.1055 67.4076 23.1781 67.6922 23.3234C67.9827 23.4686 68.2093 23.6923 68.372 23.9944C68.5347 24.2907 68.616 24.6742 68.616 25.1448V27.8115H67.5267V25.2842C67.5267 24.8717 67.4366 24.5638 67.2565 24.3604C67.0764 24.1571 66.8179 24.0554 66.4809 24.0554C66.2427 24.0554 66.0306 24.1077 65.8447 24.2123C65.6646 24.3169 65.5222 24.4708 65.4177 24.6742C65.3189 24.8775 65.2695 25.1361 65.2695 25.4498V27.8115H64.1802V25.2842C64.1802 24.8717 64.0901 24.5638 63.91 24.3604C63.7299 24.1571 63.4713 24.0554 63.1344 24.0554C62.8962 24.0554 62.6841 24.1077 62.4982 24.2123C62.3181 24.3169 62.1757 24.4708 62.0712 24.6742C61.9724 24.8775 61.923 25.1361 61.923 25.4498V27.8115H60.8336V23.1578H61.8707V24.3953L61.6877 24.0293C61.8446 23.7272 62.0712 23.4977 62.3675 23.3408C62.6696 23.1839 63.0124 23.1055 63.3958 23.1055C63.8316 23.1055 64.2092 23.213 64.5287 23.428C64.8541 23.6429 65.0691 23.9683 65.1736 24.404L64.7466 24.2559C64.8977 23.9073 65.1475 23.6284 65.4961 23.4192C65.8447 23.2101 66.2485 23.1055 66.7075 23.1055ZM30.5669 35.5173H33.6084V36.4759H30.5669V35.5173ZM30.6628 38.8115H29.5298V32.7111H33.9831V33.661H30.6628V38.8115ZM37.034 38.8725C36.5169 38.8725 36.0637 38.7709 35.6744 38.5675C35.291 38.3584 34.9918 38.0737 34.7768 37.7135C34.5676 37.3532 34.4631 36.9436 34.4631 36.4847C34.4631 36.0199 34.5647 35.6103 34.7681 35.2559C34.9772 34.8956 35.2619 34.6139 35.6221 34.4105C35.9882 34.2072 36.4036 34.1055 36.8684 34.1055C37.3215 34.1055 37.7253 34.2043 38.0797 34.4018C38.4341 34.5993 38.713 34.8782 38.9164 35.2384C39.1197 35.5986 39.2214 36.0228 39.2214 36.5108C39.2214 36.5573 39.2185 36.6096 39.2127 36.6677C39.2127 36.7258 39.2098 36.781 39.204 36.8333H35.3258V36.1099H38.6288L38.2017 36.3365C38.2076 36.0692 38.1524 35.8339 38.0362 35.6306C37.92 35.4273 37.7602 35.2675 37.5568 35.1513C37.3593 35.0351 37.1298 34.977 36.8684 34.977C36.6011 34.977 36.3658 35.0351 36.1625 35.1513C35.9649 35.2675 35.8081 35.4302 35.6919 35.6393C35.5815 35.8427 35.5263 36.0838 35.5263 36.3626V36.5369C35.5263 36.8158 35.5902 37.0627 35.718 37.2777C35.8458 37.4927 36.0259 37.6583 36.2583 37.7745C36.4907 37.8907 36.758 37.9488 37.0601 37.9488C37.3215 37.9488 37.5568 37.9081 37.766 37.8267C37.9752 37.7454 38.1611 37.6176 38.3238 37.4433L38.9076 38.1143C38.6985 38.3584 38.4341 38.5472 38.1146 38.6808C37.8009 38.8086 37.4406 38.8725 37.034 38.8725ZM41.7057 38.8725C41.3165 38.8725 40.9417 38.8231 40.5815 38.7244C40.2271 38.6198 39.9453 38.4949 39.7362 38.3496L40.1545 37.5217C40.3636 37.6554 40.6135 37.7657 40.904 37.8529C41.1945 37.94 41.485 37.9836 41.7754 37.9836C42.1182 37.9836 42.3652 37.9371 42.5162 37.8442C42.6731 37.7512 42.7515 37.6263 42.7515 37.4694C42.7515 37.3416 42.6992 37.2458 42.5946 37.1818C42.4901 37.1121 42.3535 37.0598 42.185 37.025C42.0166 36.9901 41.8277 36.9582 41.6186 36.9291C41.4152 36.9001 41.209 36.8623 40.9998 36.8158C40.7965 36.7635 40.6106 36.6909 40.4421 36.5979C40.2736 36.4992 40.1371 36.3685 40.0325 36.2058C39.9279 36.0431 39.8756 35.8281 39.8756 35.5609C39.8756 35.2646 39.9599 35.0089 40.1283 34.794C40.2968 34.5732 40.5321 34.4047 40.8342 34.2885C41.1422 34.1665 41.5053 34.1055 41.9236 34.1055C42.2373 34.1055 42.554 34.1404 42.8735 34.2101C43.1931 34.2798 43.4574 34.3786 43.6666 34.5064L43.2483 35.3343C43.0275 35.2007 42.8038 35.1106 42.5772 35.0641C42.3564 35.0118 42.1357 34.9857 41.9149 34.9857C41.5837 34.9857 41.3368 35.0351 41.1741 35.1339C41.0173 35.2326 40.9388 35.3575 40.9388 35.5086C40.9388 35.648 40.9911 35.7526 41.0957 35.8223C41.2003 35.892 41.3368 35.9472 41.5053 35.9879C41.6738 36.0286 41.8597 36.0634 42.063 36.0925C42.2722 36.1157 42.4784 36.1535 42.6818 36.2058C42.8851 36.2581 43.0711 36.3307 43.2395 36.4237C43.4138 36.5108 43.5533 36.6357 43.6579 36.7984C43.7624 36.9611 43.8147 37.1731 43.8147 37.4346C43.8147 37.7251 43.7276 37.9778 43.5533 38.1928C43.3848 38.4077 43.1437 38.5762 42.8299 38.6982C42.5162 38.8144 42.1415 38.8725 41.7057 38.8725ZM46.5046 38.8725C45.9933 38.8725 45.5982 38.7418 45.3193 38.4804C45.0405 38.2131 44.901 37.8209 44.901 37.3039V33.1294H45.9904V37.2777C45.9904 37.4985 46.0456 37.6699 46.156 37.7919C46.2722 37.9139 46.4319 37.9749 46.6353 37.9749C46.8793 37.9749 47.0826 37.911 47.2453 37.7832L47.5503 38.5588C47.4225 38.6634 47.2656 38.7418 47.0797 38.7941C46.8938 38.8464 46.7021 38.8725 46.5046 38.8725ZM44.1341 35.0641V34.1926H47.2366V35.0641H44.1341ZM48.4465 38.8115V34.1578H49.5358V38.8115H48.4465ZM48.9955 33.3909C48.7922 33.3909 48.6237 33.327 48.49 33.1992C48.3622 33.0713 48.2983 32.9174 48.2983 32.7373C48.2983 32.5514 48.3622 32.3974 48.49 32.2754C48.6237 32.1476 48.7922 32.0837 48.9955 32.0837C49.1988 32.0837 49.3644 32.1447 49.4922 32.2667C49.6259 32.3829 49.6927 32.531 49.6927 32.7111C49.6927 32.9028 49.6288 33.0655 49.501 33.1992C49.3731 33.327 49.2047 33.3909 48.9955 33.3909ZM52.2031 38.8115L50.2074 34.1578H51.3403L53.0572 38.2625H52.4994L54.2773 34.1578H55.323L53.3273 38.8115H52.2031ZM58.7264 38.8115V37.8703L58.6654 37.6699V36.0228C58.6654 35.7032 58.5695 35.4563 58.3778 35.282C58.1861 35.1019 57.8956 35.0118 57.5063 35.0118C57.2449 35.0118 56.9863 35.0525 56.7307 35.1339C56.4809 35.2152 56.2688 35.3285 56.0945 35.4737L55.6675 34.6807C55.9173 34.489 56.2136 34.3466 56.5564 34.2537C56.905 34.1549 57.2652 34.1055 57.637 34.1055C58.311 34.1055 58.831 34.2682 59.197 34.5935C59.5688 34.9131 59.7547 35.4098 59.7547 36.0838V38.8115H58.7264ZM57.2623 38.8725C56.9137 38.8725 56.6087 38.8144 56.3472 38.6982C56.0858 38.5762 55.8824 38.4106 55.7372 38.2015C55.5978 37.9865 55.528 37.7454 55.528 37.4782C55.528 37.2167 55.589 36.9814 55.7111 36.7722C55.8389 36.5631 56.0451 36.3975 56.3298 36.2755C56.6145 36.1535 56.9921 36.0925 57.4627 36.0925H58.8135V36.8158H57.5412C57.1693 36.8158 56.9195 36.8768 56.7917 36.9988C56.6639 37.115 56.6 37.2603 56.6 37.4346C56.6 37.6321 56.6784 37.789 56.8353 37.9052C56.9921 38.0214 57.21 38.0795 57.4889 38.0795C57.7561 38.0795 57.9943 38.0185 58.2035 37.8965C58.4185 37.7745 58.5724 37.5943 58.6654 37.3561L58.8484 38.0098C58.7438 38.2828 58.555 38.4949 58.2819 38.6459C58.0147 38.797 57.6748 38.8725 57.2623 38.8725ZM61.1528 38.8115V32.3451H62.2422V38.8115H61.1528Z" fill="#6B6B6B"/>
<path d="M75.3128 1.47309C77.192 2.80518 77.5281 4.89721 77.5281 4.89721C77.5281 4.89721 74.821 4.827 72.9419 3.49492C71.0627 2.16283 70.7266 0.0708008 70.7266 0.0708008C70.7266 0.0708008 73.4336 0.141003 75.3128 1.47309Z" fill="#6B6B6B"/>
<path d="M62.1085 50.5795C60.491 52.1941 60.394 54.0984 60.4166 54.1054C60.4098 54.1299 63.8094 53.3893 65.3344 51.6097C66.8594 49.8529 66.1172 48.0311 66.1398 48.0364C66.1308 48.0539 63.7237 48.9806 62.1085 50.5795Z" fill="#6B6B6B"/>
<path d="M64.487 56.1679C61.5047 55.7731 60.3903 54.0198 60.3926 54.0338C60.4287 54.0426 63.6253 53.3248 66.3797 53.5757C69.1613 53.839 70.7968 55.1834 70.7968 55.1974C70.8351 55.2044 67.5054 56.5699 64.4893 56.1662L64.487 56.1679Z" fill="#6B6B6B"/>
<path d="M68.0033 48.5652C66.8911 50.3343 67.2904 52.1859 67.3107 52.1894C67.3085 52.214 70.2953 51.0609 71.3014 49.1391C72.3098 47.2402 71.1616 45.5746 71.1841 45.5781C71.1796 45.5957 69.1155 46.8119 68.0033 48.567V48.5652Z" fill="#6B6B6B"/>
<path d="M71.6476 53.6514C68.7465 53.6584 67.2712 52.1087 67.2734 52.1227C67.3073 52.1263 70.1091 51.0188 72.7823 50.9012C75.4827 50.7907 77.3731 51.8753 77.3754 51.8893C77.4115 51.8911 74.578 53.6496 71.6454 53.6514H71.6476Z" fill="#6B6B6B"/>
<path d="M73.096 45.8377C72.4644 47.6981 73.3058 49.4339 73.3239 49.4339C73.3239 49.4584 75.8843 47.9491 76.3964 45.9518C76.913 43.9774 75.4196 42.5154 75.4376 42.5137C75.4376 42.5312 73.7299 43.9897 73.096 45.836V45.8377Z" fill="#6B6B6B"/>
<path d="M77.8146 50.2782C75.0466 50.6678 73.2689 49.3638 73.2734 49.3779C73.3028 49.3779 75.6963 47.937 78.2409 47.4666C80.8104 46.9998 82.8949 47.7966 82.8994 47.8088C82.9332 47.8071 80.6119 49.8886 77.8146 50.2782Z" fill="#6B6B6B"/>
<path d="M77.3454 42.5138C77.1695 44.404 78.3922 45.973 78.4102 45.9713C78.4147 45.9958 80.5285 44.1881 80.5714 42.1786C80.6233 40.1884 78.8411 38.9686 78.8591 38.9651C78.8591 38.9826 77.5282 40.6359 77.3454 42.5121V42.5138Z" fill="#6B6B6B"/>
<path d="M82.9432 46.187C80.358 46.9381 78.3412 45.9097 78.3457 45.9237C78.3728 45.9202 80.3399 44.2038 82.7064 43.3999C85.0954 42.5979 87.3084 43.0893 87.3152 43.1016C87.3467 43.0946 85.5578 45.4358 82.9432 46.1887V46.187Z" fill="#6B6B6B"/>
<path d="M80.7178 38.7035C80.9682 40.5691 82.5158 41.9275 82.5315 41.924C82.5406 41.9468 84.1896 39.9022 83.7903 37.9365C83.4046 35.9884 81.3968 35.0407 81.4149 35.0354C81.4216 35.053 80.4742 36.8519 80.7178 38.7035Z" fill="#6B6B6B"/>
<path d="M86.9937 41.5148C84.6408 42.5976 82.448 41.871 82.4571 41.8833C82.4819 41.8763 84.0069 39.9387 86.1454 38.8295C88.3043 37.7186 90.5783 37.8923 90.5851 37.9046C90.6144 37.8941 89.3736 40.4249 86.9937 41.513V41.5148Z" fill="#6B6B6B"/>
<path d="M83.177 34.5193C83.8267 36.3095 85.6382 37.4222 85.6539 37.4151C85.6675 37.4362 86.8338 35.2143 86.0217 33.3417C85.2253 31.4866 83.0574 30.8337 83.0709 30.8267C83.08 30.8442 82.5386 32.7397 83.177 34.5175V34.5193Z" fill="#6B6B6B"/>
<path d="M89.9284 36.4024C87.8598 37.7854 85.561 37.3764 85.5723 37.387C85.5949 37.3764 86.6642 35.2756 88.5208 33.8927C90.3954 32.5062 92.6603 32.3587 92.6716 32.371C92.6987 32.357 92.0242 35.0106 89.9307 36.4024H89.9284Z" fill="#6B6B6B"/>
<path d="M84.6883 30.0772C85.708 31.7445 87.7202 32.5834 87.7338 32.5747C87.7496 32.594 88.4173 30.2527 87.2239 28.5222C86.0464 26.8076 83.7814 26.4653 83.795 26.4565C83.8085 26.4723 83.6844 28.4187 84.6883 30.0772Z" fill="#6B6B6B"/>
<path d="M91.7049 30.9864C89.9746 32.6309 87.6352 32.5484 87.6465 32.5589C87.6646 32.5466 88.2646 30.337 89.7851 28.7171C91.3236 27.0901 93.5096 26.6286 93.5231 26.6373C93.5457 26.6215 93.4577 29.3296 91.7026 30.9864H91.7049Z" fill="#6B6B6B"/>
<path d="M85.214 25.4892C86.5721 26.9933 88.722 27.5374 88.7355 27.5286C88.7558 27.5461 88.907 25.1452 87.3572 23.599C85.8277 22.0651 83.5334 22.0405 83.5469 22.0317C83.565 22.0458 83.874 23.9956 85.214 25.491V25.4892Z" fill="#6B6B6B"/>
<path d="M92.2789 25.4071C90.9411 27.2727 88.6288 27.5166 88.6446 27.5254C88.6604 27.5114 88.7732 25.2491 89.9057 23.4326C91.0562 21.6074 93.0887 20.8422 93.1045 20.8509C93.1248 20.8316 93.6369 23.5291 92.2766 25.4088L92.2789 25.4071Z" fill="#6B6B6B"/>
<path d="M84.7181 20.8718C86.383 22.1758 88.6073 22.4128 88.6163 22.4022C88.6411 22.418 88.2576 20.0153 86.3852 18.692C84.5354 17.3775 82.2817 17.6706 82.293 17.6601C82.3133 17.6723 83.0736 19.5748 84.7181 20.8736V20.8718Z" fill="#6B6B6B"/>
<path d="M91.6152 19.8012C90.7241 21.8405 88.5133 22.4039 88.5314 22.4092C88.5449 22.3934 88.1546 20.1364 88.845 18.169C89.5488 16.191 91.358 15.145 91.3761 15.1503C91.3941 15.1292 92.5243 17.746 91.6152 19.8012Z" fill="#6B6B6B"/>
<path d="M83.1673 16.3388C85.1096 17.4111 87.3362 17.3357 87.343 17.3251C87.3723 17.3374 86.4361 14.9962 84.2727 13.9256C82.1364 12.8638 79.991 13.464 80 13.4517C80.0248 13.4605 81.2475 15.2699 83.1673 16.3388Z" fill="#6B6B6B"/>
<path d="M89.6646 14.3133C89.2766 16.4737 87.2395 17.3407 87.2598 17.346C87.2689 17.3284 86.3642 15.1311 86.556 13.0637C86.7613 10.9839 88.266 9.68341 88.2863 9.68692C88.3021 9.66411 90.0707 12.1352 89.6646 14.3133Z" fill="#6B6B6B"/>
<path d="M80.522 12.0037C82.7057 12.8181 84.8669 12.4337 84.8736 12.4215C84.9075 12.4302 83.4005 10.2083 80.9799 9.42206C78.5887 8.63931 76.6261 9.53263 76.6328 9.52034C76.6622 9.52736 78.3654 11.1929 80.522 12.0037Z" fill="#6B6B6B"/>
<path d="M86.3908 9.07818C86.5645 11.3018 84.7756 12.4514 84.7982 12.4532C84.8049 12.4356 83.3657 10.3541 83.0025 8.24277C82.6483 6.1174 83.774 4.59927 83.7966 4.60103C83.8078 4.57646 86.2329 6.83346 86.3886 9.07818H86.3908Z" fill="#6B6B6B"/>
<path d="M76.7496 7.98441C79.1408 8.51795 81.1666 7.83523 81.1711 7.8247C81.2095 7.82997 79.116 5.78884 76.4698 5.30795C73.8575 4.82882 72.1498 5.98891 72.1543 5.97663C72.1881 5.98014 74.3854 7.45263 76.7473 7.98617L76.7496 7.98441Z" fill="#6B6B6B"/>
<path d="M81.7512 4.24109C82.543 6.46826 81.0812 7.86704 81.106 7.86704C81.1083 7.84774 79.1231 5.93999 78.1463 3.84445C77.1763 1.73487 77.8418 0.0412423 77.8688 0.0412423C77.8778 0.0166715 80.9729 1.99287 81.7512 4.23934V4.24109Z" fill="#6B6B6B"/>
<path d="M50.8519 54.6903L50.8992 54.2814C55.2464 54.5868 59.5799 54.2112 63.7782 53.1617C67.8704 52.1402 71.658 50.5256 75.0374 48.3651C82.0509 43.8809 86.574 37.4838 87.7742 30.3495C88.7555 24.5069 88.2524 19.3014 86.2762 14.8769C84.1557 10.1242 80.3771 6.40697 75.0464 3.82528L75.3239 3.47778C80.7583 6.11037 84.6114 9.90129 86.7725 14.7435C88.7758 19.2294 89.2879 24.4981 88.2953 30.4039C87.0793 37.6417 82.4886 44.1337 75.3712 48.6828C71.94 50.8766 68.0937 52.5141 63.9383 53.5531C59.6724 54.6184 55.2689 55.001 50.8496 54.6903H50.8519Z" fill="#6B6B6B"/>
<path d="M17.2471 1.47309C15.4917 2.80518 15.1777 4.89721 15.1777 4.89721C15.1777 4.89721 17.7065 4.827 19.4618 3.49492C21.2151 2.16283 21.5312 0.0708008 21.5312 0.0708008C21.5312 0.0708008 19.0024 0.141003 17.2471 1.47309Z" fill="#6B6B6B"/>
<path d="M29.5841 50.5795C31.095 52.1941 31.1856 54.0984 31.1645 54.1054C31.1708 54.1299 27.9952 53.3893 26.5706 51.6097C25.1461 49.8529 25.8394 48.0311 25.8183 48.0364C25.8268 48.0539 28.0752 48.9806 29.5841 50.5795Z" fill="#6B6B6B"/>
<path d="M27.3592 56.1679C30.145 55.7731 31.186 54.0198 31.1839 54.0338C31.1502 54.0426 28.1642 53.3248 25.5912 53.5757C22.9929 53.839 21.4652 55.1834 21.4652 55.1974C21.4293 55.2044 24.5397 56.5699 27.3571 56.1662L27.3592 56.1679Z" fill="#6B6B6B"/>
<path d="M24.0742 48.5652C25.1131 50.3343 24.7401 52.1859 24.7211 52.1894C24.7232 52.214 21.9332 51.0609 20.9933 49.1391C20.0514 47.2402 21.124 45.5746 21.1029 45.5781C21.1071 45.5957 23.0353 46.8119 24.0742 48.567V48.5652Z" fill="#6B6B6B"/>
<path d="M20.671 53.6514C23.381 53.6584 24.7591 52.1087 24.757 52.1227C24.7275 52.1263 22.1082 51.0188 19.6111 50.9012C17.0886 50.7907 15.3227 51.8753 15.3206 51.8893C15.2869 51.8911 17.9337 53.6496 20.6731 53.6514H20.671Z" fill="#6B6B6B"/>
<path d="M19.3193 45.8377C19.9093 47.6981 19.1233 49.4339 19.1064 49.4339C19.1064 49.4584 16.7147 47.9491 16.2363 45.9518C15.7537 43.9774 17.1488 42.5154 17.1319 42.5137C17.1319 42.5312 18.7271 43.9897 19.3193 45.836V45.8377Z" fill="#6B6B6B"/>
<path d="M14.9142 50.2782C17.4998 50.6678 19.1604 49.3638 19.1562 49.3779C19.1288 49.3779 16.893 47.937 14.5159 47.4666C12.1157 46.9998 10.1686 47.7966 10.1644 47.8088C10.1328 47.8071 12.3012 49.8886 14.9142 50.2782Z" fill="#6B6B6B"/>
<path d="M15.3523 42.5138C15.5167 44.404 14.3746 45.973 14.3577 45.9713C14.3535 45.9958 12.379 44.1881 12.3389 42.1786C12.2905 40.1884 13.9552 38.9686 13.9384 38.9651C13.9384 38.9826 15.1817 40.6359 15.3523 42.5121V42.5138Z" fill="#6B6B6B"/>
<path d="M10.1234 46.187C12.5383 46.9381 14.4222 45.9097 14.418 45.9237C14.3927 45.9202 12.5552 44.2038 10.3446 43.3999C8.11301 42.5979 6.04577 43.0893 6.03945 43.1016C6.00995 43.0946 7.68102 45.4358 10.1234 46.1887V46.187Z" fill="#6B6B6B"/>
<path d="M12.1998 38.7035C11.9659 40.5691 10.5203 41.9275 10.5056 41.924C10.4972 41.9468 8.95673 39.9022 9.32972 37.9365C9.69006 35.9884 11.5655 35.0407 11.5487 35.0354C11.5424 35.053 12.4274 36.8519 12.1998 38.7035Z" fill="#6B6B6B"/>
<path d="M6.33573 41.5148C8.53363 42.5976 10.5819 41.871 10.5735 41.8833C10.5503 41.8763 9.12577 39.9387 7.12807 38.8295C5.1114 37.7186 2.98727 37.8923 2.98094 37.9046C2.95355 37.8941 4.11255 40.4249 6.33573 41.513V41.5148Z" fill="#6B6B6B"/>
<path d="M9.9022 34.5193C9.2953 36.3095 7.60316 37.4222 7.58841 37.4151C7.57576 37.4362 6.4863 35.2143 7.24492 33.3417C7.98879 31.4866 10.0139 30.8337 10.0012 30.8267C9.99281 30.8442 10.4986 32.7397 9.9022 34.5175V34.5193Z" fill="#6B6B6B"/>
<path d="M3.59428 36.4024C5.52665 37.7854 7.67397 37.3764 7.66554 37.387C7.64447 37.3764 6.64562 35.2756 4.91133 33.8927C3.16018 32.5062 1.04447 32.3587 1.03393 32.371C1.00864 32.357 1.63872 35.0106 3.59428 36.4024Z" fill="#6B6B6B"/>
<path d="M8.49099 30.0772C7.53849 31.7445 5.6588 32.5834 5.64616 32.5747C5.63141 32.594 5.00765 30.2527 6.1224 28.5222C7.2224 26.8076 9.33811 26.4653 9.32547 26.4565C9.31283 26.4723 9.42873 28.4187 8.49099 30.0772Z" fill="#6B6B6B"/>
<path d="M1.93541 30.9864C3.55169 32.6309 5.73694 32.5484 5.7264 32.5589C5.70955 32.5466 5.14901 30.337 3.7287 28.7171C2.28943 27.0901 0.247475 26.6286 0.234832 26.6373C0.213759 26.6215 0.295942 29.3296 1.93541 30.9864Z" fill="#6B6B6B"/>
<path d="M8.00104 25.4892C6.73246 26.9933 4.72422 27.5374 4.71158 27.5286C4.69261 27.5461 4.55142 25.1452 5.99913 23.599C7.42786 22.0651 9.57097 22.0405 9.55832 22.0317C9.54146 22.0458 9.25277 23.9956 8.00104 25.491V25.4892Z" fill="#6B6B6B"/>
<path d="M1.39845 25.4071C2.64807 27.2727 4.80803 27.5166 4.79328 27.5254C4.77853 27.5114 4.67317 25.2491 3.61531 23.4326C2.5406 21.6074 0.64194 20.8422 0.627189 20.8509C0.608223 20.8316 0.12987 23.5291 1.40056 25.4088L1.39845 25.4071Z" fill="#6B6B6B"/>
<path d="M8.46077 20.8718C6.9056 22.1758 4.82782 22.4128 4.81939 22.4022C4.79621 22.418 5.15445 20.0153 6.90349 18.692C8.63146 17.3775 10.7366 17.6706 10.7261 17.6601C10.7071 17.6723 9.99698 19.5748 8.46077 20.8736V20.8718Z" fill="#6B6B6B"/>
<path d="M2.0195 19.8012C2.85188 21.8405 4.91702 22.4039 4.90016 22.4092C4.88751 22.3934 5.25207 20.1364 4.60724 18.169C3.94977 16.191 2.25973 15.145 2.24288 15.1503C2.22602 15.1292 1.17027 17.746 2.0195 19.8012Z" fill="#6B6B6B"/>
<path d="M9.91097 16.3388C8.0966 17.4111 6.01671 17.3357 6.01039 17.3251C5.98299 17.3374 6.85752 14.9962 8.8784 13.9256C10.874 12.8638 12.878 13.464 12.8696 13.4517C12.8464 13.4605 11.7043 15.2699 9.91097 16.3388Z" fill="#6B6B6B"/>
<path d="M3.83977 14.3133C4.20222 16.4737 6.10509 17.3407 6.08613 17.346C6.0777 17.3284 6.92272 15.1311 6.7436 13.0637C6.55183 10.9839 5.14628 9.68341 5.12731 9.68692C5.11256 9.66411 3.46045 12.1352 3.83977 14.3133Z" fill="#6B6B6B"/>
<path d="M12.3819 12.0037C10.342 12.8181 8.32325 12.4337 8.31693 12.4215C8.28532 12.4302 9.69298 10.2083 11.9541 9.42206C14.1878 8.63931 16.0211 9.53263 16.0148 9.52034C15.9874 9.52736 14.3964 11.1929 12.3819 12.0037Z" fill="#6B6B6B"/>
<path d="M6.89782 9.07818C6.73556 11.3018 8.40663 12.4514 8.38556 12.4532C8.37923 12.4356 9.72368 10.3541 10.063 8.24277C10.3938 6.1174 9.34226 4.59927 9.32119 4.60103C9.31065 4.57646 7.04533 6.83346 6.89992 9.07818H6.89782Z" fill="#6B6B6B"/>
<path d="M15.9081 7.98441C13.6744 8.51795 11.782 7.83523 11.7778 7.8247C11.742 7.82997 13.6976 5.78884 16.1694 5.30795C18.6096 4.82882 20.2048 5.98891 20.2006 5.97663C20.169 5.98014 18.1165 7.45263 15.9102 7.98617L15.9081 7.98441Z" fill="#6B6B6B"/>
<path d="M11.2335 4.24109C10.4939 6.46826 11.8594 7.86704 11.8362 7.86704C11.8341 7.84774 13.6885 5.93999 14.601 3.84445C15.5071 1.73487 14.8855 0.0412423 14.8623 0.0412423C14.8539 0.0166715 11.9627 1.99287 11.2357 4.23934L11.2335 4.24109Z" fill="#6B6B6B"/>
<path d="M40.0979 54.6903L40.0537 54.2814C35.993 54.5868 31.9449 54.2112 28.0232 53.1617C24.2006 52.1402 20.6625 50.5256 17.5058 48.3651C10.9543 43.8809 6.72916 37.4838 5.60808 30.3495C4.69142 24.5069 5.16134 19.3014 7.00732 14.8769C8.98816 10.1242 12.5179 6.40697 17.4974 3.82528L17.2382 3.47778C12.1617 6.11037 8.56249 9.90129 6.54371 14.7435C4.67245 19.2294 4.1941 24.4981 5.1213 30.4039C6.25712 37.6417 10.5454 44.1337 17.1939 48.6828C20.3991 50.8766 23.992 52.5141 27.8736 53.5531C31.8585 54.6184 35.9719 55.001 40.1 54.6903H40.0979Z" fill="#6B6B6B"/>
<path d="M45.842 52.1641L42.7461 54.4404L45.842 56.7184L48.9397 54.4404L45.842 52.1641Z" fill="#6B6B6B"/>
</svg>
