<svg width="104" height="104" viewBox="0 0 104 104" fill="none" xmlns="http://www.w3.org/2000/svg">
<path d="M65.9832 49.4496V43.9195H69.393V49.4056C69.393 50.651 70.0377 51.1815 70.9404 51.1815C71.843 51.1815 72.4878 50.6951 72.4878 49.4774V43.9195H75.8976V49.3778C75.8976 52.8023 73.9062 54.1473 70.9126 54.1473C67.9191 54.1473 65.9848 52.7729 65.9848 49.4496" fill="#4E5156"/>
<path d="M76.1245 52.4432L77.9151 50.3082C79.0038 51.139 80.2509 51.4834 81.4245 51.4834C82.0268 51.4834 82.2847 51.3251 82.2847 51.0541V51.0247C82.2847 50.7375 81.9697 50.5808 80.8956 50.3653C78.6464 49.9066 76.6697 49.2619 76.6697 47.1432V47.1138C76.6697 45.209 78.1599 43.7334 80.9234 43.7334C82.8576 43.7334 84.2891 44.1921 85.4497 45.1078L83.8158 47.3717C82.8707 46.6845 81.7395 46.3826 80.8075 46.3826C80.3064 46.3826 80.0779 46.554 80.0779 46.7988V46.8282C80.0779 47.1008 80.3504 47.2722 81.4098 47.4729C83.9741 47.9463 85.6929 48.6906 85.6929 50.7097V50.7391C85.6929 52.8447 83.9594 54.1342 81.2662 54.1342C79.2323 54.1342 77.3993 53.5613 76.1229 52.4432" fill="#4E5156"/>
<path d="M22.3412 54.2077C25.1813 54.2077 26.745 52.5966 26.745 49.6716V43.9782H24.6818V49.7614C24.6818 51.3887 23.8396 52.3224 22.3706 52.3224C20.9015 52.3224 20.0593 51.3626 20.0593 49.6879V43.9782H17.9944V49.7467C17.9944 52.6244 19.5369 54.2093 22.3395 54.2093" fill="#E22227"/>
<path d="M36.9942 54.0477V43.9782H34.9587V50.4877L30.0048 43.9782H28.0689V54.0477H30.1027V47.3326L35.2183 54.0477H36.9942Z" fill="#E22227"/>
<path d="M40.9378 43.9782H38.8746V54.0477H40.9378V43.9782Z" fill="#E22227"/>
<path d="M56.8295 52.169L56.5814 52.4661C56.6679 52.3698 56.7495 52.2718 56.8295 52.169Z" fill="#E22227"/>
<path d="M61.1469 48.0981C59.3481 47.6378 58.8601 47.406 58.8601 46.6551V46.6258C58.8601 46.0235 59.4167 45.635 60.2769 45.635C61.0898 45.635 61.9549 45.9533 62.9195 46.6094L63.9854 45.0637C62.9391 44.2492 61.7002 43.8362 60.3046 43.8362C58.6822 43.8362 57.4775 44.5626 57.0156 45.7247C57.6979 46.6176 58.0994 47.739 58.0994 48.9877V49.017C58.0994 49.0742 58.0929 49.128 58.0913 49.1835C58.643 49.4953 59.3416 49.701 60.1381 49.905C61.8194 50.3359 62.278 50.6362 62.278 51.3038V51.3332C62.278 51.9894 61.6741 52.3975 60.7013 52.3975C59.6419 52.3975 58.6707 52.0139 57.6506 51.1896L57.6375 51.2043C57.3796 51.7837 57.0319 52.3159 56.5928 52.7647C57.7305 53.6935 59.1539 54.1979 60.6572 54.1979C62.9212 54.1979 64.3282 53.0161 64.3282 51.1129V51.0835C64.3282 49.288 63.1105 48.6106 61.1453 48.0981" fill="#E22227"/>
<path d="M52.5644 43.8036C51.5247 43.8036 50.5518 44.068 49.7373 44.5447C50.3543 44.8989 50.8946 45.3755 51.3027 45.9305C51.6781 45.7754 52.0927 45.6905 52.535 45.6905C54.3322 45.6905 55.7408 47.1498 55.7408 49.0138V49.0432C55.7408 50.9203 54.3746 52.3371 52.5644 52.3371C52.1172 52.3371 51.6961 52.2457 51.3125 52.0825L51.2015 52.0384C51.1346 52.0058 50.9534 51.9193 50.7591 51.7854C50.5763 51.6597 50.3674 51.4753 50.2515 51.3512C50.165 51.2582 50.0883 51.1603 49.9887 51.0264C49.9577 50.984 49.9055 50.904 49.8728 50.8534C49.8451 50.8093 49.8108 50.7538 49.7879 50.7114C49.7406 50.6249 49.721 50.5857 49.6998 50.5433C49.4811 50.0944 49.3587 49.5672 49.3587 49.0155V48.9861C49.3587 48.5927 49.4223 48.2205 49.5333 47.8761C49.2672 47.1188 48.7123 46.5491 47.9778 46.252C47.4717 47.0486 47.1926 47.9937 47.1926 49.0155V49.0448C47.1926 50.0895 47.4848 51.0395 47.9892 51.8344L48.0218 51.8801C48.1018 51.996 48.3466 52.3485 48.66 52.6717C48.7106 52.724 48.7645 52.7762 48.8167 52.8268C49.7651 53.7001 51.0595 54.2257 52.535 54.2257C55.5466 54.2257 57.9068 51.9372 57.9068 49.0155V48.9861C57.9068 46.0317 55.6102 43.8052 52.5644 43.8052" fill="#E22227"/>
<path d="M49.8989 50.5073C49.9479 50.5955 49.9136 50.5334 49.9609 50.6199C50.0148 50.7163 50.0278 50.7358 50.0523 50.7734C50.0801 50.8175 50.1045 50.8615 50.16 50.9366C50.2368 51.0378 50.3265 51.1488 50.3935 51.2174C50.4604 51.2843 50.5404 51.3675 50.6416 51.4524C50.7134 51.5144 50.7885 51.5732 50.8603 51.6222C50.924 51.6662 50.9076 51.6532 50.9664 51.6907C50.9794 51.6989 51.0725 51.7544 51.0855 51.7609C51.1443 51.7952 51.1998 51.8213 51.239 51.8409C51.7744 51.0166 52.078 49.9948 52.078 49.0171V48.9877C52.078 46.0871 49.8254 43.9815 46.7209 43.9815H42.8148V54.051H46.7209C47.5419 54.0624 48.7334 53.8274 49.4255 53.5352C49.2084 53.3964 48.82 53.1206 48.518 52.8088C48.2209 52.502 47.9842 52.1722 47.883 52.027C47.4929 52.1771 47.1681 52.2065 46.7209 52.2065H44.8797V45.8276H46.7209C48.5996 45.8276 49.9119 47.1399 49.9119 49.0187V49.0481C49.9119 49.4561 49.9038 50.3425 49.9005 50.5073" fill="#E22227"/>
<path d="M17.7399 59.5207L17.8868 59.3411C18.0729 59.5109 18.2573 59.6154 18.5054 59.6154C18.7699 59.6154 18.9478 59.4554 18.9478 59.2481V59.2416C18.9478 59.0587 18.8564 58.9429 18.4581 58.8025C18.0027 58.6327 17.8264 58.4695 17.8264 58.1594V58.1528C17.8264 57.8231 18.1006 57.5717 18.4859 57.5717C18.7372 57.5717 18.9511 57.6501 19.1453 57.8199L19.0033 58.0059C18.8401 57.8623 18.667 57.7888 18.4761 57.7888C18.2247 57.7888 18.0615 57.9423 18.0615 58.1316V58.1381C18.0615 58.3308 18.1594 58.4401 18.574 58.5903C19.0229 58.7568 19.1812 58.9363 19.1812 59.2285V59.235C19.1812 59.5876 18.8956 59.8357 18.5022 59.8357C18.2198 59.8357 17.9717 59.7378 17.7383 59.5239" fill="#4E5156"/>
<path d="M20.0398 57.8216H19.4195V57.6028H20.8934V57.8216H20.2748V59.8015H20.0398V57.8216Z" fill="#4E5156"/>
<path d="M21.2738 57.6028H22.0279C22.2728 57.6028 22.4768 57.6779 22.6025 57.8069C22.7118 57.9162 22.7755 58.0762 22.7755 58.259V58.2655C22.7755 58.6148 22.5584 58.8254 22.2581 58.8972L22.8424 59.8015H22.5633L22.01 58.9462H21.5137V59.8015H21.2754V57.6028H21.2738ZM21.9838 58.734C22.3413 58.734 22.5404 58.5544 22.5404 58.2753V58.2688C22.5404 57.9799 22.3429 57.8199 22.01 57.8199H21.5137V58.734H21.9855H21.9838Z" fill="#4E5156"/>
<path d="M23.1345 58.7176V58.6898C23.1345 58.0467 23.5246 57.5685 24.0828 57.5685C24.6411 57.5685 25.0247 58.0435 25.0247 58.6866V58.716C25.0247 59.3591 24.6411 59.8373 24.0796 59.8373C23.5181 59.8373 23.1345 59.3623 23.1345 58.7192M24.7815 58.716V58.6931C24.7815 58.1626 24.4828 57.7856 24.0812 57.7856C23.6797 57.7856 23.381 58.1594 23.381 58.6898V58.7127C23.381 59.2432 23.6797 59.6202 24.0845 59.6202C24.4893 59.6202 24.7815 59.2465 24.7815 58.716Z" fill="#4E5156"/>
<path d="M25.4686 57.6028H25.6906L26.8414 59.3298V57.6028H27.0731V59.8015H26.8756L25.6971 58.0256V59.8015H25.4686V57.6028Z" fill="#4E5156"/>
<path d="M27.5155 58.7144V58.6915C27.5155 58.0533 27.9203 57.5702 28.4932 57.5702C28.7821 57.5702 28.9747 57.6518 29.1624 57.8052L29.0172 57.9929C28.885 57.8738 28.7283 57.7889 28.49 57.7889C28.0721 57.7889 27.7603 58.1659 27.7603 58.6866V58.7062C27.7603 59.2596 28.059 59.617 28.5112 59.617C28.6989 59.617 28.8719 59.5485 28.9862 59.4603V58.8417H28.4328V58.6279H29.2147V59.5746C29.0417 59.7133 28.7936 59.8325 28.4981 59.8325C27.9007 59.8325 27.5155 59.3771 27.5155 58.7144Z" fill="#4E5156"/>
<path d="M29.6963 57.6028H31.0396V57.8183H29.9313V58.5855H30.9237V58.8026H29.9313V59.5844H31.0527V59.8015H29.6963V57.6028Z" fill="#4E5156"/>
<path d="M31.4721 57.6028H32.2263C32.4711 57.6028 32.6751 57.6779 32.8008 57.8069C32.9102 57.9162 32.9738 58.0762 32.9738 58.259V58.2655C32.9738 58.6148 32.7567 58.8254 32.4564 58.8972L33.0408 59.8015H32.7616L32.2083 58.9462H31.7121V59.8015H31.4738V57.6028H31.4721ZM32.1822 58.734C32.5397 58.734 32.7372 58.5544 32.7372 58.2753V58.2688C32.7372 57.9799 32.5396 57.8199 32.2067 57.8199H31.7105V58.734H32.1822Z" fill="#4E5156"/>
<path d="M34.0723 58.7144V58.6915C34.0723 58.0288 34.4869 57.5702 35.037 57.5702C35.3422 57.5702 35.5397 57.686 35.7095 57.8444L35.5609 58.0272C35.4173 57.8884 35.2524 57.7921 35.0272 57.7921C34.6256 57.7921 34.3171 58.1627 34.3171 58.6932V58.7062C34.3171 59.2465 34.6273 59.6138 35.0304 59.6138C35.2508 59.6138 35.414 59.5224 35.574 59.3624L35.7176 59.5321C35.5348 59.7117 35.3243 59.8341 35.0207 59.8341C34.4738 59.8341 34.0723 59.3869 34.0723 58.716" fill="#4E5156"/>
<path d="M35.9381 58.7176V58.6898C35.9381 58.0467 36.3266 57.5685 36.8864 57.5685C37.4463 57.5685 37.8283 58.0435 37.8283 58.6866V58.716C37.8283 59.3591 37.4447 59.8373 36.8832 59.8373C36.3217 59.8373 35.9381 59.3623 35.9381 58.7192M37.5851 58.716V58.6931C37.5851 58.1626 37.2864 57.7856 36.8848 57.7856C36.4833 57.7856 36.1846 58.1594 36.1846 58.6898V58.7127C36.1846 59.2432 36.4833 59.6202 36.8881 59.6202C37.2929 59.6202 37.5851 59.2465 37.5851 58.716Z" fill="#4E5156"/>
<path d="M38.2722 57.6028H38.5138L39.1863 58.7797L39.8571 57.6028H40.1036V59.8015H39.8669V58.0256L39.1912 59.2041H39.1798L38.5007 58.0289V59.8015H38.2722V57.6028Z" fill="#4E5156"/>
<path d="M40.6293 57.6028H40.8725L41.5434 58.7797L42.2158 57.6028H42.4607V59.8015H42.2256V58.0256L41.5499 59.2041H41.5385L40.8594 58.0289V59.8015H40.6293V57.6028Z" fill="#4E5156"/>
<path d="M42.9634 58.9804V57.6012H43.1984V58.9739C43.1984 59.3885 43.409 59.6154 43.755 59.6154C44.1011 59.6154 44.3051 59.4048 44.3051 58.9837V57.6012H44.5434V58.9674C44.5434 59.5338 44.2235 59.8341 43.7485 59.8341C43.2735 59.8341 42.9634 59.5321 42.9634 58.9804Z" fill="#4E5156"/>
<path d="M45.0412 57.6028H45.2648L46.4139 59.3298V57.6028H46.6473V59.8015H46.4498L45.2713 58.0256V59.8015H45.0412V57.6028Z" fill="#4E5156"/>
<path d="M47.4309 57.6028H47.1926V59.8015H47.4309V57.6028Z" fill="#4E5156"/>
<path d="M48.4493 57.8216H47.8307V57.6028H49.303V57.8216H48.6844V59.8015H48.4493V57.8216Z" fill="#4E5156"/>
<path d="M49.9396 57.6028H49.7013V59.8015H49.9396V57.6028Z" fill="#4E5156"/>
<path d="M50.4865 57.6028H51.8315V57.8183H50.7232V58.5855H51.7156V58.8026H50.7232V59.5844H51.8446V59.8015H50.4865V57.6028Z" fill="#4E5156"/>
<path d="M52.1171 59.5207L52.264 59.3411C52.45 59.5109 52.6345 59.6154 52.8826 59.6154C53.147 59.6154 53.3249 59.4554 53.3249 59.2481V59.2416C53.3249 59.0587 53.2335 58.9429 52.8353 58.8025C52.3798 58.6327 52.2036 58.4695 52.2036 58.1594V58.1528C52.2036 57.8231 52.4762 57.5717 52.863 57.5717C53.1144 57.5717 53.3282 57.6501 53.5224 57.8199L53.3804 58.0059C53.2172 57.8623 53.0442 57.7888 52.8532 57.7888C52.6018 57.7888 52.4386 57.9423 52.4386 58.1316V58.1381C52.4386 58.3308 52.5365 58.4401 52.9511 58.5903C53.4 58.7568 53.5583 58.9363 53.5583 59.2285V59.235C53.5583 59.5876 53.2727 59.8357 52.8793 59.8357C52.5969 59.8357 52.3488 59.7378 52.1154 59.5239" fill="#4E5156"/>
<path d="M54.208 59.4783H53.9289V59.8015H54.208V59.4783Z" fill="#4E5156"/>
<path d="M56.0052 59.5207L56.1521 59.3411C56.3382 59.5109 56.5226 59.6154 56.7707 59.6154C57.0351 59.6154 57.2131 59.4554 57.2131 59.2481V59.2416C57.2131 59.0587 57.1216 58.9429 56.7234 58.8025C56.268 58.6327 56.0917 58.4695 56.0917 58.1594V58.1528C56.0917 57.8231 56.3643 57.5717 56.7511 57.5717C57.0025 57.5717 57.2163 57.6501 57.4106 57.8199L57.2686 58.0059C57.1053 57.8623 56.9323 57.7888 56.7413 57.7888C56.49 57.7888 56.3267 57.9423 56.3267 58.1316V58.1381C56.3267 58.3308 56.4247 58.4401 56.8393 58.5903C57.2881 58.7568 57.4465 58.9363 57.4465 59.2285V59.235C57.4465 59.5876 57.1608 59.8357 56.7674 59.8357C56.4851 59.8357 56.237 59.7378 56.0035 59.5239" fill="#4E5156"/>
<path d="M58.3034 57.8216H57.6847V57.6028H59.1587V57.8216H58.5384V59.8015H58.3034V57.8216Z" fill="#4E5156"/>
<path d="M59.5375 57.6028H60.2916C60.5364 57.6028 60.7405 57.6779 60.8661 57.8069C60.9755 57.9162 61.0392 58.0762 61.0392 58.259V58.2655C61.0392 58.6148 60.8221 58.8254 60.5217 58.8972L61.1061 59.8015H60.827L60.2736 58.9462H59.7774V59.8015H59.5391V57.6028H59.5375ZM60.2475 58.734C60.605 58.734 60.8041 58.5544 60.8041 58.2753V58.2688C60.8041 57.9799 60.6066 57.8199 60.2736 57.8199H59.7774V58.734H60.2491H60.2475Z" fill="#4E5156"/>
<path d="M61.3999 58.7176V58.6898C61.3999 58.0467 61.7884 57.5685 62.3483 57.5685C62.9081 57.5685 63.2917 58.0435 63.2917 58.6866V58.716C63.2917 59.3591 62.9081 59.8373 62.345 59.8373C61.7819 59.8373 61.3999 59.3623 61.3999 58.7192M63.0452 58.716V58.6931C63.0452 58.1626 62.7465 57.7856 62.345 57.7856C61.9435 57.7856 61.6448 58.1594 61.6448 58.6898V58.7127C61.6448 59.2432 61.9435 59.6202 62.3483 59.6202C62.7531 59.6202 63.0452 59.2465 63.0452 58.716Z" fill="#4E5156"/>
<path d="M63.734 57.6028H63.956L65.1068 59.3298V57.6028H65.3386V59.8015H65.141L63.9625 58.0256V59.8015H63.734V57.6028Z" fill="#4E5156"/>
<path d="M65.7809 58.7144V58.6915C65.7809 58.0533 66.1857 57.5702 66.7586 57.5702C67.0475 57.5702 67.2385 57.6518 67.4279 57.8052L67.2842 57.9929C67.152 57.8738 66.9953 57.7889 66.757 57.7889C66.3391 57.7889 66.0274 58.1659 66.0274 58.6866V58.7062C66.0274 59.2596 66.3261 59.617 66.7782 59.617C66.9659 59.617 67.139 59.5485 67.2532 59.4603V58.8417H66.6999V58.6279H67.4817V59.5746C67.3087 59.7133 67.0606 59.8325 66.7652 59.8325C66.1678 59.8325 65.7825 59.3771 65.7825 58.7144" fill="#4E5156"/>
<path d="M67.9599 57.6028H69.3049V57.8183H68.195V58.5855H69.189V58.8026H68.195V59.5844H69.3163V59.8015H67.9599V57.6028Z" fill="#4E5156"/>
<path d="M69.7374 57.6028H70.4915C70.7364 57.6028 70.9404 57.6779 71.0661 57.8069C71.1754 57.9162 71.2391 58.0762 71.2391 58.259V58.2655C71.2391 58.6148 71.022 58.8254 70.72 58.8972L71.3044 59.8015H71.0253L70.4719 58.9462H69.9757V59.8015H69.7374V57.6028ZM70.4474 58.734C70.8049 58.734 71.0024 58.5544 71.0024 58.2753V58.2688C71.0024 57.9799 70.8049 57.8199 70.4719 57.8199H69.9757V58.734H70.4474Z" fill="#4E5156"/>
<path d="M73.1016 57.5865H73.335L74.174 59.8015H73.9226L73.7088 59.2237H72.7196L72.5058 59.8015H72.2642L73.1032 57.5865H73.1016ZM73.6288 59.0098L73.2142 57.895L72.7964 59.0098H73.6288Z" fill="#4E5156"/>
<path d="M74.5397 57.6028H74.7813L75.4538 58.7797L76.1263 57.6028H76.3711V59.8015H76.1344V58.0256L75.4603 59.2041H75.4472L74.7682 58.0289V59.8015H74.5397V57.6028Z" fill="#4E5156"/>
<path d="M76.8966 57.6028H78.2416V57.8183H77.1333V58.5855H78.1257V58.8026H77.1333V59.5844H78.2546V59.8015H76.8966V57.6028Z" fill="#4E5156"/>
<path d="M78.6741 57.6028H79.4282C79.673 57.6028 79.8771 57.6779 80.0028 57.8069C80.1121 57.9162 80.1758 58.0762 80.1758 58.259V58.2655C80.1758 58.6148 79.9587 58.8254 79.6567 58.8972L80.2411 59.8015H79.9619L79.4086 58.9462H78.9124V59.8015H78.6741V57.6028ZM79.3841 58.734C79.7416 58.734 79.9391 58.5544 79.9391 58.2753V58.2688C79.9391 57.9799 79.7416 57.8199 79.4086 57.8199H78.9124V58.734H79.3841Z" fill="#4E5156"/>
<path d="M80.8826 57.6028H80.6443V59.8015H80.8826V57.6028Z" fill="#4E5156"/>
<path d="M81.3445 58.7144V58.6915C81.3445 58.0288 81.7591 57.5702 82.3092 57.5702C82.6144 57.5702 82.8119 57.686 82.9817 57.8444L82.8348 58.0272C82.6895 57.8884 82.5263 57.7921 82.301 57.7921C81.8995 57.7921 81.591 58.1627 81.591 58.6932V58.7062C81.591 59.2465 81.9011 59.6138 82.3043 59.6138C82.5247 59.6138 82.6879 59.5224 82.8479 59.3624L82.9915 59.5321C82.8087 59.7117 82.5981 59.8341 82.2945 59.8341C81.7477 59.8341 81.3462 59.3869 81.3462 58.716" fill="#4E5156"/>
<path d="M84.0297 57.5865H84.2615L85.1005 59.8015H84.8491L84.6353 59.2237H83.6461L83.4323 59.8015H83.1907L84.0297 57.5865ZM84.5569 59.0098L84.1423 57.895L83.7245 59.0098H84.5569Z" fill="#4E5156"/>
<path d="M85.6928 59.4783H85.4137V59.8015H85.6928V59.4783Z" fill="#4E5156"/>
</svg>
