<svg width="104" height="104" viewBox="0 0 104 104" fill="none" xmlns="http://www.w3.org/2000/svg">
<path d="M23.0972 36.6869C23.0972 36.6869 23.0972 36.6869 23.0951 36.6869H23.0972Z" fill="black"/>
<path d="M14.1088 53.431C14.1765 53.8877 14.3435 54.6235 14.4788 55.0654L14.6205 55.5222C14.7579 55.9641 15.0117 56.6766 15.185 57.1059L15.3648 57.5478C15.5381 57.977 15.8976 58.6388 16.164 59.0173L16.4368 59.4085C16.7032 59.7891 17.1197 60.4213 17.3671 60.8124L17.6272 61.229C17.8725 61.6223 18.3271 62.227 18.6358 62.5737L18.9635 62.9438C19.2722 63.2905 19.8346 63.7938 20.2131 64.0623L20.6043 64.3393C20.9828 64.6078 21.5727 65.0857 21.9152 65.4007L22.2662 65.7242C22.6066 66.0393 23.2388 66.4431 23.6681 66.6207L24.11 66.8047C24.5392 66.9823 25.237 67.291 25.6577 67.4919L26.0722 67.6885C26.4929 67.8873 27.2034 68.1579 27.6516 68.2869L28.1083 68.418C28.5566 68.547 29.303 68.6654 29.7703 68.6802L30.2481 68.695C30.7133 68.7098 31.4766 68.714 31.9439 68.7055L32.4471 68.6971C32.9144 68.6886 33.6714 68.6167 34.1302 68.5343L34.6355 68.4455C35.0944 68.3651 35.8302 68.1706 36.2679 68.0162L36.7521 67.845C37.1919 67.6906 37.8918 67.3946 38.3104 67.1895L38.7692 66.9633C39.1879 66.7582 39.8476 66.3818 40.2366 66.1281L40.6659 65.8469C41.0549 65.5931 41.6406 65.1132 41.9662 64.7833L42.3236 64.4217C42.6492 64.0919 43.1651 63.5337 43.4675 63.1827L43.7804 62.8211C44.0849 62.4701 44.5416 61.8675 44.7953 61.4806L45.0575 61.0831C45.3133 60.6961 45.658 60.0259 45.825 59.5945L45.9942 59.1568C46.1612 58.7255 46.4488 58.0256 46.6349 57.6027L46.8252 57.1651C47.0091 56.7422 47.2353 56.0233 47.3284 55.5708L47.4235 55.0972C47.5145 54.6447 47.6329 53.8983 47.6878 53.4395L47.747 52.9468C47.7788 52.6846 47.7957 52.3273 47.7978 51.9826V51.8008C47.7978 51.6084 47.7893 51.4244 47.7788 51.2743L47.7386 50.7753C47.7005 50.3144 47.58 49.5701 47.47 49.1218L47.3516 48.6419C47.2396 48.1936 47.0577 47.4599 46.9457 47.0095L46.8252 46.5295C46.7934 46.5528 46.7617 46.5761 46.73 46.5972C46.6814 46.6395 46.6349 46.6797 46.5883 46.7198C46.25 47.0074 45.9477 47.3351 45.6791 47.7073C44.9941 48.6715 44.6008 49.8746 44.4189 51.0967C44.3682 51.4583 44.3259 51.8494 44.2815 52.2385C44.2286 52.6275 44.1821 53.0145 44.1166 53.4014C43.9897 54.1753 43.8438 54.9513 43.626 55.7167C43.6007 55.8224 43.552 55.9239 43.5203 56.0296C43.4907 56.1269 43.4738 56.2284 43.4442 56.3256C43.1968 57.0932 42.8881 57.848 42.5012 58.5648C42.1163 59.2858 41.6321 59.954 41.0803 60.5608C40.9788 60.6687 40.8773 60.7765 40.7674 60.878C40.668 60.9731 40.5749 61.0788 40.4756 61.1761C40.2937 61.3601 40.0886 61.5123 39.892 61.6793C39.8011 61.7512 39.7123 61.821 39.6044 61.8675C39.3676 61.9775 39.1414 62.098 38.932 62.2481C38.7713 62.3665 38.5916 62.4574 38.4225 62.5653L38.1645 62.7196C38.0799 62.7725 37.9911 62.8211 37.9002 62.8634L37.3166 63.1425C37.1221 63.2377 36.9149 63.299 36.714 63.3793C36.659 63.4005 36.6041 63.4132 36.5491 63.4301C36.4772 63.4533 36.4074 63.4787 36.344 63.5231C36.289 63.5633 36.1918 63.6098 36.1241 63.6225C35.8365 63.6711 35.5532 63.724 35.2656 63.7642C35.1282 63.7895 34.995 63.8297 34.8639 63.8762C34.8237 63.891 34.7772 63.9058 34.7392 63.8953C34.5171 63.8234 34.2994 63.8403 34.0816 63.8487C33.9166 63.8614 33.7517 63.8572 33.5868 63.8657C33.3394 63.8762 33.092 63.8826 32.8468 63.9439C32.8129 63.9523 32.7791 63.9523 32.7474 63.9439C32.6142 63.9037 32.4788 63.8868 32.3414 63.8804C32.1849 63.8656 32.0285 63.8445 31.8741 63.8212C31.798 63.8107 31.7219 63.7916 31.6479 63.7705C31.5591 63.7494 31.4724 63.7303 31.3793 63.7303C31.2292 63.7303 31.0791 63.724 30.9311 63.7028C30.7429 63.6817 30.559 63.6309 30.375 63.5887C30.191 63.5443 30.0071 63.502 29.8253 63.4491C29.6984 63.4153 29.5673 63.3962 29.4404 63.3688C29.3981 63.3603 29.3537 63.3603 29.3263 63.3201C29.2776 63.2525 29.2078 63.2461 29.1381 63.2356C29.0789 63.225 29.0154 63.2229 28.9583 63.2059C28.897 63.1869 28.8357 63.1594 28.7786 63.1277C28.6919 63.0791 28.6074 63.0326 28.5122 63.003L27.935 62.8127L27.362 62.6118C27.0659 62.5124 26.7699 62.4215 26.4739 62.3306C26.0997 62.2143 25.7254 62.098 25.3385 61.9923C25.0276 61.9035 24.7147 61.8189 24.4039 61.7237C24.1776 61.654 23.9556 61.5779 23.7315 61.5017C23.6638 61.4785 23.6237 61.4637 23.5454 61.4341C23.5412 61.4341 23.5243 61.4298 23.5116 61.415C23.4947 61.3939 23.4841 61.3601 23.4714 61.3453C23.427 61.2903 23.4038 61.2945 23.3699 61.2818C23.2431 61.2395 23.2135 61.2057 23.0866 61.1655C23.057 61.155 23.0338 61.1465 22.9745 61.1698C22.9196 61.1867 22.8477 61.1486 22.8287 61.1444C22.6912 61.1148 22.7018 61.1317 22.5834 61.0535C22.577 61.0492 22.5411 61.0175 22.5263 61.0027C22.4396 60.9139 22.2366 60.8505 21.9639 60.7659C21.8835 60.749 21.7989 60.73 21.7144 60.7321C21.6636 60.7321 21.615 60.7152 21.5769 60.6813C21.4331 60.5481 21.2682 60.453 21.1012 60.3599C21.0652 60.3388 20.9722 60.3155 20.9363 60.2923C20.8538 60.2373 20.82 60.2141 20.7164 60.2162C20.543 60.2204 20.3865 60.1548 20.2279 60.1041C20.1264 60.0724 20.0292 60.0301 19.9298 59.9899C19.8621 59.9624 19.7987 59.9286 19.7141 59.9434C19.6697 59.9519 19.6253 59.9223 19.583 59.9053C19.232 59.7573 18.9128 59.5861 18.5639 59.4296C18.5004 59.4021 18.4095 59.381 18.3461 59.3514C18.2171 59.2901 18.1262 59.2182 17.9972 59.1568C17.9042 59.1146 17.7752 59.0786 17.6864 59.0321C17.4559 58.9116 17.2255 58.791 17.0034 58.6452C16.8174 58.5289 16.6355 58.4083 16.4643 58.2624C16.3776 58.1906 16.293 58.125 16.2148 58.0404C16.1365 57.958 16.0604 57.8713 15.9906 57.7825C15.923 57.7064 15.8701 57.5922 15.8236 57.4949C15.8024 57.4505 15.794 57.3998 15.7919 57.3511C15.7919 57.3173 15.8046 57.2877 15.8299 57.2687C15.8003 57.2623 15.7728 57.2433 15.7559 57.2116C15.7327 57.1651 15.7136 57.1122 15.7094 57.0593C15.7052 56.9494 15.7094 56.831 15.7475 56.7126C15.8342 56.3637 16.1788 56.0444 16.5362 55.9281C16.8575 55.8097 17.1684 55.797 17.458 55.8097C17.7498 55.8224 18.0247 55.8689 18.2932 55.9239C18.9783 56.0698 19.6232 56.2686 20.2639 56.4546C20.9045 56.6428 21.5389 56.8225 22.1774 56.9663C22.8646 57.1312 23.556 57.1608 24.2622 57.0911C24.3489 57.0826 24.4377 57.0741 24.5244 57.0615L24.647 57.0445L24.6745 57.0403C24.6999 57.0361 24.6957 57.0361 24.6999 57.0361L24.7105 57.0319C24.7105 57.0319 24.7253 57.0276 24.7274 57.0255L24.7063 57.0149C24.7063 57.0149 24.7063 57.0149 24.6788 56.998C24.6682 56.9917 24.6618 56.9832 24.6534 56.9727L24.6407 56.9579L24.6322 56.9515L24.5984 56.9282C24.5117 56.8712 24.4145 56.8246 24.3278 56.7676C22.9492 55.8436 21.6721 54.7779 20.5007 53.6128C20.3928 53.5071 20.2977 53.3929 20.1941 53.2851C20.0968 53.1857 19.989 53.0927 19.8938 52.9912C19.7162 52.803 19.5386 52.6127 19.3652 52.4182C19.287 52.3315 19.2172 52.2406 19.1559 52.1391C19.0206 51.9129 18.8768 51.6951 18.7055 51.4963C18.4412 51.1876 18.1812 50.8747 17.9274 50.5575C17.6547 50.2171 17.3904 49.8724 17.1324 49.5193C17.0986 49.4728 17.0711 49.42 17.0373 49.3734C16.995 49.3121 16.9569 49.2466 16.8893 49.2022C16.8322 49.1641 16.7518 49.088 16.7201 49.0267C16.5763 48.7708 16.4431 48.5086 16.2845 48.2634C16.2084 48.145 16.1175 48.0371 16.0245 47.9314C15.997 47.8997 15.9653 47.8616 15.961 47.8215C15.9314 47.5889 15.8215 47.3943 15.72 47.1977C15.6418 47.0476 15.5593 46.8996 15.4747 46.7537C15.3775 46.5866 15.2865 46.4154 15.166 46.261C15.1364 46.335 15.1089 46.4069 15.0857 46.4725L14.9102 46.9693C14.7558 47.4049 14.5592 48.1323 14.4704 48.5869L14.371 49.1007C14.2843 49.5553 14.1617 50.3017 14.1003 50.7584L14.0306 51.287C14.0031 51.4879 13.9904 51.7458 13.9883 52.0122V52.1539C13.9925 52.4436 14.0094 52.7311 14.0411 52.951L14.113 53.4437L14.1088 53.431Z" fill="#FDC300"/>
<path d="M25.5056 37.3889C25.6113 37.5348 25.7001 37.6912 25.7825 37.8477C25.8333 37.945 25.8967 38.0295 25.9665 38.112C26.0278 38.1797 26.087 38.2494 26.1399 38.3234C26.2477 38.4736 26.3492 38.6279 26.4465 38.7844C26.531 38.9197 26.6241 39.0487 26.7361 39.165C26.7636 39.1946 26.7827 39.2284 26.7932 39.2665C26.8736 39.5477 27.0237 39.7951 27.1675 40.0446C27.2626 40.2116 27.3599 40.3765 27.4656 40.5372C27.6031 40.7487 27.7341 40.9643 27.9371 41.1271C27.9731 41.1568 27.9942 41.2054 28.0132 41.2498C28.0725 41.3978 28.1359 41.5416 28.2162 41.6811C28.3833 41.9687 28.5778 42.2351 28.7681 42.5036C28.8125 42.5671 28.8569 42.6812 28.8738 42.7574C28.8928 42.8441 28.9394 42.9138 28.9859 42.9878C29.0197 43.0428 29.0599 43.0978 29.0937 43.1528L29.8443 44.4278C30.079 44.8231 30.3158 45.2164 30.559 45.6076C30.7155 45.8571 30.8994 46.0897 31.0982 46.3054C31.187 46.4026 31.2652 46.5062 31.3371 46.6141L31.8277 47.333C31.9165 47.4598 31.9989 47.5951 32.0898 47.722C32.1892 47.8573 32.2928 47.9863 32.3943 48.1174C32.9419 48.8511 33.5234 49.5637 34.1725 50.1663C34.8132 50.752 35.5702 51.3059 36.2658 51.196C36.3546 51.1854 36.4498 51.1791 36.5407 51.1516C36.6401 51.1241 36.7289 51.0649 36.8198 51.0205C37.1518 50.8492 37.4626 50.5701 37.7438 50.2466C38.0292 49.9252 38.2893 49.5616 38.5452 49.1873C39.0568 48.4388 39.5474 47.6417 40.1437 46.8932C40.6384 46.2715 41.2051 45.6647 41.9261 45.2143C42.2834 44.9902 42.6788 44.8105 43.0911 44.6963C43.5161 44.5715 43.9644 44.544 44.3788 44.5673C45.0301 44.6054 45.6496 44.7513 46.2311 44.9775L46.2268 44.9669L45.9942 44.5292C45.7786 44.1212 45.3768 43.4784 45.1041 43.1041L44.8207 42.7151C44.548 42.3408 44.0574 41.7636 43.7339 41.4316L43.4083 41.0997C43.0827 40.7677 42.5773 40.2031 42.2813 39.8458L41.924 39.4124C41.6301 39.055 41.0592 38.5687 40.6575 38.334L40.1775 38.0528C39.7757 37.8181 39.1372 37.4058 38.7587 37.1372L38.3062 36.8159C37.9277 36.5473 37.2511 36.2217 36.8029 36.0948L36.2679 35.9426C35.8197 35.8157 35.0987 35.5683 34.6673 35.395L34.1408 35.1835C33.7095 35.0101 32.9737 34.8896 32.5085 34.915L31.9397 34.9467C31.4745 34.9721 30.7134 35.0271 30.2482 35.0693L29.7238 35.118C29.2586 35.1603 28.508 35.2829 28.0555 35.3886L27.5417 35.5091C27.0871 35.617 26.3534 35.8179 25.9094 35.9574L25.3871 36.1202C25.1694 36.1879 24.8881 36.2957 24.6112 36.412C24.9558 36.7165 25.2497 37.0421 25.5034 37.3931" fill="#FDC300"/>
<path d="M17.0162 43.7533C17.3714 44.0155 17.6822 44.3136 17.9867 44.6096C18.2235 44.8422 18.4582 45.0748 18.6866 45.3095C18.9762 45.6077 19.2596 45.91 19.5408 46.2103C19.7691 46.4534 20.0017 46.6987 20.2301 46.9418C20.3929 47.1237 20.5557 47.3034 20.7164 47.4853C20.765 47.5402 20.7946 47.5741 20.8496 47.6375C20.8517 47.6417 20.8665 47.6523 20.8686 47.6713C20.8729 47.6988 20.8644 47.7348 20.8686 47.7559C20.8813 47.8278 20.9046 47.8362 20.9278 47.8616C21.0209 47.9631 21.0293 48.0096 21.1266 48.1069C21.1499 48.1301 21.1647 48.1492 21.2323 48.1555C21.2915 48.1661 21.338 48.2338 21.3528 48.2486C21.4628 48.3395 21.4628 48.3204 21.5326 48.4473C21.5368 48.4537 21.5537 48.5002 21.5601 48.5213C21.5981 48.6418 21.7525 48.7962 21.9681 48.9907C22.0358 49.0393 22.1035 49.0943 22.1838 49.1282C22.2324 49.1493 22.2684 49.1852 22.2895 49.2339C22.3678 49.4178 22.4841 49.5743 22.6067 49.7265C22.6342 49.7604 22.7124 49.8196 22.7357 49.8534C22.7949 49.938 22.816 49.9739 22.9175 50.0078C23.0867 50.0648 23.2114 50.1832 23.3467 50.2869C23.3869 50.3165 23.4271 50.3503 23.4651 50.3841C23.4546 50.3714 23.4461 50.3587 23.4377 50.3503C23.3192 50.2361 23.203 50.1177 23.0549 50.031C23.0169 50.0078 22.9894 49.9718 22.9809 49.9295C22.964 49.8576 22.9281 49.7921 22.8964 49.7286C22.7653 49.5193 22.6659 49.365 22.5707 49.3121C22.5538 49.3037 22.52 49.2804 22.5158 49.2762C22.4248 49.1958 22.4396 49.2 22.3847 49.0901C22.3762 49.0732 22.3276 49.0224 22.3318 48.9717C22.3403 48.9146 22.3276 48.8977 22.3128 48.8744C22.2515 48.7772 22.2155 48.7602 22.1521 48.663C22.1352 48.6376 22.1331 48.6165 22.0781 48.5911C22.0633 48.5826 22.0316 48.5805 22.0104 48.5742C21.9956 48.5678 21.9893 48.553 21.9872 48.5509C21.947 48.4917 21.9258 48.46 21.892 48.4093C21.7821 48.238 21.67 48.0667 21.5643 47.8912C21.4205 47.6502 21.2852 47.4049 21.1477 47.1617C20.9807 46.8615 20.8137 46.5613 20.6466 46.2631C20.5155 46.0242 20.3866 45.7853 20.2576 45.5484C20.0884 45.2461 19.9193 44.9437 19.7501 44.6392C19.7099 44.5652 19.6571 44.4997 19.5979 44.4384C19.5598 44.3982 19.526 44.3517 19.5006 44.3031C19.4752 44.2587 19.4626 44.2058 19.4456 44.1572C19.4245 44.1022 19.4097 44.0409 19.342 44.0155C19.3019 44.0007 19.2934 43.9626 19.2786 43.9309C19.2321 43.8294 19.1919 43.7258 19.139 43.6264C18.9889 43.3431 18.8282 43.064 18.6929 42.7722C18.64 42.6559 18.5999 42.5354 18.5639 42.4128C18.5407 42.3366 18.5068 42.2711 18.4624 42.2056C18.4265 42.1506 18.3884 42.0956 18.3588 42.0385C18.2975 41.9201 18.2404 41.8017 18.1854 41.6791C18.1728 41.6495 18.158 41.6241 18.1432 41.5966C17.8556 41.9391 17.5088 42.3811 17.2953 42.6855L17.0077 43.1C16.9274 43.2141 16.8322 43.3537 16.735 43.5017C16.7476 43.5144 16.7624 43.525 16.7751 43.5376C16.8555 43.6138 16.9274 43.6941 17.0162 43.7554" fill="#FDC300"/>
<path d="M15.976 45.9777C16.0669 46.151 16.1705 46.3202 16.2657 46.4915C16.3333 46.6183 16.4031 46.7473 16.4708 46.8763C16.513 46.9503 16.5659 47.0158 16.6082 47.0898C16.7879 47.3943 16.9972 47.7918 17.1918 48.09C17.4413 48.4706 17.6739 48.7497 17.9382 49.1197C17.9826 49.181 18.0227 49.2402 18.0312 49.3248C18.0354 49.3713 18.0608 49.4157 18.0883 49.4538C18.194 49.6039 18.2997 49.754 18.4202 49.8957C18.6317 50.1431 18.822 50.4074 19.0186 50.6674C19.1243 50.8049 19.2364 50.9402 19.3506 51.0713C19.3802 51.1072 19.4225 51.1326 19.4627 51.158C19.5049 51.1834 19.5324 51.2172 19.5515 51.2637C19.5705 51.3123 19.6022 51.3546 19.6339 51.3948C19.6762 51.4477 19.7248 51.4921 19.7671 51.5428C19.8284 51.6147 19.8855 51.6887 19.9891 51.7141C20.0166 51.7204 20.0378 51.7437 20.0568 51.7648L20.3042 52.0397C20.3274 52.0651 20.3317 52.101 20.3253 52.137C20.3169 52.1835 20.3422 52.2067 20.3676 52.2342C20.467 52.3378 20.5643 52.4372 20.6615 52.5408C20.7461 52.6296 20.8307 52.7184 20.9406 52.7797C20.9639 52.7945 20.9893 52.8157 20.9956 52.8411C21.0294 52.9531 21.1415 52.9975 21.188 53.1011C21.2092 53.1476 21.2493 53.1815 21.2959 53.2026C21.4227 53.2639 21.4777 53.4204 21.6468 53.4246C21.6786 53.4246 21.7039 53.469 21.7272 53.486C21.7631 53.5092 21.797 53.5325 21.8245 53.5663C22.0084 53.7968 22.2325 53.9807 22.463 54.1583C22.6681 54.3169 22.8584 54.4903 23.0593 54.6531C23.0846 54.6743 23.11 54.6975 23.1227 54.7271C23.1629 54.8201 23.2348 54.8794 23.3109 54.9364C23.3743 54.9851 23.4378 55.0337 23.4991 55.0866C23.5667 55.1394 23.6386 55.1775 23.7211 55.2071C23.7993 55.2367 23.8649 55.2959 23.9346 55.3403C23.9452 55.3488 23.9579 55.3636 23.9558 55.3762C23.9473 55.4756 24.0171 55.5052 24.0721 55.5454C24.3787 55.7653 24.6874 55.9788 25.0024 56.1839C25.0257 56.1987 25.0511 56.2135 25.0764 56.222C25.1039 56.2326 25.1589 56.2558 25.2054 56.2706C25.3069 56.3024 25.4211 56.3552 25.4655 56.4398C25.4972 56.5011 25.5712 56.5392 25.641 56.5815L26.0321 56.8056L26.1653 56.9303C26.1844 56.9515 26.2161 56.9747 26.2267 56.9917L26.2436 57.0361C26.2647 57.0953 26.2859 57.1545 26.3049 57.2137C26.3112 57.2348 26.3197 57.2517 26.3197 57.2792C26.3134 57.2982 26.3028 57.3152 26.2922 57.3342C26.2838 57.3532 26.269 57.3722 26.2542 57.3913C26.2372 57.4103 26.2309 57.4293 26.2055 57.4505C26.1801 57.4759 26.1527 57.4991 26.1336 57.5245C26.1146 57.552 26.0723 57.5752 26.0702 57.6133C26.0617 57.6387 26.0047 57.664 25.9476 57.6788C25.7721 57.7084 25.6452 57.7528 25.4951 57.7994C25.4422 57.8184 25.3703 57.8395 25.3111 57.8353C25.161 57.8247 25.0722 57.8564 24.9559 57.8818L24.6578 57.9431C24.5838 57.9558 24.5098 57.9727 24.4336 57.9833C24.2835 58.0087 24.1334 58.0277 23.9812 58.0341C23.4293 58.07 22.8669 58.0383 22.3129 57.9368C21.7695 57.8332 21.2684 57.7 20.7546 57.5625C20.689 57.5456 20.6235 57.5287 20.5685 57.4843C20.5389 57.4611 20.4987 57.4526 20.4607 57.4463C19.562 57.2708 18.7015 56.9472 17.8557 56.8035C17.6147 56.7654 17.3778 56.7316 17.1579 56.7189C16.974 56.7083 16.8027 56.7147 16.6611 56.7464C16.5173 56.7781 16.3925 56.8267 16.2572 56.9324C16.2213 56.9599 16.1874 56.9959 16.1472 57.0276C16.1113 57.0635 16.0754 57.1016 16.0352 57.1418C16.0056 57.1777 15.9591 57.2094 15.9125 57.2412C15.9718 57.2454 16.0288 57.2538 16.0775 57.2708C16.2297 57.3257 16.3904 57.3892 16.5384 57.4611C16.6589 57.5245 16.8027 57.5731 16.9275 57.6365C17.0628 57.7021 17.1897 57.7634 17.3144 57.8247C17.5068 57.922 17.6992 58.0193 17.8959 58.1123C17.9466 58.1377 17.9974 58.1905 18.0481 58.2159C18.12 58.2518 18.1919 58.2624 18.2659 58.2962L18.5577 58.4358C18.9087 58.6071 19.2681 58.7656 19.6276 58.9285L19.9659 59.0744C19.9955 59.087 20.0293 59.0997 20.0462 59.1251C20.0822 59.1843 20.1372 59.2012 20.1921 59.2202C20.4755 59.3112 20.763 59.3915 21.0315 59.5184C21.0802 59.5416 21.133 59.5543 21.1711 59.6008C21.1859 59.6199 21.207 59.6326 21.2282 59.6389C21.3593 59.677 21.4819 59.7425 21.6194 59.7637C21.6764 59.7721 21.7314 59.8017 21.7843 59.8313C21.8837 59.8905 21.9809 59.9476 22.1036 59.9497C22.1437 59.9497 22.1818 59.973 22.2198 59.9878C22.6766 60.1654 23.1354 60.3388 23.5942 60.5079L24.3258 60.768C24.4865 60.823 24.6366 60.9097 24.7952 60.9646C25.4168 61.1803 26.0469 61.341 26.6813 61.5694C26.7785 61.6032 26.8737 61.6391 26.9625 61.6941C27.0238 61.7322 27.0999 61.7449 27.1739 61.7575C27.2818 61.7766 27.3833 61.7998 27.4636 61.8823C27.5059 61.9267 27.5545 61.9648 27.6285 61.9204C27.6518 61.9056 27.6898 61.9246 27.7194 61.933C27.8442 61.9753 27.9689 62.0176 28.0916 62.0641C28.1423 62.0832 28.1867 62.1191 28.2375 62.1381C28.3051 62.1656 28.3707 62.2037 28.4426 62.2058C28.5462 62.2058 28.6371 62.2502 28.7301 62.2777C28.7745 62.2904 28.7745 62.2946 28.7936 62.3686C28.7936 62.375 28.7999 62.3792 28.8063 62.3792C28.9902 62.3855 29.1678 62.4046 29.3391 62.4616C29.3898 62.4786 29.4427 62.5018 29.4808 62.542C29.5294 62.5927 29.5865 62.6118 29.6499 62.6245C29.707 62.635 29.7641 62.6435 29.8064 62.6985C29.8233 62.7196 29.8508 62.7323 29.8761 62.7386C30.039 62.7746 30.2018 62.8126 30.3688 62.8317C30.3984 62.8359 30.4365 62.8274 30.4597 62.8042C30.5084 62.7556 30.5549 62.7661 30.6035 62.7767C30.8699 62.8401 31.1385 62.8803 31.407 62.9247C31.648 62.9733 31.8912 62.9987 32.1322 63.0283C32.2168 63.0389 32.3014 63.0452 32.3838 63.0516C32.4684 63.0516 32.553 63.0537 32.6376 63.0579C32.8088 63.0643 32.9822 63.0896 33.1556 63.0917C33.3396 63.0854 33.5256 63.0769 33.7117 63.0706C33.8491 63.0706 33.9845 63.0664 34.1219 63.0558C34.2001 63.0495 34.2784 63.0304 34.3566 63.0241C34.4391 63.0177 34.5279 63.0114 34.6188 63.0051C34.7097 62.9924 34.8027 62.9797 34.8958 62.9691C35.0818 62.9437 35.27 62.9268 35.4328 62.8888C35.6379 62.8359 35.8219 62.7788 36.0037 62.7238C36.0968 62.6985 36.1856 62.6667 36.2765 62.6287C36.3674 62.5927 36.4604 62.5568 36.5619 62.523C36.6275 62.4997 36.693 62.4786 36.7713 62.4955C36.8157 62.5039 36.8622 62.4955 36.9024 62.4807C37.0609 62.413 37.2195 62.3454 37.3718 62.265C37.6466 62.1318 37.913 61.9838 38.1837 61.8421C38.3296 61.766 38.4712 61.6857 38.6023 61.5821C38.6383 61.5567 38.6658 61.5207 38.6933 61.4827C38.7207 61.4446 38.7546 61.4214 38.799 61.4087C38.8455 61.396 38.8878 61.3685 38.9301 61.3431C38.9829 61.3093 39.0295 61.2691 39.0802 61.2332C39.1542 61.1867 39.2282 61.1359 39.2536 61.0365C39.2599 61.0112 39.2832 60.9921 39.3022 60.9752L39.5707 60.7553C39.594 60.7363 39.6299 60.7321 39.6659 60.7405C39.7103 60.7511 39.7357 60.7299 39.761 60.7046C39.8541 60.6094 39.9513 60.5185 40.0465 60.4276C40.129 60.3472 40.2199 60.2732 40.2706 60.1654C40.2812 60.1421 40.3002 60.1189 40.3235 60.1104C40.4292 60.0745 40.463 59.9666 40.5603 59.918C40.6026 59.8969 40.6322 59.8567 40.6512 59.8144C40.7062 59.696 40.8394 59.6241 40.8288 59.4676C40.8267 59.438 40.8648 59.4105 40.8775 59.3873C40.8944 59.3513 40.9134 59.3175 40.943 59.29C41.0466 59.1991 41.1291 59.0892 41.2031 58.975C41.2792 58.8629 41.349 58.7466 41.4166 58.6282C41.5245 58.4104 41.6577 58.2074 41.7718 57.9939C41.7845 57.9664 41.8015 57.9389 41.8268 57.9199C41.9029 57.8649 41.9431 57.7846 41.9812 57.7042C42.0129 57.6365 42.0467 57.5689 42.0827 57.5012C42.1186 57.4293 42.1334 57.3511 42.1419 57.2686C42.1503 57.1883 42.1884 57.1164 42.2159 57.0424C42.2201 57.0318 42.2307 57.017 42.2434 57.0149C42.3385 57.0001 42.3491 56.9303 42.3745 56.869C42.4971 56.5328 42.6197 56.1966 42.717 55.8499C42.7339 55.797 42.7381 55.7463 42.7297 55.6892C42.7191 55.63 42.7233 55.5708 42.7804 55.5285C42.8227 55.4989 42.8291 55.4524 42.8375 55.408C42.8904 55.1796 42.9453 54.9534 42.9897 54.7229C43.013 54.6129 43.049 54.5051 43.0743 54.3951C43.0912 54.3296 43.1124 54.2662 43.0743 54.1943C43.0616 54.1689 43.0743 54.1308 43.0849 54.1034C43.1166 54.0272 43.1314 53.9469 43.1314 53.8644C43.1314 53.8327 43.1335 53.7947 43.1547 53.7756C43.2097 53.7228 43.2012 53.6593 43.2097 53.598C43.2371 53.3274 43.2604 53.0567 43.2985 52.7861C43.3661 52.2934 43.4211 51.8092 43.4824 51.3039C43.5416 50.7858 43.641 50.272 43.7679 49.7625C43.7827 49.6969 43.8038 49.6335 43.8461 49.5764C43.8693 49.5468 43.8778 49.5066 43.8863 49.4686C44.0787 48.5699 44.5079 47.7199 45.0851 46.9609C45.1739 46.8551 45.2564 46.7452 45.3558 46.6458C45.4573 46.5485 45.5545 46.4492 45.6624 46.3625C45.9203 46.1489 46.2227 45.9713 46.5441 45.8656C46.1656 45.7916 45.7935 45.7112 45.4234 45.6394C45.1422 45.5886 44.8652 45.5421 44.5883 45.5083C44.3493 45.4829 44.1104 45.4723 43.882 45.4871C43.6516 45.5061 43.4465 45.5421 43.2223 45.6161C42.7804 45.7493 42.3723 45.9798 41.9727 46.2441C41.9389 46.2673 41.9051 46.2927 41.8839 46.3265C41.848 46.3921 41.7909 46.4323 41.7401 46.4809C40.9092 47.2209 40.2706 48.2168 39.6046 49.2106C39.4206 49.4855 39.2155 49.7498 39.0083 50.0162C38.9597 50.0775 38.8984 50.1261 38.8899 50.2149C38.8857 50.2488 38.854 50.2847 38.8265 50.3122C38.7503 50.3841 38.6911 50.4644 38.6383 50.5554C38.6193 50.5892 38.5918 50.6315 38.5601 50.6442C38.4712 50.6759 38.4205 50.7457 38.3634 50.8112C38.2725 50.9233 38.1752 51.0375 38.0695 51.1411C37.8475 51.3567 37.5895 51.5513 37.2999 51.7098C37.247 51.7416 37.1836 51.7648 37.1455 51.8198C37.0926 51.8959 37.006 51.9192 36.9235 51.9213C36.8453 51.9213 36.7734 51.9361 36.6973 51.9572C36.1982 52.1031 35.6231 52.0566 35.1643 51.8494C35.0818 51.8113 35.0057 51.7542 34.9063 51.7986C34.8937 51.805 34.8683 51.7986 34.8535 51.7902C34.7499 51.7416 34.6526 51.6887 34.5786 51.6105C34.5004 51.5322 34.4221 51.4646 34.3291 51.4075C34.2445 51.3525 34.1705 51.2891 34.0923 51.2278C34.0014 51.1537 33.9083 51.0861 33.7942 51.0459C33.7582 51.0332 33.7244 51.0057 33.6948 50.9783L33.3417 50.6569C33.2317 50.5448 33.1239 50.4306 33.0203 50.3122C32.8998 50.1811 32.7962 50.0416 32.6799 49.9126C32.5657 49.7815 32.443 49.6567 32.3204 49.5341C32.2845 49.4982 32.257 49.4559 32.2316 49.4136C32.2147 49.384 32.1661 49.348 32.1639 49.3121C32.1534 49.1281 31.9884 49.0351 31.9292 48.8829C31.9081 48.8279 31.8743 48.7771 31.8256 48.7433C31.7178 48.6651 31.6755 48.5361 31.5613 48.4684C31.536 48.4536 31.5148 48.4198 31.5021 48.3902C31.4472 48.2549 31.3605 48.1386 31.2759 48.0223C31.1765 47.887 31.0835 47.7517 30.9926 47.6121C30.9672 47.574 30.946 47.5402 30.8974 47.5339C30.8572 47.5275 30.8213 47.5106 30.798 47.4789C30.7156 47.3584 30.631 47.24 30.5528 47.1173C30.5358 47.0898 30.5147 47.0581 30.5126 47.0264C30.5041 46.908 30.4386 46.8192 30.3773 46.7283C30.3329 46.6648 30.2969 46.5951 30.2525 46.5316C30.2187 46.483 30.1827 46.4323 30.1383 46.3921C30.0939 46.354 30.0664 46.3117 30.0495 46.2568C30.0326 46.2039 30.0157 46.151 29.9861 46.1045C29.8783 45.9311 29.7683 45.7578 29.6562 45.5886C29.4448 45.2714 29.2313 44.9564 29.0494 44.6223C28.9458 44.4341 28.8274 44.2544 28.7153 44.0726C28.6857 44.0261 28.6519 43.9795 28.6054 43.9499C28.5272 43.8992 28.4806 43.8273 28.4341 43.7512C28.1592 43.2966 27.9689 42.9181 27.6983 42.4593C27.4847 42.1019 27.193 41.6664 26.9815 41.3111C26.9308 41.2266 26.8906 41.1356 26.8398 41.0511C26.751 40.9073 26.6601 40.7635 26.5713 40.6197C26.455 40.421 26.3451 40.2201 26.2267 40.0235C26.1167 39.8416 25.9962 39.6661 25.8841 39.4864C25.7763 39.3109 25.6748 39.1312 25.5627 38.9578C25.3999 38.7104 25.2287 38.4694 25.0574 38.2304C24.8671 37.9661 24.6726 37.7082 24.4675 37.4714C24.4294 37.4291 24.3956 37.3868 24.4083 37.3191C24.4146 37.2874 24.3977 37.2451 24.3787 37.2176C24.2581 37.0696 24.1271 36.9343 23.9896 36.818C23.9685 36.8011 23.9389 36.7842 23.9114 36.7821C23.886 36.7821 23.8628 36.7778 23.8437 36.7694C23.8374 36.7736 23.831 36.7757 23.8247 36.7799L23.3405 37.0442C23.258 37.0887 23.165 37.1415 23.0677 37.1965C23.0741 37.2874 23.0825 37.3804 23.0952 37.4735C23.0994 37.5073 23.1121 37.5538 23.091 37.5771C23.0339 37.649 23.0656 37.7103 23.1037 37.7653C23.1756 37.871 23.1883 37.9873 23.1967 38.1078C23.2031 38.1903 23.2115 38.2791 23.2453 38.3531C23.294 38.4609 23.3257 38.5709 23.3574 38.685C23.5604 39.4209 23.7909 40.163 24.0763 40.884C24.1503 41.0701 24.256 41.2435 24.3343 41.4274C24.4527 41.7087 24.5774 41.9899 24.7043 42.269C24.9453 42.7955 25.2033 43.3177 25.4718 43.8336C25.4951 43.8759 25.5247 43.9203 25.5331 43.9668C25.5585 44.1064 25.6367 44.2142 25.7171 44.3263C25.7573 44.3834 25.7974 44.4447 25.8186 44.5103C25.8672 44.6688 25.9581 44.8042 26.0258 44.9522C26.0385 44.9775 26.0554 44.9987 26.0787 45.0156C26.1336 45.0558 26.159 45.115 26.1928 45.17C26.3789 45.4702 26.5248 45.7937 26.6834 46.1088C26.7151 46.1722 26.7447 46.2335 26.8145 46.2694C26.8462 46.2864 26.8652 46.3244 26.8842 46.3561L27.1147 46.7304C27.3621 47.13 27.6158 47.5254 27.8738 47.9166L28.0874 48.2401C28.1423 48.3204 28.1656 48.405 28.2206 48.4854C28.2586 48.5424 28.3263 48.5974 28.3643 48.6545C28.5081 48.8744 28.6519 49.0943 28.7957 49.3142C28.9881 49.6102 29.1678 49.9147 29.3306 50.2297C29.4279 50.4137 29.523 50.6019 29.5822 50.8049C29.6013 50.8725 29.6118 50.9444 29.6118 51.0163C29.6118 51.048 29.5992 51.0713 29.5801 51.0903C29.5801 51.0903 29.5759 51.0945 29.5759 51.0967C29.5759 51.0967 29.5759 51.0967 29.5717 51.0988C29.5548 51.1157 29.5336 51.1241 29.5082 51.1263C29.4575 51.1263 29.4025 51.122 29.3581 51.1051C29.263 51.0692 29.1678 51.0269 29.0811 50.9783C28.7534 50.7964 28.4701 50.5554 28.1973 50.3016C28.0345 50.1515 27.8823 49.9929 27.7342 49.828C27.2268 49.2571 26.7024 48.6968 26.2711 48.0667C26.2542 48.0413 26.2351 48.0117 26.2055 47.9969C26.1527 47.9694 26.1188 47.925 26.085 47.8806C25.5437 47.1956 25.0193 46.4999 24.514 45.7937C24.3744 45.5992 24.2518 45.3941 24.1249 45.1911C24.0953 45.1446 24.0805 45.0896 24.015 45.0685C23.9896 45.06 23.9748 45.0304 23.9642 45.005C23.9346 44.9374 23.8945 44.8803 23.8395 44.8316C23.8205 44.8126 23.7951 44.7894 23.7972 44.7619C23.8014 44.6921 23.7613 44.6456 23.7274 44.5991C23.6682 44.5187 23.6027 44.4447 23.5477 44.3622C23.4356 44.191 23.3193 44.0176 23.2073 43.8442C23.1861 43.8104 23.1671 43.7744 23.1227 43.7617C23.0614 43.7448 23.0424 43.6941 23.036 43.6412C23.0276 43.5905 23.0106 43.5482 22.9832 43.5101L22.444 42.7257C22.4101 42.6771 22.389 42.6179 22.3044 42.6242C22.2939 42.6242 22.2812 42.6136 22.2748 42.6052C22.2368 42.5438 22.1902 42.4889 22.1691 42.4212C22.1458 42.3514 22.1184 42.288 22.0761 42.2309C22.0359 42.1759 21.9978 42.121 21.9598 42.066C21.9154 42.0004 21.8689 41.937 21.7949 41.8968C21.7695 41.8841 21.7504 41.8609 21.7356 41.8397C21.6109 41.6621 21.4777 41.4909 21.3614 41.3069C21.2303 41.0997 21.0971 40.8988 20.9216 40.7254C20.8962 40.7001 20.8793 40.6705 20.8645 40.6388C20.8539 40.6155 20.818 40.5922 20.8222 40.5648C20.8349 40.4231 20.7102 40.3639 20.6721 40.2518C20.6594 40.2116 20.6362 40.1757 20.5981 40.1546C20.5156 40.1059 20.4924 40.0087 20.4015 39.9706C20.3803 39.9621 20.3655 39.941 20.357 39.9199C20.319 39.8226 20.2513 39.7465 20.1879 39.6682C20.135 39.6048 20.0822 39.5414 20.0293 39.4758L19.7988 39.7359C19.4923 40.0827 18.989 40.6472 18.6782 40.994C18.7078 41.0574 18.7395 41.1208 18.767 41.1864C18.8283 41.3217 18.8791 41.4613 18.9425 41.5966C19.0334 41.7932 19.1328 41.9835 19.228 42.1781L19.5451 42.8229C19.5641 42.861 19.5832 42.897 19.5536 42.9498C19.5388 42.9752 19.5409 43.009 19.5493 43.0323C19.6043 43.1676 19.6656 43.2987 19.7291 43.4319C19.7396 43.453 19.7544 43.4742 19.7777 43.4848C19.8327 43.5101 19.8517 43.5567 19.8728 43.6032C19.894 43.6539 19.9257 43.6983 19.9765 43.73C20.0166 43.7554 20.0462 43.7977 20.0695 43.8358C20.1477 43.9711 20.1964 44.1212 20.2323 44.2777C20.2323 44.2819 20.2386 44.2861 20.2429 44.2861C20.3105 44.2904 20.3148 44.2904 20.3317 44.3242C20.3697 44.4003 20.4205 44.4701 20.4395 44.5589C20.4522 44.6202 20.4966 44.6709 20.5304 44.7217C20.5558 44.7619 20.5917 44.7936 20.6171 44.8338C20.6763 44.931 20.7292 45.0304 20.7863 45.1319C20.799 45.1551 20.8201 45.1848 20.8116 45.208C20.7842 45.2778 20.8243 45.3116 20.8687 45.3391C20.9512 45.3941 20.9871 45.4744 21.021 45.559C21.0421 45.6182 21.0654 45.6795 21.1077 45.7239C21.169 45.7874 21.2134 45.8614 21.2578 45.9354C21.5475 46.4196 21.8202 46.9143 22.1268 47.3901C22.2072 47.5127 22.3087 47.6206 22.389 47.7411L22.7611 48.2951C22.998 48.6418 23.2453 48.9822 23.4948 49.3205C23.516 49.348 23.5435 49.3755 23.5519 49.4094C23.5794 49.5108 23.6513 49.5764 23.7232 49.6441C23.7591 49.68 23.7972 49.7181 23.8162 49.7646C23.8649 49.8745 23.9473 49.9591 24.0086 50.0585C24.0192 50.0754 24.034 50.0881 24.0552 50.0965C24.1038 50.1156 24.1271 50.1557 24.1567 50.1917C24.3237 50.3841 24.4611 50.5998 24.6049 50.8091C24.6345 50.8514 24.662 50.8916 24.7191 50.9064C24.7445 50.9127 24.7635 50.9381 24.7804 50.9571L24.9876 51.196C25.2096 51.4477 25.4359 51.6972 25.6685 51.9382L25.8609 52.137C25.9095 52.1877 25.9349 52.2448 25.9856 52.2934C26.0195 52.3273 26.0787 52.3547 26.1125 52.3886C26.2436 52.5197 26.3726 52.655 26.5079 52.7861C26.6855 52.9637 26.8568 53.1455 27.0175 53.3401C27.0428 53.3697 27.0661 53.3993 27.0915 53.4289C27.0915 53.431 27.0957 53.4331 27.0978 53.4373C27.0978 53.4373 27.0999 53.4415 27.102 53.4437C27.1443 53.4965 27.1845 53.5515 27.2226 53.6107C27.2437 53.6403 27.2648 53.6657 27.2839 53.6953C27.3114 53.7355 27.3283 53.7841 27.3388 53.8348C27.3431 53.856 27.3431 53.875 27.3388 53.894C27.3388 53.9025 27.3346 53.9088 27.3304 53.9152C27.3283 53.9194 27.3262 53.9257 27.324 53.93C27.3198 53.9363 27.3156 53.9405 27.3114 53.9448C27.2966 53.9617 27.2775 53.9723 27.2522 53.9765C27.1866 53.985 27.1189 53.985 27.0555 53.9744C26.8673 53.9427 26.6982 53.8665 26.5269 53.7904C26.2415 53.6593 25.9666 53.505 25.7065 53.3295C25.5141 53.1984 25.3217 53.0652 25.1335 52.9277C25.0849 52.8918 25.0405 52.8263 24.9918 52.7882C24.9242 52.7353 24.8481 52.71 24.7804 52.6571L24.5098 52.4435C24.182 52.1835 23.8628 51.9149 23.5456 51.6443L23.2496 51.3884C23.2242 51.3652 23.1946 51.3419 23.1861 51.3102C23.1692 51.2404 23.1206 51.2045 23.0698 51.1664C22.8161 50.9783 22.5624 50.7922 22.3404 50.5659C22.3002 50.5237 22.2537 50.4898 22.2346 50.4285C22.2262 50.4031 22.2114 50.3841 22.1924 50.3672C22.0782 50.2763 21.983 50.1663 21.8583 50.0881C21.8054 50.0543 21.7631 50.0035 21.7272 49.9528C21.6532 49.8555 21.5855 49.7561 21.4692 49.699C21.4312 49.68 21.4037 49.6398 21.3741 49.6102C21.0125 49.2339 20.67 48.8469 20.3274 48.46L19.7904 47.8447C19.6741 47.7094 19.5832 47.555 19.4669 47.4197C19.0186 46.8995 18.5513 46.3984 18.0989 45.8973C18.0291 45.8212 17.9635 45.743 17.9107 45.652C17.8726 45.5886 17.8113 45.54 17.7521 45.4956C17.6633 45.43 17.5851 45.3624 17.5491 45.2524C17.5301 45.1932 17.5047 45.1361 17.418 45.1467C17.3884 45.1509 17.363 45.1171 17.3398 45.0938C17.2446 45.0029 17.1474 44.912 17.0522 44.8211C17.0142 44.7851 16.9867 44.7344 16.9486 44.6963C16.8979 44.6456 16.8513 44.5843 16.7858 44.5589C16.6907 44.5208 16.623 44.4532 16.5448 44.3982C16.5088 44.3749 16.5088 44.3707 16.5173 44.2925C16.5173 44.2861 16.5173 44.2798 16.5088 44.2777C16.4285 44.2481 16.3523 44.2227 16.2783 44.1931C16.2043 44.3094 16.1324 44.4193 16.0732 44.5166L15.7963 44.9627C15.7413 45.0515 15.6821 45.1573 15.6208 45.2693C15.6588 45.3454 15.6969 45.4216 15.7328 45.4977C15.8111 45.6605 15.8829 45.8275 15.9675 45.9903" fill="#FDC300"/>
<path d="M20.8561 39.3299C20.9343 39.4272 21.021 39.516 21.0971 39.6154C21.9408 40.6959 22.702 41.8123 23.4716 42.9202C23.5203 42.99 23.5583 43.0682 23.607 43.138C23.6598 43.2141 23.7232 43.2818 23.774 43.3579C24.4485 44.3305 25.1293 45.2968 25.8355 46.2398C25.8165 46.2039 25.7975 46.1701 25.7785 46.1341C25.6918 45.9565 25.5903 45.781 25.5564 45.5802C25.5374 45.4617 25.5057 45.4237 25.4317 45.3328C25.4 45.2947 25.3556 45.189 25.326 45.1488C25.1949 44.9627 25.0659 44.7746 24.8967 44.6181C24.8523 44.5758 24.8249 44.5229 24.8164 44.4616C24.8016 44.3622 24.7657 44.2692 24.7339 44.1741C24.5965 43.8611 24.4929 43.6285 24.3851 43.5313C24.3681 43.5144 24.328 43.4721 24.3216 43.4657C24.2201 43.3304 24.2371 43.341 24.1842 43.1824C24.1757 43.1591 24.125 43.0767 24.1334 43.0111C24.1482 42.9414 24.1334 42.9139 24.1186 42.88C24.0573 42.732 24.015 42.7003 23.9516 42.5523C23.9347 42.5142 23.9347 42.4846 23.8713 42.436C23.8543 42.4212 23.8163 42.4085 23.793 42.3895C23.7761 42.3768 23.7698 42.3557 23.7677 42.3514C23.7275 42.2605 23.7063 42.214 23.6725 42.1337C23.5626 41.8715 23.4526 41.6093 23.3532 41.3429C23.2179 40.9771 23.0974 40.607 22.979 40.2349C22.8352 39.7782 22.6999 39.3151 22.5878 38.8457C22.499 38.4757 22.425 38.0972 22.3658 37.7145C22.3616 37.6828 22.3573 37.6511 22.3531 37.6194C22.184 37.723 22.0254 37.8224 21.8964 37.909L21.4312 38.2156C21.169 38.389 20.8265 38.6702 20.5347 38.9409C20.5664 38.9789 20.6024 39.0149 20.6341 39.0529C20.7102 39.1418 20.7758 39.2411 20.8498 39.3299" fill="#FDC300"/>
<path d="M89.7817 58.4506H56.1837C56.1245 58.4506 56.0779 58.4992 56.0779 58.5584V60.5354C56.0779 60.5946 56.1266 60.6433 56.1837 60.6433H89.7817C89.8409 60.6433 89.8896 60.5946 89.8896 60.5354V58.5584C89.8896 58.4992 89.8409 58.4506 89.7817 58.4506Z" fill="black"/>
<path d="M60.3216 55.0823C59.2179 55.0823 58.2072 54.3317 58.2072 52.8769C58.2072 51.4222 59.2179 50.716 60.3216 50.716C61.4254 50.716 62.3282 51.4518 62.3282 52.8769C62.3282 54.3021 61.3936 55.0823 60.3216 55.0823ZM62.3282 56.8753H64.3052C64.3644 56.8753 64.413 56.8267 64.413 56.7675V49.016C64.413 48.9568 64.3644 48.9103 64.3052 48.9103H62.3282C62.269 48.9103 62.2204 48.9589 62.2204 49.016V49.515C62.2204 49.5975 62.1189 49.6377 62.0618 49.5785C61.7637 49.2655 61.0617 48.7708 60.0129 48.7708C58.1903 48.7708 56.0759 50.1346 56.0759 52.8769C56.0759 55.6193 58.1903 57.0275 60.0129 57.0275C61.0553 57.0275 61.7552 56.5645 62.0555 56.1987C62.1104 56.131 62.2183 56.1691 62.2183 56.2558V56.7675C62.2183 56.8267 62.2669 56.8753 62.3261 56.8753" fill="black"/>
<path d="M68.0689 47.0391H66.094C66.0345 47.0391 65.9862 47.0873 65.9862 47.1469V56.7675C65.9862 56.827 66.0345 56.8753 66.094 56.8753H68.0689C68.1284 56.8753 68.1767 56.827 68.1767 56.7675V47.1469C68.1767 47.0873 68.1284 47.0391 68.0689 47.0391Z" fill="black"/>
<path d="M71.6549 51.9847C71.9784 51.0882 72.7818 50.6399 73.5452 50.6399C74.3085 50.6399 75.1986 51.1305 75.4439 52.1116H71.7416C71.676 52.1116 71.6337 52.0482 71.6549 51.9868M71.7077 53.6593H77.2792C77.3342 53.6593 77.3786 53.6192 77.387 53.5642C77.8057 50.1113 75.3361 48.7729 73.5452 48.7729C71.7542 48.7729 69.3628 50.1367 69.3628 52.9235C69.3628 55.7103 71.6908 57.0297 73.6826 57.0297C75.1881 57.0297 76.1543 56.5751 76.8394 55.8964C76.8817 55.8541 76.8796 55.7864 76.8394 55.7442L75.7632 54.6954C75.7293 54.6637 75.6786 54.6552 75.6363 54.6785C75.1056 54.966 74.7144 55.1775 73.7608 55.1775C72.7332 55.1775 71.9276 54.6975 71.621 53.7799C71.602 53.7207 71.6464 53.6614 71.7077 53.6614" fill="black"/>
<path d="M78.6006 49.016V56.7675C78.6006 56.8267 78.6492 56.8753 78.7084 56.8753H80.6854C80.7446 56.8753 80.7911 56.8267 80.7911 56.7675V53.4732C80.9286 51.9424 82.1401 50.8852 83.6097 50.8852C83.7281 50.8852 83.8655 50.8852 84.0072 50.9063C84.0727 50.9169 84.1298 50.8662 84.1298 50.8006V48.9188C84.1298 48.868 84.0939 48.8215 84.0431 48.8131C83.8761 48.7835 83.7175 48.7835 83.5483 48.7835C82.3008 48.7835 81.4107 49.4622 80.9645 50.4285C80.9243 50.5173 80.7911 50.4877 80.7911 50.3904V49.0139C80.7911 48.9547 80.7425 48.9061 80.6854 48.9061H78.7084C78.6492 48.9061 78.6006 48.9547 78.6006 49.0139" fill="black"/>
<path d="M89.7817 48.9082H88.2656C88.2149 48.9082 88.1747 48.8659 88.1747 48.8173V47.1469C88.1747 47.0877 88.1261 47.0391 88.0669 47.0391H86.0899C86.0307 47.0391 85.9821 47.0877 85.9821 47.1469V48.8173C85.9821 48.868 85.9419 48.9082 85.8911 48.9082H84.9714C84.9122 48.9082 84.8635 48.9568 84.8635 49.016V50.6103C84.8635 50.6695 84.9122 50.7181 84.9714 50.7181H85.8911C85.9419 50.7181 85.9821 50.7604 85.9821 50.8091V54.2873C85.9821 56.5391 87.0245 56.9684 88.2656 56.9684C88.9845 56.9684 89.4878 56.8732 89.8239 56.7358C89.8641 56.7189 89.8895 56.6808 89.8895 56.6364V55.0168C89.8895 54.9449 89.8197 54.8941 89.7521 54.9153C89.4666 55.0041 89.1896 55.0379 88.8323 55.0379C88.2804 55.0379 88.1726 54.6404 88.1726 54.2725V50.8091C88.1726 50.7583 88.2149 50.7181 88.2635 50.7181H89.7795C89.8387 50.7181 89.8874 50.6695 89.8874 50.6103V49.016C89.8874 48.9568 89.8387 48.9082 89.7795 48.9082" fill="black"/>
<path d="M57.1161 42.6918H56.4754C56.4416 42.6918 56.4141 42.7193 56.4141 42.7531V45.4046C56.4141 45.4385 56.4416 45.4659 56.4754 45.4659H57.1161C57.15 45.4659 57.1774 45.4385 57.1774 45.4046V42.7531C57.1774 42.7193 57.15 42.6918 57.1161 42.6918Z" fill="black"/>
<path d="M58.5307 42.6918H57.8901C57.8562 42.6918 57.8287 42.7193 57.8287 42.7531V45.4046C57.8287 45.4384 57.8562 45.4659 57.8901 45.4659H58.5307C58.5646 45.4659 58.592 45.4384 58.592 45.4046V43.8928C58.6513 43.7004 58.8902 43.3177 59.2962 43.3177C59.5901 43.3177 59.7655 43.472 59.7655 43.9266V45.4067C59.7655 45.4406 59.793 45.468 59.8269 45.468H60.4675C60.5014 45.468 60.5289 45.4406 60.5289 45.4067V43.8738C60.5289 42.9984 60.0066 42.6516 59.478 42.6516C59.0763 42.6516 58.8056 42.8863 58.6766 43.0618C58.6491 43.0978 58.5942 43.0809 58.5942 43.0365V42.7552C58.5942 42.7214 58.5667 42.6939 58.5328 42.6939" fill="black"/>
<path d="M62.0173 42.0406H61.3767C61.3428 42.0406 61.3153 42.0681 61.3153 42.1019V42.6453C61.3153 42.6707 61.2942 42.6918 61.2688 42.6918H60.9855C60.9517 42.6918 60.9242 42.7193 60.9242 42.7532V43.2606C60.9242 43.2944 60.9517 43.3219 60.9855 43.3219H61.2688C61.2942 43.3219 61.3153 43.3431 61.3153 43.3685V44.5652C61.3153 45.3497 61.679 45.4977 62.1104 45.4977C62.3493 45.4977 62.5206 45.4681 62.639 45.4237C62.6622 45.4152 62.677 45.3919 62.677 45.3666V44.8507C62.677 44.8105 62.639 44.7809 62.6009 44.7915C62.5121 44.8168 62.4212 44.8253 62.3091 44.8253C62.1167 44.8253 62.0808 44.6878 62.0808 44.5589V43.3663C62.0808 43.341 62.1019 43.3198 62.1273 43.3198H62.6115C62.6453 43.3198 62.6728 43.2923 62.6728 43.2585V42.751C62.6728 42.7172 62.6453 42.6897 62.6115 42.6897H62.1273C62.1019 42.6897 62.0808 42.6686 62.0808 42.6432V42.0998C62.0808 42.066 62.0533 42.0385 62.0194 42.0385" fill="black"/>
<path d="M63.8316 43.7448C63.9479 43.4445 64.2228 43.2944 64.4828 43.2944C64.7429 43.2944 65.0601 43.4657 65.1446 43.8061H63.876C63.8443 43.8061 63.821 43.7744 63.8316 43.7448ZM63.8633 44.3453H65.7621C65.7938 44.3453 65.8191 44.322 65.8234 44.2903C65.9566 43.1041 65.1024 42.6432 64.4828 42.6432C63.8633 42.6432 63.026 43.1168 63.026 44.0894C63.026 45.0621 63.8379 45.5188 64.5293 45.5188C65.041 45.5188 65.373 45.3687 65.6098 45.1424C65.6352 45.1192 65.6331 45.079 65.6098 45.0557L65.2652 44.7195C65.2461 44.7005 65.2165 44.6963 65.1933 44.709C65.0157 44.8041 64.8782 44.8739 64.5568 44.8739C64.2058 44.8739 63.931 44.7132 63.8189 44.4066C63.8083 44.377 63.8316 44.3453 63.8633 44.3453Z" fill="black"/>
<path d="M68.2845 43.3219V42.7151C68.2845 42.6855 68.2634 42.658 68.2337 42.6538C68.183 42.6474 68.1344 42.6474 68.0815 42.6474C67.6713 42.6474 67.3711 42.8589 67.2083 43.1676C67.185 43.2098 67.1216 43.1972 67.1216 43.1485V42.7531C67.1216 42.7193 67.0941 42.6918 67.0603 42.6918H66.4196C66.3858 42.6918 66.3583 42.7193 66.3583 42.7531V45.4046C66.3583 45.4384 66.3858 45.4659 66.4196 45.4659H67.0603C67.0941 45.4659 67.1216 45.4384 67.1216 45.4046V44.2819C67.1702 43.749 67.591 43.3811 68.1027 43.3811C68.1365 43.3811 68.1767 43.3811 68.2168 43.3853C68.2528 43.3896 68.2845 43.3621 68.2845 43.324" fill="black"/>
<path d="M69.4136 42.6918H68.7729C68.7391 42.6918 68.7116 42.7193 68.7116 42.7531V45.4046C68.7116 45.4384 68.7391 45.4659 68.7729 45.4659H69.4136C69.4474 45.4659 69.4749 45.4384 69.4749 45.4046V43.8928C69.5341 43.7004 69.773 43.3177 70.179 43.3177C70.4729 43.3177 70.6484 43.472 70.6484 43.9266V45.4067C70.6484 45.4406 70.6759 45.468 70.7097 45.468H71.3504C71.3842 45.468 71.4117 45.4406 71.4117 45.4067V43.8738C71.4117 42.9984 70.8894 42.6516 70.3608 42.6516C69.9591 42.6516 69.6884 42.8863 69.5595 43.0618C69.532 43.0978 69.477 43.0809 69.477 43.0365V42.7552C69.477 42.7214 69.4495 42.6939 69.4157 42.6939" fill="black"/>
<path d="M73.3971 44.8401C73.0122 44.8401 72.6612 44.58 72.6612 44.0726C72.6612 43.5651 73.0122 43.3198 73.3971 43.3198C73.7819 43.3198 74.0969 43.5757 74.0969 44.0726C74.0969 44.5695 73.7713 44.8401 73.3971 44.8401ZM74.1202 45.4639H74.7609C74.7947 45.4639 74.8222 45.4364 74.8222 45.4025V42.7511C74.8222 42.7172 74.7947 42.6897 74.7609 42.6897H74.1202C74.0864 42.6897 74.0589 42.7172 74.0589 42.7511V42.8674C74.0589 42.9075 74.0102 42.9287 73.9828 42.9012C73.8686 42.7934 73.6318 42.6411 73.2913 42.6411C72.657 42.6411 71.9212 43.1147 71.9212 44.0705C71.9212 45.0262 72.657 45.5167 73.2913 45.5167C73.6296 45.5167 73.8665 45.3751 73.9806 45.2545C74.0102 45.2249 74.061 45.244 74.061 45.2862V45.4047C74.061 45.4385 74.0885 45.466 74.1223 45.466" fill="black"/>
<path d="M76.3974 42.0406H75.7567C75.7229 42.0406 75.6954 42.0681 75.6954 42.1019V42.6453C75.6954 42.6707 75.6743 42.6918 75.6489 42.6918H75.3656C75.3317 42.6918 75.3043 42.7193 75.3043 42.7532V43.2606C75.3043 43.2944 75.3317 43.3219 75.3656 43.3219H75.6489C75.6743 43.3219 75.6954 43.3431 75.6954 43.3685V44.5652C75.6954 45.3497 76.0591 45.4977 76.4904 45.4977C76.7294 45.4977 76.9006 45.4681 77.0191 45.4237C77.0423 45.4152 77.0571 45.3919 77.0571 45.3666V44.8507C77.0571 44.8105 77.0191 44.7809 76.981 44.7915C76.8922 44.8168 76.8013 44.8253 76.6892 44.8253C76.4968 44.8253 76.4608 44.6878 76.4608 44.5589V43.3663C76.4608 43.341 76.482 43.3198 76.5074 43.3198H76.9916C77.0254 43.3198 77.0529 43.2923 77.0529 43.2585V42.751C77.0529 42.7172 77.0254 42.6897 76.9916 42.6897H76.5074C76.482 42.6897 76.4608 42.6686 76.4608 42.6432V42.0998C76.4608 42.066 76.4334 42.0385 76.3995 42.0385" fill="black"/>
<path d="M78.3259 42.6918H77.6852C77.6514 42.6918 77.6239 42.7193 77.6239 42.7531V45.4046C77.6239 45.4385 77.6514 45.4659 77.6852 45.4659H78.3259C78.3598 45.4659 78.3872 45.4385 78.3872 45.4046V42.7531C78.3872 42.7193 78.3598 42.6918 78.3259 42.6918Z" fill="black"/>
<path d="M79.6643 44.0874C79.6643 43.5799 80.0322 43.3198 80.3789 43.3198C80.7257 43.3198 81.0936 43.582 81.0936 44.0874C81.0936 44.5927 80.7194 44.8401 80.3789 44.8401C80.0385 44.8401 79.6643 44.5779 79.6643 44.0874ZM81.8294 44.0874C81.8294 43.1169 81.009 42.6411 80.3789 42.6411C79.7488 42.6411 78.9221 43.1147 78.9221 44.0874C78.9221 45.06 79.7488 45.5167 80.3789 45.5167C81.009 45.5167 81.8294 45.0579 81.8294 44.0874Z" fill="black"/>
<path d="M84.3561 45.4638H84.9968C85.0306 45.4638 85.0581 45.4363 85.0581 45.4025V43.8695C85.0581 42.9942 84.5358 42.6474 84.0072 42.6474C83.6055 42.6474 83.3348 42.8821 83.2059 43.0576C83.1784 43.0936 83.1234 43.0766 83.1234 43.0322V42.751C83.1234 42.7172 83.0959 42.6897 83.0621 42.6897H82.4214C82.3876 42.6897 82.3601 42.7172 82.3601 42.751V45.4025C82.3601 45.4363 82.3876 45.4638 82.4214 45.4638H83.0621C83.0959 45.4638 83.1234 45.4363 83.1234 45.4025V43.8907C83.1826 43.6983 83.4215 43.3135 83.8275 43.3135C84.1214 43.3135 84.2969 43.4678 84.2969 43.9224V45.4025C84.2969 45.4363 84.3244 45.4638 84.3582 45.4638" fill="black"/>
<path d="M87.0435 44.8401C86.6608 44.8401 86.3077 44.58 86.3077 44.0726C86.3077 43.5651 86.6608 43.3198 87.0435 43.3198C87.4262 43.3198 87.7434 43.5757 87.7434 44.0726C87.7434 44.5695 87.4178 44.8401 87.0435 44.8401ZM87.7666 45.4639H88.4073C88.4411 45.4639 88.4686 45.4364 88.4686 45.4025V42.7511C88.4686 42.7172 88.4411 42.6897 88.4073 42.6897H87.7666C87.7328 42.6897 87.7053 42.7172 87.7053 42.7511V42.8674C87.7053 42.9075 87.6567 42.9287 87.6292 42.9012C87.515 42.7934 87.2782 42.6411 86.9378 42.6411C86.3035 42.6411 85.5676 43.1147 85.5676 44.0705C85.5676 45.0262 86.3035 45.5167 86.9378 45.5167C87.2761 45.5167 87.5129 45.3751 87.6271 45.2545C87.6567 45.2249 87.7074 45.244 87.7074 45.2862V45.4047C87.7074 45.4385 87.7349 45.466 87.7688 45.466" fill="black"/>
<path d="M89.8895 42.0999C89.8895 42.0681 89.862 42.0407 89.8282 42.0407H89.1875C89.1537 42.0407 89.1262 42.0681 89.1262 42.102V45.4047C89.1262 45.4385 89.1537 45.466 89.1875 45.466H89.8282C89.862 45.466 89.8874 45.4406 89.8895 45.4068C89.8895 45.4068 89.8895 45.4068 89.8895 45.4047V42.102" fill="black"/>
<path d="M78.0044 41.4845C77.7718 41.4845 77.5857 41.6727 77.5857 41.9031C77.5857 42.1336 77.7739 42.3218 78.0044 42.3218C78.2349 42.3218 78.423 42.1336 78.423 41.9031C78.423 41.6727 78.2349 41.4845 78.0044 41.4845Z" fill="black"/>
<path d="M56.7948 41.4845C56.5622 41.4845 56.3761 41.6727 56.3761 41.9031C56.3761 42.1336 56.5643 42.3218 56.7948 42.3218C57.0252 42.3218 57.2134 42.1336 57.2134 41.9031C57.2134 41.6727 57.0252 41.4845 56.7948 41.4845Z" fill="black"/>
<path d="M15.513 45.0113C15.4136 44.7809 15.329 44.5419 15.2635 44.3199C15.2444 44.2586 15.2275 44.1973 15.2148 44.1402L15.2043 44.0894V44.0852C15.2043 44.0852 15.2021 44.0852 15.2169 44.0789C15.2444 44.062 15.2698 44.0429 15.2635 43.9795C15.2613 43.9499 15.2783 43.9245 15.2952 43.914C15.3988 43.8526 15.5108 43.8209 15.6398 43.8273C15.661 43.8273 15.6821 43.8294 15.6969 43.8526C15.7329 43.9055 15.773 43.9055 15.8217 43.9118C15.8724 43.9245 15.9168 43.9414 15.9528 43.9943C15.9802 44.0366 16.0204 44.062 16.0606 44.081C16.1325 44.1212 16.2086 44.1529 16.2889 44.1846C16.363 44.2121 16.4391 44.2396 16.5194 44.2692C16.5236 44.2692 16.5279 44.2776 16.5279 44.284C16.5194 44.3622 16.5194 44.3664 16.5554 44.3897C16.6336 44.4447 16.7013 44.5123 16.7964 44.5504C16.862 44.5779 16.9085 44.6392 16.9592 44.6878C16.9973 44.7259 17.0248 44.7766 17.0628 44.8126C17.158 44.9035 17.2552 44.9944 17.3504 45.0853C17.3736 45.1086 17.399 45.1424 17.4286 45.1382C17.5174 45.1276 17.5428 45.1847 17.5597 45.2439C17.5935 45.356 17.6739 45.4236 17.7606 45.4871C17.8198 45.5315 17.8811 45.5801 17.9192 45.6435C17.972 45.7345 18.0397 45.8127 18.1073 45.8888C18.5598 46.3899 19.0271 46.891 19.4754 47.4112C19.5917 47.5465 19.6826 47.7009 19.7989 47.8362L20.3359 48.4515C20.6785 48.8384 21.021 49.2254 21.3826 49.6017C21.4122 49.6334 21.4397 49.6736 21.4777 49.6927C21.594 49.7497 21.6617 49.8491 21.7357 49.9464C21.7737 49.9971 21.8139 50.0479 21.8668 50.0817C21.9915 50.1599 22.0867 50.272 22.2009 50.3629C22.2199 50.3777 22.2347 50.3989 22.2431 50.4242C22.2622 50.4834 22.3087 50.5194 22.3489 50.5617C22.5709 50.7879 22.8267 50.974 23.0783 51.1622C23.1291 51.2002 23.1777 51.2362 23.1946 51.306C23.2031 51.3377 23.2327 51.3609 23.2581 51.3842L23.5541 51.64C23.8734 51.9107 24.1926 52.1792 24.5183 52.4393L24.7889 52.6528C24.8566 52.7057 24.9327 52.7311 25.0003 52.7839C25.049 52.822 25.0913 52.8875 25.142 52.9235C25.3302 53.0609 25.5226 53.1941 25.715 53.3252C25.9751 53.5028 26.2478 53.6551 26.5354 53.7862C26.7046 53.8623 26.8737 53.9384 27.064 53.9701C27.1253 53.9807 27.193 53.9807 27.2606 53.9722C27.2839 53.968 27.3029 53.9553 27.3199 53.9405C27.3241 53.9363 27.3304 53.9321 27.3347 53.9257C27.3368 53.9215 27.3389 53.9151 27.341 53.9109C27.3452 53.9046 27.3473 53.8982 27.3495 53.8898C27.3537 53.8707 27.3558 53.8517 27.3495 53.8327C27.3368 53.7819 27.3199 53.7333 27.2945 53.6931C27.2754 53.6635 27.2522 53.6382 27.2332 53.6085C27.1951 53.5515 27.1549 53.4944 27.1126 53.4436C27.1126 53.4436 27.1084 53.4394 27.1084 53.4373C27.1084 53.4352 27.1042 53.4331 27.1021 53.4288C27.0767 53.3992 27.0534 53.3675 27.0281 53.34C26.8653 53.1455 26.6961 52.9637 26.5185 52.786C26.3853 52.6571 26.2563 52.5217 26.1231 52.3885C26.0893 52.3526 26.0301 52.3272 25.9962 52.2934C25.9476 52.2448 25.9201 52.1877 25.8715 52.1369L25.6791 51.9382C25.4465 51.6971 25.2202 51.4476 24.9982 51.196L24.791 50.9571C24.7741 50.9359 24.7551 50.9106 24.7297 50.9042C24.6726 50.8894 24.6451 50.8492 24.6155 50.8069C24.4696 50.5976 24.3343 50.382 24.1673 50.1895C24.1377 50.1536 24.1123 50.1134 24.0658 50.0944C24.0467 50.0859 24.0298 50.0732 24.0192 50.0563C23.9579 49.957 23.8734 49.8724 23.8268 49.7624C23.8078 49.7159 23.7697 49.6778 23.7338 49.6419C23.6619 49.5742 23.59 49.5087 23.5625 49.4072C23.5541 49.3734 23.5245 49.348 23.5033 49.3184C23.2538 48.9801 23.0086 48.6397 22.7696 48.2929L22.3975 47.7389C22.3171 47.6184 22.2157 47.5106 22.1353 47.3879C21.8287 46.9143 21.556 46.4195 21.2663 45.9332C21.2219 45.8592 21.1754 45.7873 21.114 45.7218C21.0718 45.6774 21.0485 45.6161 21.0274 45.5569C20.9956 45.4702 20.9597 45.3898 20.8751 45.337C20.8307 45.3095 20.7905 45.2756 20.818 45.2059C20.8286 45.1826 20.8053 45.153 20.7927 45.1297C20.7377 45.0304 20.6827 44.931 20.6235 44.8316C20.6002 44.7914 20.5643 44.7597 20.5389 44.7195C20.5051 44.6667 20.4607 44.6159 20.448 44.5546C20.429 44.4658 20.3782 44.396 20.3402 44.3199C20.3233 44.284 20.319 44.284 20.2514 44.2819C20.245 44.2819 20.2408 44.2776 20.2408 44.2734C20.2048 44.119 20.1562 43.9689 20.078 43.8315C20.0547 43.7913 20.0251 43.7511 19.9849 43.7258C19.9342 43.6941 19.9046 43.6496 19.8813 43.5989C19.8602 43.5524 19.8412 43.5059 19.7862 43.4805C19.765 43.4699 19.7481 43.4488 19.7376 43.4276C19.6762 43.2965 19.6149 43.1633 19.5578 43.028C19.5473 43.0048 19.5473 42.9688 19.5621 42.9455C19.5917 42.8927 19.5726 42.8567 19.5536 42.8187L19.2364 42.1738C19.1413 41.9793 19.0419 41.789 18.951 41.5923C18.8876 41.457 18.8368 41.3174 18.7755 41.1821C18.748 41.1166 18.7163 41.0531 18.6867 40.9897C18.6507 40.9157 18.6169 40.8417 18.5852 40.7656C18.5197 40.6133 18.4668 40.459 18.4055 40.3068C18.359 40.1968 18.3103 40.0847 18.2638 39.9727C18.2384 39.9071 18.2236 39.8395 18.1983 39.7739C18.0968 39.5012 17.9509 39.1607 17.879 38.888C17.8325 38.7146 17.8029 38.556 17.7923 38.4144C17.7881 38.3784 17.7881 38.3446 17.7881 38.315C17.7881 38.2854 17.7923 38.2494 17.7923 38.2537C17.7923 38.2537 17.8008 38.2473 17.7944 38.2537C17.8219 38.2219 17.8536 38.2029 17.8621 38.1458C17.8684 38.1183 17.8896 38.0993 17.9107 38.0866C17.9932 38.0401 18.082 38.019 18.1813 38.0338C18.3547 38.0612 18.5683 38.1416 18.7755 38.2685C18.8876 38.334 18.9933 38.4207 19.0969 38.5095C19.1244 38.5349 19.1434 38.5687 19.1624 38.6004C19.1815 38.6343 19.2068 38.6554 19.2449 38.6723C19.283 38.6892 19.3147 38.7146 19.3464 38.7421C19.3866 38.7759 19.4183 38.8203 19.4585 38.8563C19.5134 38.907 19.5705 38.9599 19.5811 39.0466C19.5832 39.0698 19.6001 39.0889 19.617 39.1058L19.82 39.3278C19.8369 39.3489 19.8665 39.3553 19.9004 39.351C19.9384 39.3468 19.9575 39.368 19.9765 39.3933C19.9976 39.4187 20.0188 39.4441 20.0399 39.4694C20.0928 39.5329 20.1456 39.5963 20.1985 39.6619C20.264 39.7401 20.3296 39.8162 20.3698 39.9135C20.3782 39.9346 20.393 39.9558 20.4142 39.9663C20.5051 40.0044 20.5283 40.1017 20.6108 40.1503C20.6468 40.1714 20.6721 40.2074 20.6848 40.2476C20.7208 40.3596 20.8476 40.4188 20.8349 40.5605C20.8328 40.588 20.8667 40.6112 20.8772 40.6345C20.892 40.6662 20.9089 40.6979 20.9343 40.7233C21.1098 40.8946 21.243 41.0975 21.3741 41.3048C21.4904 41.4887 21.6215 41.66 21.7484 41.8376C21.7653 41.8609 21.7843 41.882 21.8076 41.8947C21.8837 41.9349 21.9281 41.9983 21.9725 42.0638C22.0106 42.1188 22.0486 42.1759 22.0888 42.2288C22.1311 42.2859 22.1607 42.3493 22.1818 42.4212C22.203 42.4888 22.2516 42.5459 22.2875 42.6051C22.2939 42.6136 22.3066 42.6242 22.3171 42.6242C22.4017 42.6178 22.4229 42.6791 22.4567 42.7256L22.9959 43.5101C23.0234 43.5503 23.0424 43.5904 23.0487 43.6412C23.0572 43.6941 23.0762 43.7448 23.1375 43.7617C23.1819 43.7744 23.201 43.8103 23.2221 43.8442C23.3363 44.0154 23.4505 44.1888 23.5625 44.3622C23.6175 44.4447 23.6831 44.5208 23.7423 44.599C23.7782 44.6477 23.8163 44.6921 23.812 44.7618C23.812 44.7872 23.8353 44.8126 23.8543 44.8316C23.9093 44.8802 23.9495 44.9394 23.9791 45.005C23.9896 45.0304 24.0066 45.06 24.0319 45.0684C24.0954 45.0896 24.1123 45.1424 24.1398 45.1911C24.2666 45.394 24.3893 45.5991 24.5288 45.7937C25.0342 46.4999 25.5585 47.1955 26.0998 47.8806C26.1358 47.925 26.1675 47.9694 26.2204 47.9969C26.2478 48.0117 26.2669 48.0413 26.2859 48.0667C26.7172 48.6968 27.2416 49.255 27.7491 49.828C27.8971 49.9929 28.0493 50.1515 28.2121 50.3016C28.4849 50.5532 28.7682 50.7943 29.096 50.9761C29.1827 51.0268 29.2778 51.067 29.3729 51.103C29.4174 51.1199 29.4723 51.1241 29.5231 51.1241C29.5484 51.1241 29.5696 51.1135 29.5865 51.0966C29.5865 51.0966 29.5865 51.0966 29.5907 51.0966C29.5907 51.0966 29.595 51.0924 29.595 51.0903C29.614 51.0734 29.6267 51.048 29.6267 51.0163C29.6267 50.9444 29.6161 50.8725 29.5971 50.8048C29.5379 50.6019 29.4427 50.4158 29.3455 50.2297C29.1827 49.9147 29.005 49.6102 28.8105 49.3142C28.6667 49.0922 28.523 48.8723 28.3792 48.6545C28.3411 48.5974 28.2735 48.5424 28.2354 48.4853C28.1804 48.405 28.1572 48.3204 28.1022 48.24L27.8865 47.9165C27.6286 47.5233 27.3748 47.13 27.1274 46.7304L26.8991 46.3561C26.8801 46.3244 26.8589 46.2863 26.8272 46.2694C26.7595 46.2335 26.7278 46.1721 26.6961 46.1087C26.5375 45.7916 26.3916 45.4702 26.2056 45.1699C26.1717 45.1149 26.1464 45.0557 26.0914 45.0156C26.0681 44.9986 26.0512 44.9775 26.0385 44.9521C25.9709 44.8041 25.8799 44.6688 25.8313 44.5123C25.8123 44.4468 25.77 44.3855 25.7298 44.3284C25.6495 44.2184 25.5712 44.1085 25.5459 43.9689C25.5374 43.9224 25.5078 43.8801 25.4845 43.8357C25.216 43.3198 24.958 42.7997 24.717 42.271C24.5901 41.9919 24.4654 41.7128 24.347 41.4316C24.2688 41.2477 24.163 41.0743 24.089 40.8882C23.8015 40.1672 23.5731 39.425 23.3701 38.6892C23.3384 38.5772 23.3067 38.4651 23.2581 38.3573C23.2242 38.2833 23.2158 38.1945 23.2094 38.1099C23.201 37.9872 23.1883 37.8731 23.1164 37.7673C23.0783 37.7124 23.0466 37.6511 23.1037 37.5792C23.1227 37.5559 23.1122 37.5094 23.1079 37.4756C23.0974 37.3825 23.0889 37.2895 23.0804 37.1986C23.0762 37.1478 23.072 37.0992 23.0699 37.0506C23.0678 36.9956 23.0487 36.9406 23.0487 36.8899C23.0466 36.8201 23.0403 36.7503 23.0699 36.7122C23.0826 36.6932 23.0868 36.6953 23.0889 36.6974H23.0931C23.0931 36.6974 23.0931 36.6763 23.0931 36.6213C23.0931 36.615 23.0953 36.6086 23.0995 36.6086C23.2433 36.6002 23.33 36.6319 23.4589 36.6594C23.497 36.6657 23.5414 36.6763 23.59 36.6678C23.6513 36.6509 23.7084 36.6848 23.7592 36.7144C23.7888 36.7376 23.8184 36.7588 23.8543 36.7715C23.8755 36.7799 23.8966 36.7841 23.922 36.7841C23.9495 36.7841 23.9791 36.8011 24.0002 36.8201C24.1377 36.9364 24.2688 37.0717 24.3893 37.2197C24.4104 37.2451 24.4252 37.2874 24.421 37.3212C24.4083 37.391 24.4421 37.4312 24.4802 37.4734C24.6853 37.7124 24.8798 37.9703 25.0701 38.2325C25.2414 38.4714 25.4126 38.7125 25.5755 38.9599C25.6875 39.1333 25.7869 39.313 25.8969 39.4885C26.0089 39.6682 26.1294 39.8437 26.2394 40.0255C26.3578 40.2222 26.4677 40.423 26.584 40.6218C26.6728 40.7656 26.7638 40.9094 26.8526 41.0531C26.9033 41.1377 26.9435 41.2286 26.9942 41.3132C27.2036 41.6706 27.4975 42.104 27.711 42.4613C27.9838 42.9202 28.1741 43.2965 28.4468 43.7533C28.4934 43.8294 28.5378 43.9013 28.6181 43.952C28.6625 43.9816 28.6985 44.0281 28.7259 44.0746C28.8401 44.2565 28.9564 44.4383 29.06 44.6244C29.244 44.9585 29.4554 45.2735 29.6669 45.5907C29.7789 45.762 29.8889 45.9332 29.9967 46.1066C30.0263 46.1531 30.0432 46.206 30.0601 46.2588C30.077 46.3138 30.1045 46.3561 30.1489 46.3942C30.1933 46.4343 30.2293 46.483 30.2631 46.5337C30.3075 46.5971 30.3435 46.6648 30.3879 46.7304C30.4513 46.8213 30.5147 46.9101 30.5232 47.0285C30.5232 47.0602 30.5443 47.0919 30.5634 47.1194C30.6416 47.242 30.7262 47.3604 30.8086 47.481C30.8319 47.5127 30.8678 47.5317 30.908 47.5359C30.9566 47.5423 30.9778 47.5761 31.0032 47.6142C31.0941 47.7537 31.1871 47.8912 31.2865 48.0244C31.3711 48.1407 31.4578 48.257 31.5127 48.3923C31.5254 48.4219 31.5466 48.4536 31.5719 48.4705C31.6882 48.5382 31.7305 48.6672 31.8384 48.7454C31.887 48.7792 31.9187 48.83 31.942 48.8849C32.0012 49.0372 32.1661 49.1323 32.1767 49.3142C32.1767 49.3501 32.2253 49.3861 32.2443 49.4157C32.2697 49.458 32.2972 49.5024 32.3331 49.5362C32.4579 49.6588 32.5784 49.7857 32.6926 49.9147C32.8089 50.0458 32.9125 50.1832 33.0309 50.3143C33.1345 50.4327 33.2423 50.5469 33.3523 50.6589L33.7054 50.9803C33.735 51.0078 33.7688 51.0353 33.8048 51.048C33.9168 51.0882 34.012 51.1558 34.1029 51.2298C34.1811 51.2911 34.2572 51.3546 34.3397 51.4117C34.4327 51.4688 34.511 51.5364 34.5892 51.6147C34.6632 51.6908 34.7605 51.7457 34.8641 51.7944C34.8789 51.8028 34.9043 51.8092 34.9169 51.8028C35.0142 51.7584 35.0924 51.8155 35.1749 51.8536C35.6337 52.0608 36.2089 52.1073 36.7079 51.9614C36.784 51.9403 36.8559 51.9276 36.9341 51.9255C37.0166 51.9255 37.1033 51.9001 37.1561 51.824C37.1942 51.769 37.2555 51.7479 37.3105 51.714C37.6001 51.5555 37.8581 51.3609 38.0801 51.1453C38.1858 51.0416 38.281 50.9275 38.374 50.8154C38.4311 50.7499 38.4819 50.6801 38.5707 50.6484C38.6024 50.6378 38.6299 50.5934 38.6489 50.5596C38.7018 50.4686 38.761 50.3883 38.8371 50.3164C38.8646 50.2889 38.8963 50.2551 38.9005 50.2191C38.909 50.1303 38.9703 50.0817 39.0189 50.0204C39.2282 49.754 39.4312 49.4897 39.6152 49.2148C40.2812 48.221 40.9177 47.2272 41.7507 46.4851C41.8036 46.4364 41.8586 46.3963 41.8945 46.3307C41.9135 46.2969 41.9495 46.2694 41.9833 46.2483C42.3851 45.984 42.7931 45.7535 43.2329 45.6203C43.4571 45.5463 43.6622 45.5103 43.8926 45.4913C44.121 45.4765 44.3599 45.4871 44.5989 45.5124C44.8737 45.5463 45.1528 45.5928 45.4341 45.6435C45.8041 45.7154 46.1762 45.7958 46.5547 45.8698C46.2333 45.9755 45.9309 46.151 45.673 46.3667C45.5651 46.4555 45.4658 46.5549 45.3664 46.65C45.267 46.7494 45.1845 46.8593 45.0957 46.9651C44.5185 47.7241 44.0893 48.5741 43.8969 49.4728C43.8884 49.5108 43.88 49.551 43.8567 49.5806C43.8144 49.6377 43.7933 49.7011 43.7785 49.7667C43.6516 50.2762 43.5522 50.79 43.493 51.3081C43.4317 51.8134 43.3788 52.2976 43.3091 52.7903C43.271 53.0588 43.2477 53.3294 43.2203 53.6022C43.2118 53.6635 43.2203 53.727 43.1653 53.7798C43.1441 53.801 43.142 53.839 43.142 53.8686C43.142 53.9511 43.1272 54.0314 43.0955 54.1076C43.0828 54.1372 43.0701 54.1731 43.0849 54.1985C43.123 54.2704 43.0997 54.3338 43.0849 54.3993C43.0574 54.5093 43.0236 54.6171 43.0004 54.7271C42.956 54.9575 42.901 55.1838 42.8481 55.4121C42.8375 55.4544 42.8333 55.501 42.791 55.5327C42.7339 55.575 42.7318 55.6342 42.7403 55.6934C42.7487 55.7505 42.7445 55.8012 42.7276 55.8541C42.6303 56.2008 42.5077 56.537 42.3851 56.8732C42.3618 56.9345 42.3491 57.0043 42.254 57.0191C42.2413 57.0191 42.2307 57.036 42.2265 57.0466C42.199 57.1206 42.1609 57.1946 42.1525 57.2728C42.144 57.3553 42.1271 57.4335 42.0933 57.5054C42.0573 57.5731 42.0256 57.6407 41.9918 57.7084C41.9537 57.7887 41.9135 57.867 41.8374 57.9241C41.8121 57.9431 41.7951 57.9706 41.7825 57.9981C41.6683 58.2116 41.5351 58.4146 41.4272 58.6324C41.3596 58.7487 41.2898 58.8671 41.2137 58.9792C41.1397 59.0933 41.0572 59.2012 40.9536 59.2942C40.924 59.3217 40.905 59.3555 40.8881 59.3915C40.8754 59.4169 40.8373 59.4422 40.8394 59.4718C40.85 59.6304 40.7147 59.7023 40.6618 59.8186C40.6428 59.863 40.6132 59.9011 40.5709 59.9222C40.4736 59.9708 40.4398 60.0787 40.3362 60.1146C40.3129 60.1231 40.2939 60.1463 40.2812 60.1696C40.2305 60.2774 40.1396 60.3514 40.0571 60.4318C39.9619 60.5227 39.8647 60.6136 39.7716 60.7088C39.7463 60.7341 39.7209 60.7553 39.6765 60.7447C39.6406 60.7362 39.6067 60.7384 39.5813 60.7574L39.3128 60.9773C39.2938 60.9942 39.2705 61.0132 39.2642 61.0386C39.2388 61.138 39.1648 61.1887 39.0887 61.2352C39.0379 61.2691 38.9893 61.3114 38.9386 61.3452C38.8984 61.3727 38.8561 61.3981 38.8075 61.4107C38.761 61.4234 38.7292 61.4467 38.7018 61.4847C38.6743 61.5207 38.6468 61.5588 38.6108 61.5841C38.4797 61.6856 38.3381 61.7681 38.1922 61.8442C37.9215 61.988 37.6551 62.136 37.3802 62.2671C37.228 62.3474 37.0694 62.4151 36.9108 62.4828C36.8686 62.4976 36.822 62.5081 36.7776 62.4976C36.6994 62.4806 36.6339 62.5018 36.5683 62.5272C36.4689 62.5631 36.3738 62.5991 36.2829 62.6329C36.1919 62.6709 36.1031 62.7048 36.0122 62.728C35.8304 62.783 35.6464 62.8401 35.4413 62.893C35.2785 62.931 35.0903 62.9479 34.9043 62.9733C34.8112 62.986 34.7182 62.9987 34.6273 63.0092C34.5364 63.0156 34.4475 63.0219 34.3651 63.0283C34.2869 63.0367 34.2086 63.0536 34.1304 63.06C33.9951 63.0706 33.8576 63.0769 33.7223 63.0769C33.5383 63.0832 33.3502 63.0917 33.1662 63.098C32.9928 63.0938 32.8216 63.0706 32.6482 63.0642C32.5636 63.06 32.479 63.06 32.3944 63.0579C32.3099 63.0515 32.2253 63.0452 32.1428 63.0367C31.8997 63.0071 31.6565 62.9796 31.4176 62.9331C31.1491 62.8887 30.8805 62.8464 30.6141 62.7851C30.5655 62.7745 30.5211 62.764 30.4724 62.8126C30.4492 62.8359 30.409 62.8443 30.3815 62.8401C30.2166 62.8189 30.0538 62.783 29.8889 62.7471C29.8635 62.7407 29.8339 62.728 29.8191 62.7069C29.7768 62.6519 29.7197 62.6435 29.6626 62.6329C29.6013 62.6202 29.5442 62.6012 29.4935 62.5504C29.4554 62.5102 29.4026 62.487 29.3518 62.4701C29.1805 62.413 29.0008 62.3961 28.819 62.3897C28.8126 62.3897 28.8084 62.3855 28.8063 62.3792C28.7872 62.3052 28.7873 62.3009 28.7429 62.2882C28.6477 62.2607 28.5589 62.2185 28.4553 62.2163C28.3834 62.2163 28.3179 62.1762 28.2502 62.1487C28.1994 62.1296 28.155 62.0937 28.1043 62.0747C27.9817 62.0282 27.8569 61.9838 27.7343 61.9415C27.7047 61.9309 27.6666 61.914 27.6412 61.9288C27.5672 61.9732 27.5207 61.9351 27.4763 61.8907C27.396 61.8083 27.2924 61.7829 27.1866 61.766C27.1126 61.7533 27.0365 61.7406 26.9752 61.7025C26.8864 61.6476 26.7912 61.6116 26.694 61.5778C26.0597 61.3494 25.4317 61.1887 24.8079 60.9731C24.6472 60.9181 24.4971 60.8314 24.3385 60.7764L23.6069 60.5163C23.146 60.3493 22.6872 60.1759 22.2326 59.9983C22.1945 59.9835 22.1564 59.9603 22.1163 59.9603C21.9958 59.9603 21.8964 59.9011 21.797 59.8418C21.7463 59.8122 21.6913 59.7826 21.6321 59.7742C21.4946 59.753 21.372 59.6896 21.2409 59.6516C21.2176 59.6452 21.1986 59.6325 21.1838 59.6135C21.1458 59.567 21.0929 59.5543 21.0443 59.531C20.7757 59.4042 20.4882 59.3238 20.2048 59.2329C20.1478 59.2139 20.0949 59.197 20.0589 59.1377C20.042 59.1103 20.0082 59.0997 19.9786 59.087L19.6403 58.9411C19.283 58.7804 18.9214 58.6218 18.5704 58.4484L18.2786 58.3089C18.2046 58.273 18.1327 58.2645 18.0608 58.2285C18.0101 58.2032 17.9593 58.1482 17.9086 58.1249C17.7119 58.0319 17.5174 57.9368 17.3271 57.8374C17.2024 57.7761 17.0755 57.7147 16.9402 57.6492C16.8154 57.5858 16.6717 57.5371 16.5511 57.4737C16.4031 57.4018 16.2424 57.3384 16.0902 57.2834C16.0416 57.2665 15.9845 57.258 15.9253 57.2538C15.9739 57.2242 16.0183 57.1925 16.0479 57.1544C16.086 57.1143 16.124 57.0762 16.16 57.0402C16.2001 57.0085 16.234 56.9726 16.2699 56.9451C16.4052 56.8394 16.53 56.7907 16.6738 56.759C16.8176 56.7294 16.9867 56.721 17.1707 56.7315C17.3906 56.7442 17.6253 56.7781 17.8684 56.8161C18.7142 56.9599 19.5726 57.2834 20.4734 57.4589C20.5114 57.4674 20.5516 57.4737 20.5812 57.497C20.6362 57.5414 20.7017 57.5583 20.7673 57.5752C21.2811 57.7126 21.7822 57.8437 22.3256 57.9494C22.8796 58.0509 23.442 58.0827 23.9939 58.0467C24.1461 58.0383 24.2962 58.0192 24.4464 57.996C24.5225 57.9854 24.5965 57.9685 24.6705 57.9558L24.9686 57.8945C25.0849 57.8691 25.1737 57.8353 25.3238 57.848C25.383 57.8522 25.4549 57.831 25.5078 57.812C25.6579 57.7655 25.7848 57.719 25.9582 57.6915C26.0153 57.6788 26.0723 57.6534 26.0808 57.6259C26.085 57.5879 26.1252 57.5646 26.1442 57.5392C26.1612 57.5118 26.1908 57.4885 26.2161 57.4652C26.2415 57.4441 26.2478 57.4251 26.2648 57.406C26.2796 57.387 26.2944 57.3659 26.3028 57.349C26.3134 57.3299 26.324 57.313 26.3303 57.294C26.3303 57.2665 26.3197 57.2517 26.3155 57.2284C26.2965 57.1692 26.2774 57.11 26.2542 57.0529L26.2373 57.0085C26.2267 56.9916 26.195 56.9662 26.176 56.9472L26.0427 56.8225L25.6516 56.5983C25.5818 56.556 25.5078 56.518 25.4761 56.4567C25.4317 56.3721 25.3175 56.3192 25.216 56.2875C25.1695 56.2748 25.1145 56.2516 25.087 56.2389C25.0617 56.2283 25.0363 56.2156 25.013 56.2008C24.698 55.9978 24.3872 55.7822 24.0827 55.5644C24.0277 55.5242 23.9558 55.4946 23.9664 55.3952C23.9664 55.3825 23.9558 55.3677 23.9431 55.3593C23.8734 55.3128 23.8078 55.2536 23.7296 55.2261C23.6471 55.1965 23.5731 55.1584 23.5076 55.1056C23.4462 55.0548 23.3828 55.0062 23.3194 54.9554C23.2454 54.8983 23.1714 54.8391 23.1312 54.7461C23.1185 54.7165 23.0931 54.6911 23.0678 54.6721C22.8669 54.5093 22.6766 54.3338 22.4715 54.1773C22.241 53.9997 22.0169 53.8158 21.8329 53.5853C21.8055 53.5536 21.7716 53.5282 21.7357 53.5049C21.7103 53.488 21.687 53.4436 21.6553 53.4436C21.4862 53.4394 21.4312 53.2829 21.3043 53.2216C21.2578 53.1984 21.2176 53.1666 21.1965 53.1201C21.15 53.0165 21.0379 52.9721 21.0041 52.86C20.9956 52.8347 20.9724 52.8135 20.9491 52.7987C20.8392 52.7374 20.7567 52.6465 20.67 52.5577C20.5728 52.4562 20.4734 52.3547 20.3761 52.2511C20.3486 52.2236 20.3254 52.1982 20.3338 52.1538C20.3402 52.1158 20.3338 52.0798 20.3127 52.0566L20.0632 51.7817C20.0441 51.7605 20.023 51.7394 19.9955 51.7331C19.8919 51.7077 19.8348 51.6337 19.7735 51.5618C19.7312 51.511 19.6826 51.4666 19.6403 51.4159C19.6086 51.3757 19.5769 51.3334 19.5578 51.2848C19.5388 51.2383 19.5113 51.2045 19.469 51.1791C19.4289 51.1537 19.3866 51.1283 19.357 51.0924C19.2428 50.9613 19.1307 50.826 19.025 50.6885C18.8284 50.4285 18.6402 50.1642 18.4287 49.9168C18.3103 49.7772 18.2025 49.625 18.0968 49.4749C18.0693 49.4368 18.0439 49.3924 18.0397 49.3459C18.0333 49.2613 17.9911 49.2021 17.9466 49.1408C17.6823 48.7708 17.4498 48.4917 17.2003 48.1111C17.0057 47.8129 16.7964 47.4154 16.6167 47.1109C16.5744 47.0391 16.5194 46.9714 16.4792 46.8974C16.4116 46.7705 16.3418 46.6415 16.2741 46.5147C16.179 46.3434 16.0754 46.1764 15.9845 46.0009C15.8999 45.8402 15.8301 45.671 15.7498 45.5082C15.7138 45.4321 15.6758 45.356 15.6377 45.2799C15.5975 45.1974 15.5574 45.1171 15.5214 45.0346M15.7223 47.2082C15.8238 47.4049 15.9337 47.5994 15.9633 47.832C15.9676 47.8743 15.9993 47.9102 16.0289 47.9419C16.1219 48.0476 16.2128 48.1555 16.2889 48.2739C16.4475 48.5191 16.5807 48.7813 16.7245 49.0372C16.7583 49.0985 16.8366 49.1746 16.8958 49.2127C16.9613 49.2571 16.9994 49.3205 17.0438 49.3839C17.0776 49.4326 17.1051 49.4833 17.1389 49.5298C17.3969 49.8808 17.6612 50.2276 17.934 50.568C18.1877 50.8852 18.4478 51.1981 18.7142 51.5068C18.8854 51.7056 19.0292 51.9234 19.1646 52.1496C19.2259 52.2511 19.2935 52.3441 19.3718 52.4287C19.5451 52.6211 19.7206 52.8135 19.9004 53.0017C19.9955 53.1032 20.1034 53.1962 20.2006 53.2956C20.3063 53.4035 20.4015 53.5176 20.5072 53.6255C21.6786 54.7905 22.9557 55.8583 24.3343 56.7802C24.421 56.8373 24.5183 56.8838 24.6049 56.9409L24.6388 56.9641L24.6451 56.9705L24.6578 56.9853C24.6578 56.9853 24.6726 57.0043 24.6832 57.0106C24.7107 57.0276 24.7043 57.0233 24.7107 57.0276L24.7318 57.0381C24.7318 57.0381 24.7212 57.0424 24.7149 57.0466H24.7043C24.7043 57.0466 24.7043 57.0508 24.6789 57.055L24.6515 57.0593L24.5288 57.0762C24.4421 57.0889 24.3533 57.0995 24.2666 57.1079C23.5625 57.1756 22.869 57.1502 22.1818 56.9832C21.5433 56.8415 20.9089 56.6597 20.2683 56.4715C19.6276 56.2854 18.9848 56.0866 18.2998 55.9408C18.0312 55.8858 17.7564 55.8414 17.4646 55.8266C17.1749 55.816 16.862 55.8266 16.5427 55.945C16.1853 56.0613 15.8407 56.3805 15.754 56.7294C15.7159 56.8457 15.7117 56.9641 15.7159 57.0762C15.7202 57.1291 15.7392 57.1819 15.7625 57.2284C15.7794 57.2623 15.8069 57.2813 15.8365 57.2876C15.8132 57.3067 15.7984 57.3363 15.7984 57.3701C15.7984 57.4187 15.809 57.4695 15.8301 57.5139C15.8766 57.6111 15.9274 57.7232 15.9972 57.8014C16.0669 57.8881 16.1431 57.9748 16.2234 58.0573C16.3037 58.1397 16.3883 58.2074 16.4729 58.2793C16.6442 58.4252 16.8281 58.5457 17.0121 58.662C17.2341 58.8079 17.4624 58.9263 17.695 59.0489C17.786 59.0976 17.9149 59.1335 18.0059 59.1737C18.1348 59.235 18.2258 59.3069 18.3547 59.3682C18.4182 59.3978 18.5091 59.419 18.5725 59.4465C18.9214 59.6029 19.2407 59.7763 19.5917 59.9222C19.634 59.9412 19.6805 59.9687 19.7228 59.9603C19.8073 59.9455 19.8708 59.9772 19.9384 60.0068C20.0378 60.0469 20.1351 60.0892 20.2366 60.121C20.3951 60.1717 20.5516 60.2372 20.725 60.233C20.8286 60.233 20.8624 60.2542 20.9449 60.3091C20.9808 60.3324 21.0739 60.3578 21.1098 60.3768C21.2769 60.4698 21.4418 60.565 21.5856 60.6982C21.6236 60.7341 21.6701 60.751 21.723 60.7489C21.8076 60.7468 21.89 60.7658 21.9725 60.7828C22.2453 60.8673 22.4482 60.9308 22.5349 61.0196C22.5497 61.0344 22.5857 61.0661 22.592 61.0703C22.7104 61.1486 22.702 61.1338 22.8373 61.1612C22.8584 61.1655 22.9303 61.2035 22.9832 61.1866C23.0424 61.1634 23.0656 61.1718 23.0953 61.1824C23.2221 61.2226 23.2517 61.2564 23.3786 61.3008C23.4124 61.3114 23.4357 61.3093 23.4801 61.3642C23.4928 61.379 23.5033 61.4129 23.5202 61.434C23.5308 61.4488 23.5498 61.453 23.5541 61.453C23.6323 61.4805 23.6725 61.4953 23.7401 61.5207C23.9643 61.5968 24.1884 61.6729 24.4125 61.7427C24.7233 61.8379 25.0342 61.9224 25.3471 62.0112C25.734 62.117 26.1083 62.2333 26.4825 62.3495C26.7786 62.4426 27.0746 62.5314 27.3706 62.6308L27.9436 62.8316L28.5208 63.0219C28.6139 63.0536 28.7006 63.098 28.7873 63.1467C28.8443 63.1805 28.9035 63.208 28.967 63.2249C29.0241 63.2418 29.0875 63.2461 29.1467 63.2545C29.2165 63.2651 29.2863 63.2714 29.3349 63.3391C29.3645 63.3793 29.4089 63.3793 29.4491 63.3877C29.578 63.4152 29.7091 63.4342 29.8339 63.4681C30.0157 63.5188 30.1997 63.5632 30.3836 63.6076C30.5676 63.6499 30.7515 63.7007 30.9397 63.7218C31.0877 63.7429 31.24 63.7472 31.388 63.7493C31.481 63.7493 31.5677 63.7683 31.6565 63.7916C31.7305 63.8106 31.8066 63.8296 31.8828 63.8423C32.0392 63.8656 32.1936 63.8867 32.35 63.9015C32.4875 63.9079 32.6207 63.9248 32.756 63.965C32.7877 63.9755 32.8237 63.9755 32.8554 63.965C33.0985 63.9036 33.3481 63.8973 33.5954 63.8867C33.7604 63.8783 33.9253 63.8825 34.0902 63.8698C34.308 63.8592 34.5258 63.8444 34.7478 63.9163C34.788 63.9269 34.8324 63.9121 34.8725 63.8973C35.0058 63.8508 35.1368 63.8085 35.2743 63.7852C35.5618 63.7451 35.8452 63.6901 36.1327 63.6415C36.2004 63.6309 36.2977 63.5822 36.3526 63.5421C36.4161 63.4977 36.4858 63.4723 36.5577 63.449C36.6127 63.43 36.6677 63.4173 36.7227 63.3983C36.9235 63.3179 37.1307 63.2566 37.3253 63.1615L37.9088 62.8824C37.9998 62.8422 38.0886 62.7936 38.1731 62.7386L38.4311 62.5842C38.6003 62.4785 38.7821 62.3876 38.9407 62.2671C39.15 62.117 39.3762 61.9964 39.6131 61.8865C39.7209 61.84 39.8097 61.7702 39.9006 61.6983C40.0973 61.5334 40.3045 61.379 40.4842 61.1951C40.5836 61.0999 40.6766 60.9942 40.776 60.8991C40.8881 60.7997 40.9874 60.6918 41.0889 60.5819C41.6387 59.9751 42.125 59.3048 42.5077 58.5859C42.8968 57.8691 43.2055 57.1143 43.4507 56.3467C43.4803 56.2495 43.4972 56.148 43.5268 56.0507C43.5586 55.945 43.6072 55.8456 43.6326 55.7378C43.8482 54.9723 43.9962 54.1964 44.1231 53.4225C44.1887 53.0355 44.2373 52.6465 44.288 52.2596C44.3324 51.8705 44.3768 51.4793 44.4255 51.1178C44.6073 49.8956 45.0006 48.6925 45.6857 47.7284C45.9542 47.3562 46.2566 47.0264 46.5949 46.7409C46.6414 46.7008 46.6879 46.6606 46.7365 46.6183C46.7682 46.5971 46.8 46.5718 46.8317 46.5506C46.8507 46.5358 46.8697 46.5231 46.8867 46.5105C46.9839 46.428 47.0918 46.3667 47.1954 46.2884C47.2673 46.2292 47.3413 46.1848 47.4174 46.1256C47.4533 46.1003 47.485 46.0601 47.5125 46.0199C47.5316 45.9903 47.54 45.9586 47.5337 45.929C47.5464 45.9036 47.5464 45.8698 47.5273 45.836C47.5019 45.7873 47.4681 45.7387 47.4279 45.7006C47.3413 45.6203 47.2524 45.5442 47.1552 45.4765C46.8719 45.282 46.561 45.1297 46.2375 45.0029C45.6582 44.7766 45.0387 44.6307 44.3853 44.5927C43.9709 44.5694 43.5205 44.599 43.0976 44.7217C42.6832 44.838 42.2899 45.0177 41.9326 45.2418C41.2116 45.6901 40.6449 46.2969 40.1501 46.9207C39.5539 47.6713 39.0654 48.4663 38.5516 49.2148C38.2958 49.589 38.0357 49.9527 37.7503 50.2741C37.469 50.5976 37.1582 50.8767 36.8263 51.048C36.7353 51.0903 36.6465 51.1516 36.5472 51.1791C36.4562 51.2087 36.3632 51.2129 36.2723 51.2235C35.5766 51.3334 34.8197 50.7795 34.179 50.1959C33.5299 49.5933 32.9505 48.8807 32.4008 48.147C32.2993 48.0159 32.1936 47.8869 32.0963 47.7516C32.0054 47.6248 31.9229 47.4915 31.8341 47.3626L31.3436 46.6437C31.2717 46.5358 31.1935 46.4322 31.1047 46.335C30.9038 46.1193 30.7219 45.8867 30.5655 45.6372C30.3244 45.2481 30.0855 44.8549 29.8508 44.4595L29.1002 43.1845C29.0664 43.1274 29.0283 43.0745 28.9924 43.0196C28.948 42.9455 28.8993 42.8758 28.8803 42.7891C28.8634 42.713 28.819 42.5988 28.7746 42.5354C28.5843 42.2647 28.3897 41.9983 28.2227 41.7107C28.1424 41.5733 28.0789 41.4274 28.0197 41.2794C28.0028 41.235 27.9795 41.1842 27.9436 41.1568C27.7406 40.9961 27.6095 40.7783 27.4721 40.5668C27.3685 40.4061 27.2691 40.2412 27.174 40.0742C27.0323 39.8247 26.8801 39.5773 26.7997 39.2961C26.7891 39.258 26.7701 39.2242 26.7426 39.1946C26.6306 39.0783 26.5396 38.9493 26.4529 38.814C26.3536 38.6575 26.2521 38.5032 26.1464 38.353C26.0935 38.279 26.0343 38.2093 25.973 38.1416C25.9011 38.0612 25.8398 37.9767 25.789 37.8773C25.7066 37.7187 25.6177 37.5644 25.512 37.4185C25.2562 37.0696 24.9623 36.7419 24.6197 36.4374C24.6007 36.4205 24.5838 36.4035 24.5648 36.3866C24.4358 36.2767 24.3047 36.1604 24.1503 36.0589C24.0996 36.0293 24.051 35.987 23.9875 35.9912C23.8776 36.0018 23.7972 35.9426 23.6936 35.9088C23.6091 35.8728 23.5139 35.8453 23.4188 35.8348C23.313 35.8327 23.2031 35.839 23.1037 35.8771C23.0276 35.9003 22.9578 35.9341 22.8902 35.968C22.8563 35.9849 22.8204 35.9997 22.7908 36.0187C22.7527 36.042 22.7147 36.0631 22.6766 36.0843C22.5011 36.1752 22.4017 36.3803 22.3615 36.5516C22.3256 36.7059 22.3171 36.8433 22.3171 36.9766C22.3171 37.2091 22.3383 37.429 22.3679 37.6447C22.3721 37.6764 22.3763 37.7081 22.3806 37.7399C22.4398 38.1247 22.5117 38.501 22.6026 38.8711C22.7147 39.3405 22.85 39.8014 22.9938 40.2602C23.1101 40.6324 23.2327 41.0045 23.368 41.3682C23.4653 41.6346 23.5773 41.8968 23.6873 42.159C23.7232 42.2393 23.7423 42.2859 23.7824 42.3768C23.7824 42.381 23.7909 42.4021 23.8078 42.4148C23.8332 42.4339 23.8691 42.4444 23.886 42.4613C23.9495 42.5121 23.9495 42.5396 23.9664 42.5776C24.0298 42.7256 24.0721 42.7574 24.1334 42.9054C24.1482 42.9413 24.1609 42.9667 24.1482 43.0365C24.1398 43.0999 24.1905 43.1824 24.199 43.2077C24.2518 43.3663 24.2349 43.3557 24.3364 43.4911C24.3406 43.4974 24.3808 43.5397 24.3998 43.5566C24.5077 43.6539 24.6092 43.8886 24.7487 44.1994C24.7804 44.2924 24.8164 44.3876 24.8312 44.487C24.8396 44.5462 24.8692 44.6011 24.9115 44.6434C25.0786 44.802 25.2076 44.9902 25.3408 45.1741C25.3704 45.2143 25.4148 45.32 25.4465 45.3581C25.5205 45.4511 25.5522 45.4871 25.5712 45.6055C25.6051 45.8042 25.7044 45.9797 25.7932 46.1595C25.8102 46.1954 25.8292 46.2292 25.8482 46.2652C25.142 45.3222 24.4633 44.3559 23.7867 43.3832C23.7338 43.3071 23.6704 43.2395 23.6196 43.1633C23.571 43.0936 23.5329 43.0153 23.4843 42.9455C22.7147 41.8376 21.9535 40.7191 21.1098 39.6386C21.0337 39.5392 20.947 39.4504 20.8688 39.3532C20.7948 39.2643 20.7292 39.165 20.6531 39.0762C20.6214 39.0381 20.5854 39 20.5537 38.962C20.4438 38.8351 20.3338 38.7083 20.2196 38.5835C20.1499 38.5116 20.0801 38.4461 19.9955 38.389C19.8116 38.26 19.6276 38.1289 19.4521 37.9809C19.3168 37.8667 19.1688 37.7568 19.0081 37.6595C18.8495 37.5601 18.6698 37.4734 18.4626 37.4206C18.2448 37.3635 17.9784 37.355 17.7394 37.4438C17.621 37.4861 17.509 37.5453 17.4159 37.6172C17.3694 37.6532 17.3208 37.6891 17.2806 37.7293C17.2552 37.7547 17.2172 37.7885 17.1918 37.8181C17.1643 37.8477 17.1495 37.8879 17.1241 37.9196C17.1009 37.9576 17.0924 38.002 17.0755 38.0422C17.0671 38.0845 17.0607 38.1289 17.0544 38.1712C17.0438 38.2981 17.0544 38.3509 17.0332 38.4355C17.0163 38.501 17.0121 38.6068 17.029 38.6681C17.0967 38.9303 17.1897 39.1607 17.2616 39.3997C17.2975 39.5139 17.3166 39.6301 17.3356 39.7486C17.3419 39.7845 17.3483 39.8247 17.3736 39.85C17.5111 39.9917 17.5787 40.1651 17.6527 40.3321C17.7098 40.4611 17.7627 40.5901 17.8113 40.7212C17.8853 40.9157 17.9699 41.1102 17.9868 41.3238C17.9889 41.3534 17.9995 41.3788 18.0185 41.402C18.0714 41.4697 18.1137 41.5416 18.1517 41.6177C18.1665 41.6452 18.1813 41.6727 18.194 41.7002C18.249 41.8207 18.3061 41.9412 18.3674 42.0596C18.397 42.1167 18.433 42.1717 18.471 42.2266C18.5154 42.2901 18.5493 42.3577 18.5725 42.4339C18.6085 42.5565 18.6486 42.677 18.7015 42.7933C18.8347 43.0851 18.9954 43.3642 19.1476 43.6475C19.2005 43.7469 19.2407 43.8505 19.2872 43.952C19.302 43.9837 19.3104 44.0218 19.3506 44.0366C19.4183 44.0641 19.4331 44.1233 19.4542 44.1783C19.4733 44.2269 19.4859 44.2776 19.5092 44.3241C19.5367 44.3728 19.5684 44.4172 19.6065 44.4595C19.6636 44.5208 19.7185 44.5863 19.7587 44.6603C19.9279 44.9627 20.097 45.2651 20.2662 45.5695C20.3951 45.8064 20.5262 46.0453 20.6552 46.2842C20.8223 46.5845 20.9893 46.8826 21.1563 47.1828C21.2938 47.426 21.4291 47.6713 21.5729 47.9123C21.6765 48.0878 21.7885 48.2591 21.9006 48.4303C21.9366 48.4811 21.9556 48.5128 21.9958 48.572C21.9958 48.5741 22.0042 48.5889 22.019 48.5953C22.0423 48.6037 22.0719 48.6058 22.0867 48.6122C22.1416 48.6376 22.1438 48.6587 22.1607 48.6841C22.2241 48.7813 22.2601 48.7961 22.3214 48.8955C22.3362 48.9188 22.3489 48.9357 22.3404 48.9907C22.3362 49.0414 22.3848 49.0922 22.3933 49.1091C22.4461 49.2169 22.4334 49.2127 22.5244 49.2951C22.5286 49.2994 22.5645 49.3226 22.5793 49.3311C22.6745 49.3839 22.7739 49.5383 22.905 49.7476C22.9367 49.8111 22.9726 49.8766 22.9895 49.9485C23.0001 49.9929 23.0255 50.0288 23.0635 50.05C23.2115 50.1367 23.3257 50.2551 23.4462 50.3693C23.4547 50.3777 23.4632 50.3883 23.4737 50.4031C23.4357 50.3693 23.3976 50.3375 23.3553 50.3058C23.22 50.2022 23.0953 50.0859 22.9261 50.0267C22.8246 49.9929 22.8035 49.9548 22.7443 49.8724C22.7189 49.8364 22.6407 49.7772 22.6153 49.7455C22.4926 49.5933 22.3763 49.4368 22.2981 49.2529C22.277 49.2042 22.241 49.1683 22.1924 49.1492C22.112 49.1154 22.0444 49.0626 21.9767 49.0118C21.7611 48.8173 21.6067 48.6629 21.5686 48.5424C21.5623 48.5213 21.5433 48.4747 21.5412 48.4684C21.4714 48.3415 21.4714 48.3606 21.3614 48.2696C21.3445 48.257 21.298 48.1872 21.2409 48.1766C21.1754 48.1703 21.1584 48.1491 21.1352 48.1259C21.04 48.0286 21.0316 47.9821 20.9364 47.8806C20.9132 47.8552 20.8878 47.8447 20.8772 47.7749C20.873 47.7537 20.8793 47.7199 20.8772 47.6924C20.8751 47.6734 20.8603 47.6607 20.8582 47.6586C20.8032 47.5951 20.7736 47.5613 20.725 47.5063C20.5622 47.3266 20.4015 47.1469 20.2387 46.9629C20.0103 46.7219 19.7777 46.4745 19.5494 46.2314C19.2682 45.9311 18.9848 45.6287 18.6952 45.3306C18.4668 45.0959 18.2321 44.8633 17.9932 44.6307C17.6887 44.3347 17.38 44.0366 17.0226 43.7744C16.9338 43.7131 16.862 43.6348 16.7816 43.5566C16.7689 43.5439 16.7541 43.5334 16.7414 43.5207C16.6991 43.4826 16.6569 43.4467 16.6061 43.4213C16.5448 43.3896 16.4771 43.3684 16.4095 43.3452C16.3291 43.3219 16.2509 43.3029 16.1938 43.2268C16.1579 43.1824 16.1029 43.176 16.0521 43.1633C15.9739 43.1422 15.883 43.1358 15.8005 43.1253C15.7138 43.121 15.6229 43.1189 15.5362 43.1189C15.2761 43.1232 15.0118 43.2099 14.7962 43.3409C14.7475 43.3769 14.6841 43.4001 14.6207 43.4699L14.4367 43.6518C14.3775 43.7131 14.3458 43.7955 14.3331 43.8801C14.3183 43.9647 14.3247 44.0514 14.3331 44.1381C14.3585 44.2945 14.3817 44.3664 14.4113 44.4468C14.4409 44.5271 14.4769 44.6033 14.5128 44.6751C14.5572 44.7661 14.5868 44.8549 14.608 44.95C14.6249 45.0304 14.646 45.1086 14.6735 45.1868C14.7306 45.3412 14.7941 45.4934 14.8617 45.6414C14.9209 45.7704 14.9717 45.9015 15.0034 46.0411C15.0097 46.0749 15.0266 46.1066 15.052 46.132C15.0964 46.1764 15.1345 46.2229 15.1725 46.2694C15.2931 46.4238 15.384 46.595 15.4812 46.7621C15.5658 46.908 15.6483 47.056 15.7265 47.2061" fill="black"/>
</svg>
