<svg width="104" height="104" viewBox="0 0 104 104" fill="none" xmlns="http://www.w3.org/2000/svg">
<path fill-rule="evenodd" clip-rule="evenodd" d="M47.2032 67.0916C46.8977 67.0916 46.6435 67.2456 46.5408 67.4998L45.2675 70.8114L45.1648 71.1683L45.0622 70.8114L44.043 67.6025V67.5511C43.9403 67.297 43.6862 67.0916 43.3807 67.0916H41.7505C41.3937 67.143 41.1395 67.3971 41.1395 67.8053C41.1395 67.908 41.1909 68.0081 41.1909 68.1108L41.3937 68.8244L40.6287 70.8114L40.4746 71.1683L40.3719 70.8114L39.4041 67.6025V67.5511H39.3528C39.3014 67.297 39.0473 67.0916 38.7418 67.0916H37.1116C36.7548 67.143 36.4493 67.3971 36.4493 67.8053C36.4493 67.908 36.5007 68.0081 36.552 68.1108L38.9446 75.3425C39.0473 75.648 39.3014 75.8508 39.6069 75.8508C39.9124 75.8508 40.1666 75.648 40.2693 75.3913L41.9507 71.1118L42.1048 70.7036L42.2075 71.1118L43.6348 75.3399C43.6862 75.6454 43.9916 75.8482 44.2971 75.8482C44.6026 75.8482 44.8568 75.6454 44.9595 75.3887L47.8116 68.0543C47.8629 67.9516 47.8629 67.8515 47.8629 67.7488C47.8629 67.392 47.5574 67.0865 47.2006 67.0865L47.2032 67.0916Z" fill="#302D2F"/>
<path fill-rule="evenodd" clip-rule="evenodd" d="M59.2741 67.0916C58.9686 67.0916 58.7145 67.2456 58.6118 67.4998L57.3385 70.8114L57.2358 71.1683L57.1331 70.8114L56.1139 67.6025V67.5511C56.0112 67.297 55.7571 67.0916 55.4516 67.0916H53.8214C53.4646 67.143 53.2105 67.3971 53.2105 67.8053C53.2105 67.908 53.2105 68.0081 53.2618 68.1108L53.4646 68.8244L52.6996 70.8114L52.5456 71.1683L52.4429 70.8114L51.4751 67.6025L51.4237 67.5511C51.3724 67.297 51.1182 67.0916 50.8127 67.0916H49.1826C48.8257 67.143 48.5203 67.3971 48.5203 67.8053C48.5203 67.908 48.5716 68.0081 48.6229 68.1108L51.0155 75.3425C51.1182 75.648 51.3724 75.8508 51.6779 75.8508C51.9834 75.8508 52.2375 75.648 52.3402 75.3913L54.0217 71.1118L54.1757 70.7036L54.2784 71.1118L55.7057 75.3399C55.7571 75.6454 56.0626 75.8482 56.3681 75.8482C56.6736 75.8482 56.9277 75.6454 57.0304 75.3887L59.8825 68.0543C59.9339 67.9516 59.9339 67.8515 59.9339 67.7488C59.9339 67.392 59.6284 67.0865 59.2715 67.0865L59.2741 67.0916Z" fill="#302D2F"/>
<path fill-rule="evenodd" clip-rule="evenodd" d="M67.1168 67.0917H61.4639C61.1071 67.0917 60.8529 67.3458 60.8529 67.7027V75.1885C60.9043 75.5453 61.1584 75.7995 61.5152 75.7995H63.0941C63.4509 75.7995 63.705 75.5453 63.705 75.1885C63.705 75.2399 63.705 71.6741 63.705 71.6741H66.0489C66.3543 71.6741 66.6598 71.3686 66.6598 71.0631C66.6598 70.7062 66.3543 70.4008 66.0489 70.4008H63.705V68.4138H67.1168C67.4736 68.4138 67.7791 68.1083 67.7791 67.7514C67.7791 67.3946 67.4736 67.0891 67.1168 67.0891V67.0917Z" fill="#302D2F"/>
<path fill-rule="evenodd" clip-rule="evenodd" d="M58.355 43.1529C59.3742 44.2722 59.4743 47.7379 62.0723 46.3619C63.5997 45.5481 63.5997 42.0824 61.5126 40.8117C59.8311 39.8438 58.9147 41.1685 58.3037 42.7986C58.2523 42.9527 58.2523 43.0528 58.355 43.1555V43.1529Z" fill="#302D2F"/>
<path fill-rule="evenodd" clip-rule="evenodd" d="M54.3321 42.5932C53.2128 43.4583 52.4992 45.9536 50.5122 45.0885C48.882 44.2747 48.7306 41.1171 51.5313 39.6384C53.467 38.7219 54.4348 40.5035 54.4348 42.3878C54.4348 42.4392 54.3835 42.5418 54.3321 42.5906V42.5932Z" fill="#302D2F"/>
<path fill-rule="evenodd" clip-rule="evenodd" d="M56.9814 48.8571C58.0519 48.7544 57.7952 47.7378 56.9814 47.5324C56.2677 47.2783 55.1998 47.1243 54.3834 47.1756C53.0074 47.1756 53.0588 48.2461 53.7725 48.4489C54.3321 48.6029 54.6889 48.6517 55.1485 49.2627C55.5566 50.0765 55.3513 49.0086 56.9814 48.8545V48.8571Z" fill="#302D2F"/>
<path fill-rule="evenodd" clip-rule="evenodd" d="M62.0233 31.1334C63.348 28.8922 65.6893 29.3004 66.8624 30.4197C68.1358 31.6417 68.3899 33.069 67.8816 34.0368C67.2193 35.3615 65.489 36.9403 64.3672 35.4128C63.8589 34.6992 62.8397 33.8854 62.2287 33.68C61.3636 33.2718 61.2096 32.5094 62.0259 31.1334H62.0233Z" fill="#302D2F"/>
<path fill-rule="evenodd" clip-rule="evenodd" d="M67.3709 40.9631C67.2682 40.5549 67.0654 40.6063 67.0654 40.9117C67.1681 44.9858 64.7216 49.3654 59.5282 49.4168C58.2035 49.4168 58.6117 51.5039 56.1678 50.4359C54.4349 49.2653 53.4184 51.6066 52.1964 49.1113C51.8909 48.3976 51.4827 48.0921 50.9744 47.9406C45.8298 46.6673 44.1997 39.5871 48.7333 33.8829C49.5984 34.4425 49.9552 34.5452 50.9231 33.6287C51.3826 33.1692 52.2477 32.6609 52.7047 32.5094C53.7752 32.1012 54.3862 31.6443 53.4184 29.5546C52.9717 28.5714 52.3658 28.0477 51.7189 27.8218H49.9886C49.4598 27.9784 48.9797 28.2479 48.6306 28.5354C47.3059 29.606 46.4408 31.2849 48.0709 33.2719C43.486 36.3781 42.6722 40.1981 42.7749 43.5611C42.8776 47.0755 42.0099 46.77 43.1317 50.3358C43.2344 50.6413 42.9777 50.6413 42.8262 50.5386C38.0385 47.4837 35.4405 38.111 42.9289 32.9664C43.0829 32.8123 43.0316 32.6095 42.4206 32.9664C35.9514 36.3781 35.3404 42.9989 36.4109 47.4811C36.9192 49.6196 36.1567 50.0277 36.9705 52.8799C38.9062 58.7869 40.5363 59.2978 42.8776 59.4492C47.1057 59.4492 44.2022 57.1054 44.405 54.2045C44.405 54.0017 44.6078 53.9504 44.7105 54.3072C47.0544 59.5031 48.6819 64.2396 54.7943 63.78C58.3088 63.3205 56.3732 61.5903 56.119 60.5711C53.521 51.9634 59.8363 49.9276 58.0546 58.33C56.884 63.1691 60.6013 62.6582 63.2506 60.9279C65.9487 59.1951 69.3117 47.4323 67.376 40.9631H67.3709ZM57.0817 51.2009C56.4707 52.7284 53.4646 52.2201 53.3644 50.6926C53.3644 50.6413 53.4671 50.6413 53.4671 50.6926C54.8431 50.9981 56.1164 51.1522 56.9816 51.1522C57.0329 51.1522 57.0843 51.1008 57.0843 51.2035L57.0817 51.2009Z" fill="#302D2F"/>
</svg>
