<svg width="210" height="210" viewBox="0 0 210 210" fill="none" xmlns="http://www.w3.org/2000/svg">
<path d="M47.946 95.0357C44.3669 98.5902 40.9934 100.519 37.9208 100.747C35.5579 100.923 33.0561 100.229 30.4848 98.6791C28.7724 97.6069 27.1834 96.3594 25.7384 94.9544L25.6381 94.8604C27.3994 93.0005 29.6286 91.6336 32.0996 90.9019C31.8347 91.8852 31.7859 92.9116 31.9504 93.9152C32.1998 95.6887 33.1486 97.2919 34.5859 98.3793C36.5992 99.9343 39.5047 99.5811 41.0783 97.5917C41.1425 97.5104 41.2043 97.4265 41.2634 97.3427C42.2945 95.8716 42.6981 94.0575 42.387 92.2942C42.333 91.9563 42.2559 91.6235 42.1556 91.2957C43.9529 91.9741 45.6165 92.9624 47.0641 94.215C47.3623 94.4716 47.658 94.746 47.9434 95.0306L47.946 95.0357ZM31.0582 109.31C30.4386 112.47 30.2971 115.707 30.6365 118.909C29.4255 118.301 28.2942 117.549 27.2682 116.668C24.4888 114.284 22.6143 111.037 21.9561 107.457C21.339 104.111 21.9047 100.656 23.5631 97.673C24.1905 98.3209 24.9464 99.0628 25.7435 99.8402C27.6848 101.743 29.8883 103.898 30.9579 105.432C31.5776 106.322 31.3848 107.445 31.0634 109.307M51.7283 95.6937C53.235 93.9355 53.9035 93.1225 53.7569 92.6779C53.5667 92.2739 53.2041 91.9715 52.7696 91.8547C52.2014 91.6412 51.4223 91.5447 51.0315 91.7708C50.7178 92.0351 50.4324 92.3298 50.1778 92.6525L49.7021 93.1835C49.3987 92.876 49.0748 92.5712 48.7585 92.2993C46.4495 90.3124 43.6161 89.0141 40.5872 88.5542C39.3607 87.2661 37.7614 86.669 36.1878 86.9129C34.8251 87.1466 33.6294 87.947 32.9044 89.1106C29.7906 90.0558 26.988 91.8089 24.7947 94.1871C24.2985 94.0397 23.2134 94.2303 22.5321 94.5961C22.2107 94.7283 21.9664 94.9976 21.8687 95.3304C21.8301 95.5388 21.9175 95.8665 22.7635 96.8218C20.5908 100.221 19.6574 104.251 20.1125 108.248C20.5702 112.244 22.5218 115.928 25.5815 118.581C26.6537 119.503 27.8416 120.283 29.1195 120.898C35.0462 123.726 42.0039 123.484 47.712 120.248L47.7197 120.242C48.1851 119.976 48.3574 119.399 48.1157 118.926L48.0463 118.774C47.1103 116.701 44.2614 110.392 45.8479 104.635C46.5112 102.226 48.4242 99.6599 50.0775 97.6476C51.8388 100.346 52.7207 103.509 52.6076 106.718C52.5022 109.65 51.4917 112.48 49.7124 114.828C49.6327 114.925 49.6121 115.057 49.661 115.174L49.841 115.59C49.9207 115.761 50.1264 115.834 50.2987 115.756C50.3475 115.733 50.3886 115.702 50.4221 115.662C55.0991 109.803 55.6596 101.736 51.7257 95.6937" fill="#D9291C"/>
<path d="M72.3126 101.444C72.2497 101.55 72.1675 101.645 72.066 101.722C71.9693 101.788 71.8532 101.817 71.7372 101.812C71.6018 101.808 71.4713 101.769 71.3552 101.702C71.2199 101.626 71.0603 101.545 70.8911 101.454C70.7025 101.354 70.4995 101.272 70.2964 101.206C70.0498 101.129 69.7936 101.091 69.5325 101.096C69.1409 101.067 68.7492 101.177 68.435 101.406C68.1932 101.616 68.0578 101.927 68.0723 102.247C68.0675 102.453 68.1449 102.658 68.2899 102.806C68.4543 102.969 68.6477 103.098 68.8604 103.188C69.1215 103.308 69.3923 103.403 69.6679 103.484C69.9725 103.575 70.2819 103.676 70.5962 103.785C70.9153 103.895 71.2247 104.024 71.5245 104.172C71.8242 104.316 72.095 104.512 72.3319 104.741C72.5736 104.985 72.767 105.267 72.9024 105.582C73.0571 105.959 73.1297 106.365 73.12 106.776C73.12 107.273 73.033 107.765 72.8492 108.229C72.6752 108.673 72.4044 109.074 72.0611 109.409C71.6985 109.758 71.2634 110.025 70.7896 110.197C70.2384 110.398 69.6534 110.493 69.0683 110.484C68.7057 110.484 68.3479 110.445 67.9902 110.379C67.6275 110.307 67.2746 110.207 66.9313 110.073C66.5977 109.949 66.2738 109.791 65.9692 109.609C65.6839 109.442 65.4228 109.242 65.1859 109.012L65.9643 107.799C66.0223 107.703 66.1045 107.627 66.2061 107.574C66.3076 107.517 66.4236 107.488 66.5397 107.488C66.7089 107.488 66.8685 107.541 67.0087 107.636C67.1682 107.732 67.3471 107.842 67.5453 107.956C67.7629 108.085 67.995 108.19 68.2319 108.281C68.5268 108.386 68.8363 108.434 69.1505 108.429C69.547 108.453 69.9386 108.343 70.2626 108.119C70.543 107.87 70.6929 107.502 70.659 107.135C70.6687 106.905 70.5913 106.676 70.4415 106.499C70.2819 106.327 70.0885 106.189 69.8709 106.093C69.6098 105.978 69.3439 105.883 69.0683 105.806C68.7686 105.725 68.4591 105.634 68.1449 105.534C67.8258 105.434 67.5212 105.31 67.2214 105.166C66.9216 105.023 66.6509 104.827 66.4188 104.588C66.1722 104.33 65.9788 104.029 65.8483 103.699C65.6936 103.279 65.6162 102.83 65.6307 102.381C65.6307 101.96 65.7177 101.54 65.887 101.153C66.061 100.752 66.3173 100.389 66.6412 100.088C66.9942 99.7627 67.41 99.5095 67.8596 99.3375C68.3866 99.1416 68.9475 99.0461 69.5131 99.0556C69.8516 99.0556 70.19 99.0843 70.5285 99.1369C70.8476 99.1894 71.1619 99.2659 71.4665 99.3757C71.7517 99.4761 72.0321 99.6003 72.2932 99.7532C72.5398 99.8917 72.7719 100.059 72.9798 100.25L72.3271 101.454L72.3126 101.444Z" fill="black"/>
<path d="M77.191 108.95C77.4618 108.955 77.7325 108.902 77.9839 108.792C78.2402 108.663 78.4771 108.496 78.6705 108.286V107.225C78.2837 107.221 77.8969 107.249 77.515 107.316C77.2684 107.359 77.0266 107.436 76.7994 107.541C76.6495 107.608 76.5238 107.713 76.4319 107.851C76.3643 107.966 76.3304 108.095 76.3304 108.229C76.3062 108.439 76.3884 108.649 76.548 108.788C76.7365 108.907 76.9638 108.964 77.1862 108.95M79.8696 110.36C79.6955 110.369 79.5263 110.34 79.3667 110.269C79.2313 110.183 79.1298 110.049 79.0815 109.896L78.9171 109.471C78.7237 109.633 78.5303 109.781 78.3514 109.901C78.1725 110.025 77.9839 110.13 77.7905 110.216C77.5923 110.302 77.3844 110.369 77.1717 110.407C76.9299 110.45 76.6882 110.474 76.4416 110.469C76.1128 110.469 75.7841 110.426 75.4698 110.331C75.1942 110.25 74.9428 110.111 74.7252 109.925C74.5173 109.743 74.3578 109.514 74.2562 109.256C74.1402 108.96 74.0822 108.649 74.0918 108.334C74.0918 108.038 74.1692 107.751 74.3046 107.488C74.4738 107.168 74.7252 106.896 75.0347 106.7C75.465 106.428 75.9388 106.227 76.4368 106.107C77.1668 105.931 77.9114 105.849 78.6608 105.869V105.539C78.6947 105.185 78.5931 104.832 78.3756 104.55C78.1677 104.34 77.8727 104.225 77.573 104.244C77.3457 104.239 77.1137 104.268 76.8961 104.335C76.7317 104.388 76.577 104.454 76.4271 104.536C76.2869 104.612 76.1563 104.679 76.0258 104.736C75.8808 104.798 75.7212 104.832 75.5568 104.827C75.4118 104.827 75.2667 104.789 75.1459 104.712C75.0347 104.641 74.9428 104.54 74.8799 104.426L74.4593 103.704C74.9186 103.298 75.4505 102.988 76.0306 102.782C76.6253 102.577 77.2539 102.476 77.8824 102.481C78.3175 102.476 78.7527 102.553 79.1588 102.711C79.5214 102.849 79.8502 103.069 80.1258 103.341C80.3917 103.618 80.5996 103.948 80.735 104.306C80.8801 104.698 80.9526 105.114 80.9477 105.529V110.36H79.8696Z" fill="black"/>
<path d="M84.6125 110.359L81.581 102.629H83.5295C83.6794 102.625 83.8244 102.663 83.9501 102.744C84.0565 102.811 84.1387 102.911 84.1822 103.031L85.2701 106.494C85.3571 106.776 85.4393 107.053 85.5166 107.321C85.594 107.588 85.6617 107.856 85.7149 108.128C85.768 107.861 85.8357 107.593 85.9179 107.321C86.0001 107.053 86.0823 106.776 86.1742 106.494L87.3055 103.031C87.3491 102.911 87.4264 102.816 87.5328 102.744C87.6488 102.668 87.7842 102.625 87.9244 102.629H89.781L86.7495 110.359H84.6125Z" fill="black"/>
<path d="M93.9486 104.106C93.5618 104.082 93.1846 104.22 92.8994 104.483C92.6238 104.784 92.4497 105.161 92.4014 105.567H95.3217C95.3217 105.386 95.2975 105.204 95.2492 105.032C95.2056 104.865 95.1234 104.703 95.0171 104.564C94.901 104.421 94.756 104.311 94.5916 104.235C94.3885 104.144 94.171 104.101 93.9534 104.11M93.9099 102.515C94.3934 102.51 94.8769 102.591 95.3313 102.753C95.7472 102.902 96.1243 103.14 96.4385 103.446C96.7576 103.762 97.0042 104.144 97.1638 104.559C97.3427 105.037 97.4345 105.544 97.4249 106.055C97.4249 106.198 97.42 106.337 97.4007 106.48C97.391 106.571 97.362 106.662 97.3185 106.743C97.2798 106.805 97.2266 106.853 97.1589 106.877C97.0767 106.905 96.9849 106.915 96.8979 106.915H92.3869C92.4062 107.44 92.619 107.937 92.9816 108.319C93.3249 108.616 93.7697 108.773 94.2242 108.754C94.4611 108.759 94.698 108.725 94.9252 108.659C95.1041 108.601 95.283 108.53 95.4474 108.444C95.6021 108.362 95.7423 108.291 95.868 108.229C95.9937 108.167 96.1291 108.133 96.2693 108.133C96.4337 108.124 96.5933 108.2 96.69 108.334L97.3668 109.16C97.1444 109.418 96.8785 109.643 96.5884 109.829C96.3177 109.996 96.0276 110.13 95.7278 110.23C95.4425 110.326 95.1476 110.393 94.8479 110.431C94.5674 110.469 94.287 110.488 94.0066 110.488C93.4796 110.488 92.9574 110.402 92.4642 110.226C91.9904 110.054 91.565 109.786 91.2023 109.437C90.83 109.069 90.54 108.625 90.3514 108.143C90.1338 107.565 90.0275 106.953 90.0371 106.337C90.0371 105.835 90.1241 105.338 90.303 104.87C90.6512 103.948 91.3667 103.207 92.2854 102.83C92.793 102.62 93.3442 102.515 93.8954 102.524" fill="black"/>
<path d="M104.644 110.479C104.31 110.484 103.976 110.431 103.657 110.316C103.111 110.121 102.685 109.695 102.502 109.151C102.395 108.85 102.347 108.534 102.352 108.219V104.225H101.689C101.457 104.235 101.259 104.053 101.249 103.824C101.249 103.805 101.249 103.785 101.249 103.771V102.868L102.492 102.629L102.951 100.742C103.004 100.508 103.227 100.355 103.464 100.384H104.687V102.644H106.587V104.225H104.687V108.061C104.682 108.219 104.726 108.377 104.818 108.506C104.909 108.625 105.05 108.687 105.2 108.683C105.272 108.683 105.345 108.678 105.412 108.659C105.465 108.644 105.514 108.625 105.562 108.601C105.606 108.577 105.644 108.558 105.683 108.539C105.727 108.52 105.77 108.511 105.814 108.511C105.876 108.511 105.934 108.525 105.983 108.558C106.036 108.601 106.079 108.654 106.113 108.711L106.824 109.805C106.519 110.03 106.171 110.202 105.804 110.307C105.422 110.417 105.03 110.474 104.634 110.474" fill="black"/>
<path d="M107.902 110.36V99.2038H110.242V103.313C110.518 103.078 110.827 102.883 111.161 102.734C111.533 102.577 111.934 102.505 112.341 102.515C112.732 102.505 113.119 102.582 113.477 102.734C113.796 102.873 114.081 103.083 114.308 103.346C114.54 103.618 114.715 103.938 114.821 104.278C114.942 104.66 115 105.056 114.995 105.453V110.364H112.655V105.453C112.674 105.138 112.582 104.822 112.389 104.569C112.196 104.349 111.905 104.235 111.611 104.254C111.359 104.254 111.113 104.306 110.885 104.416C110.648 104.531 110.431 104.679 110.237 104.856V110.364H107.897L107.902 110.36Z" fill="black"/>
<path d="M120.12 104.106C119.733 104.082 119.356 104.22 119.071 104.483C118.795 104.784 118.621 105.161 118.573 105.567H121.493C121.493 105.386 121.469 105.204 121.421 105.032C121.377 104.865 121.295 104.703 121.189 104.564C121.073 104.421 120.928 104.311 120.763 104.235C120.56 104.144 120.343 104.101 120.12 104.11M120.077 102.515C120.56 102.51 121.044 102.591 121.498 102.753C121.914 102.902 122.291 103.14 122.605 103.446C122.924 103.762 123.171 104.144 123.331 104.559C123.509 105.037 123.601 105.544 123.592 106.055C123.592 106.198 123.587 106.337 123.568 106.48C123.558 106.571 123.529 106.662 123.485 106.743C123.447 106.805 123.389 106.853 123.321 106.877C123.239 106.905 123.147 106.915 123.06 106.915H118.549C118.568 107.44 118.781 107.937 119.144 108.319C119.487 108.616 119.932 108.773 120.391 108.754C120.628 108.759 120.865 108.725 121.092 108.659C121.271 108.601 121.45 108.53 121.619 108.444C121.774 108.362 121.914 108.291 122.04 108.229C122.165 108.167 122.301 108.133 122.441 108.133C122.605 108.124 122.765 108.2 122.862 108.334L123.539 109.16C123.311 109.418 123.05 109.643 122.755 109.829C122.484 109.996 122.199 110.13 121.895 110.23C121.609 110.326 121.31 110.393 121.01 110.431C120.729 110.469 120.449 110.488 120.169 110.488C119.642 110.488 119.119 110.402 118.626 110.226C118.157 110.054 117.727 109.786 117.364 109.437C116.992 109.069 116.702 108.63 116.513 108.143C116.296 107.565 116.189 106.953 116.199 106.341C116.199 105.84 116.286 105.343 116.47 104.875C116.818 103.953 117.534 103.212 118.452 102.835C118.96 102.624 119.511 102.519 120.062 102.529" fill="black"/>
<path d="M135.78 107.464C135.843 107.464 135.906 107.479 135.964 107.498C136.032 107.526 136.095 107.565 136.143 107.617L137.182 108.702C136.738 109.284 136.148 109.743 135.471 110.035C134.697 110.35 133.87 110.503 133.034 110.484C132.241 110.498 131.453 110.35 130.723 110.049C130.065 109.777 129.476 109.37 128.992 108.85C128.509 108.324 128.136 107.708 127.899 107.039C127.638 106.308 127.513 105.539 127.517 104.765C127.508 103.977 127.658 103.198 127.953 102.467C128.228 101.788 128.644 101.172 129.166 100.661C129.703 100.145 130.336 99.7436 131.032 99.4808C131.796 99.1942 132.613 99.0508 133.43 99.0604C133.832 99.0604 134.238 99.0938 134.63 99.1703C134.987 99.2419 135.34 99.3423 135.684 99.476C135.998 99.6003 136.302 99.7579 136.583 99.9442C136.849 100.116 137.091 100.322 137.313 100.546L136.428 101.722C136.37 101.793 136.302 101.86 136.225 101.917C136.128 101.98 136.012 102.013 135.896 102.008C135.804 102.008 135.713 101.989 135.63 101.946C135.539 101.903 135.451 101.851 135.364 101.798C135.273 101.741 135.171 101.674 135.06 101.607C134.934 101.53 134.804 101.468 134.663 101.416C134.489 101.349 134.31 101.301 134.127 101.268C133.89 101.225 133.648 101.206 133.406 101.206C132.957 101.201 132.512 101.287 132.101 101.454C131.714 101.616 131.366 101.86 131.086 102.166C130.791 102.495 130.568 102.878 130.423 103.289C130.259 103.766 130.177 104.268 130.186 104.77C130.177 105.29 130.259 105.806 130.423 106.298C130.563 106.709 130.781 107.092 131.066 107.421C131.327 107.717 131.651 107.956 132.019 108.114C132.386 108.272 132.783 108.353 133.184 108.353C133.401 108.353 133.619 108.343 133.837 108.319C134.02 108.3 134.204 108.257 134.383 108.2C134.552 108.143 134.712 108.071 134.866 107.98C135.031 107.885 135.186 107.77 135.331 107.646C135.393 107.593 135.461 107.55 135.534 107.522C135.606 107.488 135.679 107.469 135.756 107.469" fill="black"/>
<path d="M138.387 110.36V99.2038H140.727V103.313C141.002 103.078 141.312 102.883 141.645 102.734C142.018 102.577 142.419 102.505 142.825 102.515C143.217 102.505 143.604 102.582 143.961 102.734C144.28 102.873 144.566 103.083 144.793 103.346C145.025 103.618 145.199 103.938 145.305 104.278C145.426 104.66 145.484 105.056 145.479 105.453V110.364H143.144V105.453C143.164 105.138 143.072 104.822 142.878 104.569C142.685 104.349 142.395 104.23 142.1 104.249C141.848 104.249 141.602 104.302 141.375 104.411C141.138 104.526 140.92 104.674 140.727 104.851V110.36H138.387Z" fill="black"/>
<path d="M149.686 110.359H147.345V102.629H149.686V110.359ZM149.956 100.513C149.956 100.69 149.918 100.866 149.845 101.029C149.773 101.186 149.666 101.335 149.536 101.454C149.4 101.578 149.246 101.674 149.081 101.745C148.907 101.817 148.719 101.855 148.525 101.855C148.341 101.855 148.158 101.822 147.989 101.745C147.824 101.674 147.674 101.578 147.549 101.454C147.423 101.335 147.316 101.191 147.249 101.029C147.176 100.866 147.138 100.69 147.138 100.513C147.138 100.331 147.171 100.15 147.249 99.9825C147.321 99.82 147.423 99.6719 147.549 99.5525C147.674 99.4331 147.824 99.3327 147.989 99.2611C148.158 99.1894 148.341 99.156 148.525 99.156C148.714 99.156 148.902 99.1894 149.081 99.2611C149.42 99.3948 149.695 99.6528 149.845 99.9825C149.922 100.15 149.961 100.331 149.956 100.513Z" fill="black"/>
<path d="M154.153 99.1989H151.813V110.355H154.153V99.1989Z" fill="black"/>
<path d="M159.234 108.702C159.389 108.702 159.544 108.687 159.698 108.654C159.829 108.625 159.96 108.577 160.08 108.515C160.196 108.453 160.308 108.377 160.409 108.291C160.52 108.195 160.622 108.09 160.714 107.975V104.698C160.554 104.521 160.361 104.383 160.138 104.292C159.93 104.215 159.713 104.177 159.495 104.177C159.287 104.177 159.084 104.22 158.901 104.306C158.712 104.397 158.548 104.54 158.432 104.712C158.282 104.932 158.175 105.18 158.117 105.438C158.035 105.792 157.997 106.155 158.006 106.518C158.001 106.862 158.03 107.206 158.098 107.545C158.142 107.784 158.229 108.009 158.349 108.219C158.441 108.377 158.577 108.501 158.736 108.587C158.896 108.663 159.065 108.702 159.244 108.697M161.613 110.35C161.483 110.355 161.357 110.321 161.246 110.254C161.144 110.183 161.072 110.082 161.038 109.963L160.859 109.375C160.704 109.538 160.545 109.686 160.366 109.824C160.196 109.958 160.008 110.078 159.81 110.168C159.607 110.269 159.389 110.34 159.167 110.393C158.925 110.445 158.673 110.474 158.422 110.469C158.03 110.469 157.639 110.379 157.291 110.202C156.933 110.015 156.628 109.753 156.391 109.428C156.121 109.05 155.922 108.63 155.797 108.186C155.647 107.641 155.574 107.077 155.584 106.513C155.584 105.969 155.661 105.429 155.826 104.908C155.971 104.445 156.203 104.01 156.507 103.628C156.793 103.274 157.155 102.983 157.566 102.782C157.992 102.577 158.456 102.472 158.93 102.476C159.278 102.467 159.626 102.529 159.95 102.653C160.225 102.768 160.482 102.921 160.709 103.112V99.1989H163.049V110.355H161.599L161.613 110.35Z" fill="black"/>
<path d="M164.921 110.36V102.629H166.308C166.405 102.629 166.502 102.639 166.598 102.658C166.671 102.677 166.738 102.706 166.796 102.749C166.85 102.792 166.893 102.849 166.917 102.916C166.951 102.997 166.971 103.083 166.99 103.169L167.116 103.891C167.372 103.489 167.696 103.136 168.083 102.854C168.421 102.605 168.832 102.472 169.253 102.472C169.562 102.457 169.862 102.548 170.113 102.725L169.813 104.426C169.804 104.512 169.76 104.593 169.693 104.645C169.62 104.688 169.538 104.712 169.451 104.708C169.349 104.708 169.248 104.693 169.151 104.674C169.006 104.65 168.861 104.636 168.716 104.641C168.102 104.641 167.618 104.966 167.265 105.611V110.35H164.925L164.921 110.36Z" fill="black"/>
<path d="M174.392 104.106C174.005 104.082 173.623 104.22 173.343 104.483C173.067 104.784 172.893 105.161 172.845 105.567H175.765C175.765 105.386 175.741 105.204 175.692 105.032C175.649 104.865 175.567 104.703 175.46 104.564C175.344 104.421 175.199 104.311 175.035 104.235C174.832 104.144 174.614 104.101 174.397 104.11M174.353 102.515C174.837 102.51 175.32 102.591 175.775 102.753C176.19 102.902 176.568 103.14 176.882 103.446C177.201 103.762 177.448 104.144 177.607 104.559C177.786 105.037 177.878 105.544 177.868 106.055C177.868 106.198 177.863 106.337 177.844 106.48C177.834 106.571 177.805 106.662 177.762 106.743C177.723 106.805 177.67 106.853 177.597 106.877C177.515 106.905 177.423 106.915 177.336 106.915H172.825C172.845 107.44 173.057 107.937 173.42 108.319C173.763 108.616 174.208 108.773 174.663 108.754C174.9 108.759 175.136 108.725 175.364 108.659C175.543 108.601 175.721 108.53 175.886 108.444C176.041 108.362 176.181 108.291 176.307 108.229C176.432 108.167 176.568 108.133 176.708 108.133C176.872 108.124 177.032 108.2 177.128 108.334L177.805 109.16C177.578 109.418 177.317 109.643 177.027 109.829C176.756 109.996 176.466 110.13 176.166 110.23C175.881 110.326 175.586 110.393 175.286 110.431C175.006 110.469 174.726 110.488 174.445 110.488C173.918 110.488 173.396 110.402 172.903 110.226C172.429 110.054 172.003 109.786 171.641 109.437C171.269 109.069 170.978 108.625 170.79 108.143C170.572 107.565 170.466 106.953 170.476 106.337C170.476 105.835 170.563 105.338 170.742 104.87C171.09 103.948 171.805 103.207 172.724 102.83C173.232 102.62 173.783 102.515 174.334 102.524" fill="black"/>
<path d="M179.357 102.629H180.808C180.938 102.629 181.064 102.658 181.175 102.725C181.277 102.797 181.349 102.897 181.383 103.016L181.519 103.465C181.668 103.327 181.823 103.198 181.988 103.078C182.147 102.959 182.321 102.859 182.505 102.777C182.698 102.691 182.896 102.629 183.1 102.586C183.327 102.539 183.564 102.515 183.796 102.515C184.187 102.505 184.574 102.582 184.932 102.734C185.251 102.873 185.536 103.083 185.764 103.346C185.996 103.618 186.17 103.938 186.276 104.278C186.397 104.66 186.455 105.056 186.45 105.453V110.364H184.11V105.453C184.129 105.138 184.038 104.822 183.844 104.569C183.651 104.349 183.361 104.235 183.066 104.254C182.814 104.254 182.568 104.306 182.34 104.416C182.104 104.531 181.886 104.679 181.693 104.856V110.364H179.357V102.629Z" fill="black"/>
<path d="M189.511 108.262H189.666C189.724 108.262 189.772 108.257 189.811 108.248C189.849 108.238 189.878 108.224 189.898 108.205C189.922 108.186 189.936 108.162 189.941 108.133C189.951 108.104 189.956 108.071 189.956 108.033C189.956 107.994 189.956 107.966 189.946 107.937C189.936 107.908 189.927 107.889 189.907 107.87C189.888 107.851 189.859 107.837 189.825 107.832C189.791 107.822 189.748 107.818 189.695 107.818H189.511V108.262ZM189.511 109.084H189.139V107.541H189.699C189.917 107.541 190.077 107.579 190.178 107.655C190.28 107.732 190.328 107.842 190.328 107.985C190.328 108.085 190.299 108.176 190.246 108.252C190.193 108.329 190.11 108.386 189.994 108.42C190.023 108.434 190.043 108.453 190.062 108.477C190.081 108.501 190.096 108.525 190.115 108.553L190.429 109.084H190.072C190.019 109.084 189.985 109.065 189.96 109.026L189.709 108.573C189.709 108.573 189.685 108.544 189.67 108.534C189.656 108.525 189.632 108.52 189.608 108.52H189.511V109.084ZM188.655 108.315C188.655 108.463 188.684 108.601 188.737 108.73C188.79 108.859 188.863 108.974 188.96 109.069C189.056 109.165 189.163 109.241 189.293 109.294C189.419 109.351 189.559 109.375 189.704 109.375C189.849 109.375 189.989 109.347 190.12 109.294C190.251 109.241 190.362 109.165 190.458 109.069C190.555 108.974 190.628 108.859 190.681 108.73C190.734 108.601 190.763 108.463 190.763 108.315C190.763 108.214 190.749 108.119 190.724 108.028C190.7 107.937 190.666 107.851 190.618 107.77C190.575 107.689 190.517 107.617 190.454 107.555C190.391 107.488 190.318 107.436 190.241 107.388C190.164 107.34 190.081 107.307 189.989 107.278C189.898 107.254 189.806 107.24 189.704 107.24C189.603 107.24 189.511 107.254 189.424 107.278C189.332 107.302 189.25 107.34 189.172 107.388C189.095 107.436 189.023 107.488 188.96 107.555C188.897 107.622 188.844 107.693 188.795 107.77C188.752 107.851 188.713 107.937 188.689 108.028C188.665 108.119 188.65 108.214 188.65 108.315M188.413 108.315C188.413 108.2 188.428 108.085 188.462 107.975C188.491 107.865 188.534 107.765 188.592 107.67C188.65 107.574 188.713 107.488 188.795 107.412C188.873 107.335 188.96 107.268 189.056 107.211C189.153 107.154 189.255 107.115 189.361 107.082C189.472 107.053 189.583 107.034 189.704 107.034C189.825 107.034 189.936 107.049 190.048 107.082C190.159 107.111 190.26 107.154 190.357 107.211C190.454 107.268 190.541 107.33 190.618 107.412C190.695 107.488 190.763 107.574 190.821 107.67C190.879 107.765 190.918 107.865 190.952 107.975C190.981 108.085 191 108.195 191 108.315C191 108.434 190.985 108.544 190.952 108.649C190.923 108.759 190.879 108.859 190.821 108.95C190.763 109.046 190.7 109.127 190.618 109.208C190.541 109.284 190.454 109.351 190.357 109.409C190.26 109.466 190.159 109.504 190.048 109.538C189.936 109.566 189.825 109.585 189.704 109.585C189.583 109.585 189.472 109.571 189.361 109.538C189.25 109.509 189.148 109.466 189.056 109.409C188.96 109.351 188.873 109.289 188.795 109.208C188.718 109.132 188.65 109.046 188.592 108.95C188.534 108.859 188.495 108.754 188.462 108.649C188.433 108.539 188.413 108.429 188.413 108.31" fill="black"/>
</svg>
