<svg width="210" height="210" viewBox="0 0 210 210" fill="none" xmlns="http://www.w3.org/2000/svg">
<g clip-path="url(#clip0_7069_1122)">
<path d="M68.627 114.878C68.627 114.238 68.297 113.728 67.647 113.488C67.327 113.378 66.517 113.218 65.907 113.148C65.667 113.118 65.187 113.048 65.187 112.618C65.187 112.348 65.467 112.018 66.027 112.018C66.387 112.018 66.747 112.158 66.947 112.268C67.167 112.398 67.337 112.548 67.507 112.728L68.557 111.978C68.067 111.538 67.357 110.898 66.047 110.898C65.067 110.898 63.767 111.338 63.767 112.798C63.767 114.018 64.947 114.268 65.297 114.348C65.597 114.408 65.917 114.448 66.227 114.488C66.647 114.548 67.217 114.618 67.217 115.068C67.217 115.458 66.737 115.728 66.167 115.728C65.837 115.728 65.457 115.658 65.077 115.458C64.797 115.308 64.677 115.178 64.537 115.018L63.457 115.698C63.807 116.108 64.447 116.848 66.047 116.848C66.847 116.848 67.667 116.678 68.177 116.088C68.477 115.738 68.627 115.288 68.627 114.878Z" fill="#A30046"/>
<path d="M44.3269 111.028H43.1069V111.988H44.3269V111.028Z" fill="#A30046"/>
<path d="M36.3668 111.038L34.2568 116.718H35.7668L36.0468 115.808H38.1368L38.4168 116.718H39.9268L37.8368 111.038H36.3568H36.3668ZM36.3868 114.788C36.5168 114.358 36.7368 113.698 36.8568 113.268C36.9368 112.978 37.0168 112.678 37.0868 112.388L37.8268 114.788H36.3868Z" fill="#A30046"/>
<path d="M70.467 111.299H69.237V112.599H68.627V113.359H69.237V115.389C69.237 115.789 69.237 116.089 69.407 116.339C69.667 116.729 70.137 116.749 70.567 116.749C70.787 116.749 70.947 116.729 71.217 116.689V115.719L70.777 115.739C70.447 115.739 70.447 115.519 70.457 115.259V113.369H71.277V112.609H70.467V111.299Z" fill="#A30046"/>
<path d="M77.3371 111.299H76.1071V112.599H75.4971V113.359H76.1071V115.389C76.1071 115.789 76.1071 116.089 76.2771 116.339C76.5371 116.729 77.0071 116.749 77.4371 116.749C77.6571 116.749 77.8171 116.729 78.0871 116.689V115.719L77.6471 115.739C77.3171 115.739 77.3171 115.519 77.3271 115.259V113.369H78.1471V112.609H77.3371V111.299Z" fill="#A30046"/>
<path d="M80.5369 115.919C79.8769 115.919 79.5769 115.399 79.5869 114.869H82.5869C82.5669 114.389 82.5369 113.569 81.9969 112.989C81.4569 112.409 80.7369 112.389 80.4869 112.389C78.8369 112.389 78.3369 113.689 78.3369 114.709C78.3369 116.089 79.2069 116.879 80.4569 116.879C81.1269 116.879 81.6769 116.619 82.0369 116.279C82.2569 116.079 82.3969 115.869 82.5469 115.649L81.6169 115.169C81.4669 115.469 81.2269 115.909 80.5569 115.909L80.5369 115.919ZM79.8369 113.539C79.9569 113.409 80.1669 113.269 80.4669 113.269C80.6769 113.269 80.9169 113.349 81.0669 113.499C81.2369 113.679 81.2769 113.919 81.2969 114.099H79.5869C79.6269 113.919 79.6669 113.729 79.8369 113.539Z" fill="#A30046"/>
<path d="M58.9069 114.348C58.5669 114.488 58.0269 114.878 58.0269 115.558C58.0269 116.148 58.4369 116.838 59.4069 116.838C60.0269 116.838 60.3769 116.568 60.6869 116.338V116.728H61.8969C61.8069 116.588 61.7769 116.518 61.7769 116.068V113.618C61.7769 112.528 60.5369 112.408 60.0169 112.408C59.4969 112.408 59.0269 112.468 58.6369 112.778C58.2669 113.078 58.2269 113.418 58.1969 113.708H59.4369C59.4669 113.558 59.5369 113.218 60.0869 113.218C60.5269 113.218 60.5469 113.538 60.5569 113.728V113.958C60.0369 114.058 59.2369 114.198 58.8969 114.348H58.9069ZM60.5669 114.708C60.5669 115.138 60.5469 115.528 60.1369 115.788C60.0069 115.868 59.8669 115.928 59.7169 115.928C59.4269 115.928 59.2469 115.698 59.2469 115.498C59.2469 115.178 59.5669 115.058 59.7769 114.978L60.5669 114.708Z" fill="#A30046"/>
<path d="M75.2471 113.608C75.2471 112.518 74.007 112.398 73.487 112.398C72.967 112.398 72.497 112.458 72.107 112.768C71.727 113.068 71.687 113.408 71.667 113.698H72.897C72.927 113.548 72.9971 113.208 73.5471 113.208C73.9871 113.208 74.007 113.528 74.017 113.718V113.948C73.497 114.048 72.697 114.188 72.357 114.338C72.017 114.478 71.4771 114.868 71.4771 115.548C71.4771 116.138 71.887 116.828 72.847 116.828C73.467 116.828 73.8171 116.558 74.1371 116.328V116.718H75.347C75.257 116.578 75.2271 116.508 75.2271 116.058V113.608H75.2471ZM73.597 115.778C73.467 115.858 73.3271 115.918 73.1771 115.918C72.8871 115.918 72.7071 115.688 72.7071 115.488C72.7071 115.168 73.027 115.048 73.237 114.968L74.0271 114.698C74.0171 115.128 73.997 115.518 73.597 115.778Z" fill="#A30046"/>
<path d="M55.0869 114.448C55.0869 113.928 55.0869 113.398 55.7369 113.398C55.9769 113.398 56.1969 113.498 56.2969 113.718C56.3369 113.828 56.3469 113.968 56.3469 114.348V116.718H57.5769V113.848C57.5769 113.198 57.4669 112.818 57.0269 112.588C56.8069 112.468 56.5269 112.418 56.2769 112.418C55.9869 112.418 55.7069 112.488 55.5169 112.568C55.3069 112.668 55.2269 112.768 55.1069 112.898V112.528H53.8569V116.728H55.0969V114.458L55.0869 114.448Z" fill="#A30046"/>
<path d="M41.4971 114.349C41.4971 113.819 41.6771 113.729 42.2671 113.629L42.6771 113.569V112.479C42.0371 112.539 41.7371 112.729 41.4571 112.959V112.519H40.2471V116.729H41.4871V114.359L41.4971 114.349Z" fill="#A30046"/>
<path d="M44.3269 112.509H43.1069V116.719H44.3269V112.509Z" fill="#A30046"/>
<path d="M48.6867 115.749H46.4567L48.6867 113.469V112.519H45.0867V113.469H47.1167L44.8467 115.789V116.719H48.6867V115.749Z" fill="#A30046"/>
<path d="M51.177 116.839C52.817 116.839 53.427 115.669 53.427 114.609C53.427 113.849 53.057 112.479 51.337 112.389C51.237 112.389 51.137 112.389 51.047 112.389C49.627 112.429 48.917 113.409 48.917 114.619C48.917 116.169 49.997 116.849 51.177 116.849V116.839ZM50.377 113.779C50.547 113.509 50.757 113.389 51.107 113.369C51.157 113.369 51.197 113.369 51.257 113.369C51.427 113.369 51.637 113.429 51.827 113.609C52.057 113.839 52.167 114.199 52.167 114.669C52.167 115.329 51.837 115.869 51.167 115.869C50.497 115.869 50.157 115.279 50.157 114.609C50.157 114.319 50.217 114.029 50.367 113.789L50.377 113.779Z" fill="#A30046"/>
<path d="M96.3367 111.448H95.1167V112.408H96.3367V111.448Z" fill="#A30046"/>
<path d="M113.497 111.448H112.277V112.408H113.497V111.448Z" fill="#A30046"/>
<path d="M88.6671 114.988C88.6671 115.428 88.6671 116.088 87.6971 116.088C87.3471 116.088 86.9571 115.998 86.7771 115.698C86.6771 115.518 86.6771 115.278 86.6771 114.988V111.448H85.2471V114.618C85.2471 115.388 85.2471 116.388 86.3371 116.958C86.7271 117.158 87.2271 117.268 87.6571 117.268C87.8971 117.268 89.1671 117.218 89.7771 116.238C90.0871 115.718 90.0971 115.178 90.1071 114.628V111.458H88.6871V114.988H88.6671Z" fill="#A30046"/>
<path d="M115.777 111.729H114.547V113.029H113.937V113.789H114.547V115.819C114.547 116.219 114.547 116.519 114.717 116.769C114.977 117.159 115.447 117.179 115.877 117.179C116.097 117.179 116.257 117.159 116.527 117.119V116.149L116.087 116.169C115.757 116.169 115.757 115.949 115.767 115.699V113.809H116.587V113.049H115.777V111.739V111.729Z" fill="#A30046"/>
<path d="M110.067 114.399C109.667 114.329 109.397 114.279 109.397 114.039C109.397 113.919 109.507 113.729 109.987 113.729C110.277 113.729 110.647 113.839 111.037 114.149L111.797 113.439C111.507 113.239 110.917 112.809 109.927 112.809C108.757 112.809 108.157 113.529 108.157 114.219C108.157 114.529 108.277 114.819 108.467 115.009C108.657 115.199 108.907 115.299 109.167 115.369C109.347 115.429 109.547 115.469 109.727 115.499C109.967 115.539 110.257 115.559 110.437 115.659C110.507 115.699 110.597 115.759 110.597 115.899C110.597 116.209 110.147 116.309 109.847 116.309C109.377 116.309 108.967 116.059 108.627 115.729L107.847 116.439C108.107 116.689 108.717 117.249 109.877 117.249C110.867 117.249 111.867 116.769 111.867 115.779C111.867 114.789 110.887 114.559 110.047 114.399H110.067Z" fill="#A30046"/>
<path d="M93.917 113.009C93.697 112.889 93.417 112.839 93.167 112.839C92.867 112.839 92.597 112.909 92.397 112.989C92.177 113.089 92.0971 113.189 91.9771 113.319V112.949H90.7271V117.139H91.967V114.869C91.967 114.349 91.9671 113.819 92.6171 113.819C92.8571 113.819 93.0771 113.919 93.1771 114.139C93.2271 114.249 93.237 114.389 93.237 114.769V117.139H94.467V114.269C94.467 113.619 94.3571 113.239 93.9071 113.009H93.917Z" fill="#A30046"/>
<path d="M107.897 112.889C107.257 112.949 106.957 113.139 106.687 113.369V112.929H105.487V117.139H106.727V114.769C106.727 114.239 106.897 114.149 107.497 114.049L107.907 113.989V112.889H107.897Z" fill="#A30046"/>
<path d="M96.3367 112.929H95.1167V117.139H96.3367V112.929Z" fill="#A30046"/>
<path d="M113.497 112.929H112.277V117.139H113.497V112.929Z" fill="#A30046"/>
<path d="M99.447 112.938L99.187 113.968C98.937 114.958 98.917 115.058 98.747 115.998C98.607 115.198 98.517 114.808 98.007 112.938H96.707L98.067 117.138H99.367L100.727 112.938H99.457H99.447Z" fill="#A30046"/>
<path d="M118.897 115.948L118.207 112.938H116.887L118.137 116.998C118.167 117.088 118.197 117.188 118.197 117.298C118.197 117.598 117.887 117.598 117.687 117.608H117.257V118.588H118.147C118.467 118.588 118.747 118.568 119.037 118.248C119.247 118.018 119.327 117.758 119.427 117.478L120.907 112.938H119.587L118.897 115.948Z" fill="#A30046"/>
<path d="M102.927 116.339C102.257 116.339 101.957 115.819 101.967 115.289H104.967C104.947 114.819 104.917 113.989 104.377 113.409C103.837 112.829 103.117 112.809 102.867 112.809C101.207 112.809 100.707 114.109 100.707 115.129C100.707 116.509 101.587 117.299 102.827 117.299C103.507 117.299 104.047 117.039 104.417 116.709C104.627 116.509 104.777 116.299 104.917 116.079L103.987 115.609C103.837 115.909 103.607 116.349 102.927 116.349V116.339ZM102.227 113.969C102.347 113.839 102.557 113.699 102.847 113.699C103.067 113.699 103.297 113.779 103.447 113.929C103.617 114.109 103.657 114.349 103.677 114.529H101.967C102.007 114.349 102.047 114.159 102.217 113.969H102.227Z" fill="#A30046"/>
<path d="M36.8367 89.5884C36.6867 89.5884 36.6267 89.6384 36.7067 89.7484C36.7067 89.7484 36.9967 90.0184 37.5167 90.6184C38.2367 91.4384 37.9567 92.5384 37.9567 92.5384L34.0967 107.968H39.7067L40.5167 104.578H45.9367L46.7767 107.968H54.1667C57.1967 107.968 59.6667 107.658 60.8867 105.768C61.7967 107.498 63.7567 108.308 67.2067 108.008C68.4067 107.908 69.5867 107.338 70.0967 106.448L70.3367 107.188C70.5367 107.638 70.9467 107.968 71.5367 107.968H77.1867C77.3367 107.968 77.3867 107.918 77.3167 107.818C77.3167 107.818 77.0167 107.478 76.5167 106.938C75.8967 106.268 75.9267 105.568 75.9267 105.568V89.5884H69.8767V102.368C69.8067 103.578 68.6167 103.888 67.9667 103.868C67.0267 103.838 66.4867 103.308 66.4867 102.408V89.5884H60.5967C60.5967 89.5884 58.1367 89.5884 56.4467 89.5884C53.2067 89.5884 50.1667 90.0884 49.1367 92.7684L48.5267 90.3884C48.3867 89.9184 47.8767 89.5884 47.3667 89.5884H36.8367ZM43.2267 93.6884L45.1067 101.238H41.3667L43.2367 93.6884H43.2267Z" fill="#A30046"/>
<path d="M60.7264 90.8286C60.7264 90.8286 60.6664 90.8486 60.6464 90.8786L58.3364 93.7286C58.3364 93.7286 57.1764 93.2386 56.0864 93.2286C55.0664 93.2286 54.3164 93.3986 53.9064 93.8086C53.6664 94.0486 53.5464 94.3486 53.5464 94.7086C53.5464 95.2086 53.8264 95.6186 54.4264 95.9986C54.9664 96.3386 55.7064 96.6186 56.4964 96.9186C57.5264 97.3086 58.6964 97.7486 59.6564 98.4086C61.4964 99.6786 61.6364 101.259 61.6364 101.259L65.1764 102.059C65.3064 102.089 65.3664 101.899 65.2464 101.849L61.7864 100.339C61.7864 100.339 61.7664 100.279 61.7964 100.279L65.6464 100.529C65.7764 100.529 65.8064 100.339 65.6764 100.309L61.9764 99.3586C61.9764 99.3586 61.9464 99.2986 61.9764 99.2986L65.8164 98.9386C65.9464 98.9286 65.9464 98.7286 65.8164 98.7186L61.9764 98.3586C61.9764 98.3586 61.9364 98.3086 61.9764 98.2986L65.6764 97.3486C65.8064 97.3186 65.7764 97.1186 65.6464 97.1286L61.7964 97.3786C61.7964 97.3786 61.7464 97.3386 61.7864 97.3186L65.2464 95.8086C65.3664 95.7586 65.3064 95.5686 65.1764 95.5986L61.4164 96.4486C61.4164 96.4486 61.3664 96.4086 61.3964 96.3986L64.5064 94.3686C64.6164 94.2986 64.5264 94.1186 64.4064 94.1686L60.8764 95.5886C60.8764 95.5886 60.8164 95.5586 60.8464 95.5386L63.5164 93.0686C63.6164 92.9686 63.4964 92.8086 63.3764 92.8886L60.1764 94.8386C60.1764 94.8386 60.1164 94.8186 60.1364 94.7986L62.2864 91.9386C62.3664 91.8286 62.2264 91.6886 62.1164 91.7786L59.3264 94.2086C59.3264 94.2086 59.2664 94.2086 59.2764 94.1686L60.8464 91.0086C60.8964 90.9086 60.8064 90.8286 60.7264 90.8386V90.8286ZM47.8864 92.8686C47.8064 92.8886 47.7564 92.9986 47.8364 93.0686L48.8864 94.0486C48.9064 93.8886 48.9464 93.6686 48.9864 93.4986L47.9764 92.8786C47.9764 92.8786 47.9164 92.8586 47.8864 92.8686ZM46.8464 94.1786C46.7764 94.2086 46.7464 94.3186 46.8264 94.3786L48.8664 95.7086C48.8464 95.4786 48.8364 95.1686 48.8364 94.9486L46.9364 94.1886C46.9364 94.1886 46.8764 94.1786 46.8464 94.1886V94.1786ZM46.1664 95.6086C46.0364 95.5786 45.9764 95.7686 46.0964 95.8186L49.3064 97.2186C49.1664 96.9386 49.0364 96.5786 48.9664 96.2386L46.1664 95.6086ZM45.6964 97.1386C45.5664 97.1386 45.5264 97.3186 45.6564 97.3586L49.3664 98.3086C49.3664 98.3086 49.3964 98.3586 49.3664 98.3686L45.5164 98.7286C45.3864 98.7386 45.3864 98.9386 45.5164 98.9486L49.3564 99.3086C49.3564 99.3086 49.3964 99.3586 49.3564 99.3686L45.6564 100.319C45.5264 100.349 45.5564 100.539 45.6964 100.539L49.5464 100.289C49.5464 100.289 49.5864 100.339 49.5564 100.349L46.0964 101.859C45.9764 101.909 46.0364 102.099 46.1664 102.069L49.9064 101.229C49.9064 101.229 49.9664 101.269 49.9364 101.289L46.8364 103.309C46.7264 103.379 46.8164 103.559 46.9364 103.509L50.4564 102.099C50.4564 102.099 50.5164 102.129 50.4964 102.149L47.8364 104.619C47.7364 104.709 47.8564 104.869 47.9764 104.799L51.1664 102.859C51.1664 102.859 51.2364 102.879 51.2164 102.909L49.0764 105.749C48.9964 105.859 49.1464 105.999 49.2464 105.909L51.9964 103.509C51.9964 103.509 52.0764 103.509 52.0564 103.549L50.5064 106.669C50.4464 106.799 50.6164 106.909 50.7064 106.799L52.9764 103.989C52.9764 103.989 53.6164 104.309 54.2364 104.359C55.3264 104.459 56.3164 104.219 56.8564 103.729C57.1364 103.469 57.2764 103.159 57.2764 102.809C57.2764 101.489 55.8064 100.989 54.1064 100.399C52.3564 99.7886 50.3564 99.0986 49.4164 97.3686L45.7164 97.1286L45.6964 97.1386ZM61.6764 101.439C61.7464 101.789 61.7364 102.419 61.7364 102.419L64.4064 103.499C64.5364 103.549 64.6264 103.369 64.5064 103.299L61.6664 101.449L61.6764 101.439ZM61.7164 102.929C61.7064 103.209 61.6364 103.719 61.6364 103.719L63.3864 104.779C63.5064 104.849 63.6264 104.689 63.5264 104.599L61.7164 102.919V102.929ZM61.4364 104.609C61.3664 104.829 61.2464 105.139 61.2464 105.139L62.1164 105.899C62.2264 105.989 62.3764 105.849 62.2864 105.739L61.4364 104.609Z" fill="#FFC425"/>
<path d="M79.3664 94.7386L80.7664 94.5986C80.8464 95.0686 81.0164 95.4086 81.2764 95.6286C81.5364 95.8486 81.8764 95.9586 82.3164 95.9586C82.7764 95.9586 83.1264 95.8586 83.3664 95.6686C83.5964 95.4686 83.7164 95.2486 83.7164 94.9786C83.7164 94.8086 83.6664 94.6686 83.5664 94.5486C83.4664 94.4286 83.2964 94.3286 83.0464 94.2386C82.8764 94.1786 82.4964 94.0786 81.8964 93.9286C81.1264 93.7386 80.5864 93.4986 80.2764 93.2286C79.8364 92.8386 79.6164 92.3586 79.6164 91.7986C79.6164 91.4386 79.7164 91.0986 79.9264 90.7786C80.1364 90.4586 80.4264 90.2186 80.8164 90.0586C81.2064 89.8986 81.6664 89.8086 82.2164 89.8086C83.1064 89.8086 83.7864 90.0086 84.2364 90.3986C84.6864 90.7886 84.9264 91.3086 84.9464 91.9686L83.5064 92.0286C83.4464 91.6586 83.3164 91.3986 83.1064 91.2386C82.8964 91.0786 82.5964 90.9986 82.1964 90.9986C81.7964 90.9986 81.4564 91.0886 81.2164 91.2586C81.0664 91.3686 80.9864 91.5186 80.9864 91.6986C80.9864 91.8686 81.0564 92.0086 81.1964 92.1286C81.3764 92.2786 81.8164 92.4386 82.5164 92.6086C83.2164 92.7786 83.7364 92.9486 84.0664 93.1186C84.3964 93.2886 84.6664 93.5386 84.8564 93.8386C85.0464 94.1386 85.1364 94.5186 85.1364 94.9686C85.1364 95.3786 85.0264 95.7586 84.7964 96.1186C84.5664 96.4786 84.2464 96.7386 83.8364 96.9086C83.4264 97.0786 82.9064 97.1686 82.2864 97.1686C81.3864 97.1686 80.6964 96.9586 80.2164 96.5486C79.7364 96.1286 79.4464 95.5286 79.3564 94.7286L79.3664 94.7386Z" fill="black"/>
<path d="M90.8467 93.4286L89.5067 93.6686C89.4667 93.3986 89.3567 93.1986 89.1967 93.0586C89.0367 92.9186 88.8267 92.8586 88.5767 92.8586C88.2367 92.8586 87.9667 92.9786 87.7667 93.2086C87.5667 93.4386 87.4667 93.8386 87.4667 94.3886C87.4667 94.9986 87.5667 95.4286 87.7767 95.6886C87.9867 95.9386 88.2567 96.0686 88.6067 96.0686C88.8667 96.0686 89.0767 95.9986 89.2467 95.8486C89.4167 95.6986 89.5267 95.4486 89.5967 95.0886L90.9367 95.3186C90.7967 95.9286 90.5267 96.3986 90.1367 96.7086C89.7467 97.0186 89.2167 97.1786 88.5467 97.1786C87.7967 97.1786 87.1967 96.9386 86.7467 96.4686C86.2967 95.9886 86.0767 95.3386 86.0767 94.4886C86.0767 93.6386 86.3067 92.9786 86.7467 92.4986C87.1967 92.0286 87.8067 91.7886 88.5767 91.7886C89.2067 91.7886 89.7067 91.9286 90.0767 92.1986C90.4467 92.4686 90.7167 92.8786 90.8767 93.4386L90.8467 93.4286Z" fill="black"/>
<path d="M93.2367 89.9385V92.5585C93.6767 92.0485 94.2067 91.7885 94.8167 91.7885C95.1267 91.7885 95.4167 91.8485 95.6667 91.9585C95.9167 92.0785 96.1067 92.2285 96.2367 92.4085C96.3667 92.5885 96.4467 92.7885 96.4967 93.0085C96.5467 93.2285 96.5667 93.5685 96.5667 94.0285V97.0485H95.2067V94.3285C95.2067 93.7885 95.1767 93.4485 95.1267 93.2985C95.0767 93.1485 94.9867 93.0385 94.8567 92.9485C94.7267 92.8585 94.5567 92.8185 94.3667 92.8185C94.1367 92.8185 93.9367 92.8785 93.7567 92.9885C93.5767 93.0985 93.4467 93.2685 93.3667 93.4885C93.2867 93.7085 93.2467 94.0385 93.2467 94.4685V97.0485H91.8867V89.9385H93.2467H93.2367Z" fill="black"/>
<path d="M97.6367 94.4088C97.6367 93.9588 97.7467 93.5188 97.9667 93.0988C98.1867 92.6788 98.5067 92.3488 98.9167 92.1288C99.3267 91.9088 99.7867 91.7988 100.287 91.7988C101.067 91.7988 101.707 92.0488 102.207 92.5588C102.707 93.0688 102.957 93.7088 102.957 94.4788C102.957 95.2488 102.707 95.9088 102.207 96.4188C101.707 96.9288 101.067 97.1888 100.307 97.1888C99.8367 97.1888 99.3867 97.0788 98.9567 96.8688C98.5267 96.6588 98.2067 96.3388 97.9767 95.9288C97.7567 95.5188 97.6467 95.0188 97.6467 94.4188L97.6367 94.4088ZM99.0367 94.4788C99.0367 94.9888 99.1567 95.3788 99.3967 95.6488C99.6367 95.9188 99.9367 96.0588 100.297 96.0588C100.657 96.0588 100.947 95.9188 101.197 95.6488C101.437 95.3788 101.557 94.9788 101.557 94.4688C101.557 93.9588 101.437 93.5788 101.197 93.2988C100.957 93.0288 100.657 92.8888 100.297 92.8888C99.9367 92.8888 99.6367 93.0288 99.3967 93.2988C99.1567 93.5688 99.0367 93.9588 99.0367 94.4688V94.4788Z" fill="black"/>
<path d="M103.707 94.4088C103.707 93.9588 103.817 93.5188 104.037 93.0988C104.257 92.6788 104.577 92.3488 104.987 92.1288C105.397 91.9088 105.857 91.7988 106.357 91.7988C107.137 91.7988 107.777 92.0488 108.277 92.5588C108.777 93.0688 109.027 93.7088 109.027 94.4788C109.027 95.2488 108.777 95.9088 108.277 96.4188C107.777 96.9288 107.137 97.1888 106.377 97.1888C105.907 97.1888 105.457 97.0788 105.027 96.8688C104.597 96.6588 104.277 96.3388 104.047 95.9288C103.827 95.5188 103.717 95.0188 103.717 94.4188L103.707 94.4088ZM105.107 94.4788C105.107 94.9888 105.227 95.3788 105.467 95.6488C105.707 95.9188 106.007 96.0588 106.367 96.0588C106.727 96.0588 107.017 95.9188 107.267 95.6488C107.507 95.3788 107.627 94.9788 107.627 94.4688C107.627 93.9588 107.507 93.5788 107.267 93.2988C107.027 93.0288 106.727 92.8888 106.367 92.8888C106.007 92.8888 105.707 93.0288 105.467 93.2988C105.227 93.5688 105.107 93.9588 105.107 94.4688V94.4788Z" fill="black"/>
<path d="M110.097 97.0585V89.9385H111.457V97.0585H110.097Z" fill="black"/>
<path d="M115.307 94.4088C115.307 93.9588 115.417 93.5188 115.637 93.0988C115.857 92.6788 116.177 92.3488 116.587 92.1288C116.997 91.9088 117.457 91.7988 117.957 91.7988C118.737 91.7988 119.377 92.0488 119.877 92.5588C120.377 93.0688 120.627 93.7088 120.627 94.4788C120.627 95.2488 120.377 95.9088 119.877 96.4188C119.377 96.9288 118.737 97.1888 117.977 97.1888C117.507 97.1888 117.057 97.0788 116.627 96.8688C116.197 96.6588 115.877 96.3388 115.647 95.9288C115.427 95.5188 115.317 95.0188 115.317 94.4188L115.307 94.4088ZM116.707 94.4788C116.707 94.9888 116.827 95.3788 117.067 95.6488C117.307 95.9188 117.607 96.0588 117.967 96.0588C118.327 96.0588 118.617 95.9188 118.867 95.6488C119.107 95.3788 119.227 94.9788 119.227 94.4688C119.227 93.9588 119.107 93.5788 118.867 93.2988C118.627 93.0288 118.327 92.8888 117.967 92.8888C117.607 92.8888 117.307 93.0288 117.067 93.2988C116.827 93.5688 116.707 93.9588 116.707 94.4688V94.4788Z" fill="black"/>
<path d="M121.097 91.9086H121.857V91.5186C121.857 91.0886 121.907 90.7586 121.997 90.5486C122.087 90.3386 122.257 90.1586 122.507 90.0286C122.757 89.8986 123.067 89.8286 123.447 89.8286C123.827 89.8286 124.217 89.8886 124.587 89.9986L124.407 90.9486C124.187 90.8986 123.977 90.8686 123.777 90.8686C123.577 90.8686 123.437 90.9186 123.357 91.0086C123.277 91.0986 123.227 91.2786 123.227 91.5386V91.8986H124.247V92.9686H123.227V97.0486H121.867V92.9786H121.107V91.9086H121.097Z" fill="black"/>
<path d="M81.3366 107.059V101.149H79.2266V99.9487H84.8766V101.149H82.7666V107.059H81.3266H81.3366Z" fill="black"/>
<path d="M86.5465 107.059H85.1865V101.909H86.4565V102.639C86.6765 102.289 86.8665 102.069 87.0365 101.959C87.2065 101.849 87.4065 101.789 87.6265 101.789C87.9365 101.789 88.2365 101.869 88.5265 102.049L88.1065 103.239C87.8765 103.089 87.6665 103.019 87.4665 103.019C87.2665 103.019 87.1165 103.069 86.9765 103.179C86.8465 103.279 86.7365 103.469 86.6665 103.749C86.5865 104.019 86.5565 104.599 86.5565 105.479V107.069L86.5465 107.059Z" fill="black"/>
<path d="M90.1363 103.479L88.8963 103.259C89.0363 102.759 89.2763 102.389 89.6163 102.149C89.9563 101.909 90.4563 101.789 91.1263 101.789C91.7363 101.789 92.1863 101.859 92.4863 102.009C92.7863 102.149 92.9963 102.339 93.1163 102.559C93.2363 102.779 93.2963 103.189 93.2963 103.779V105.369C93.2863 105.819 93.2963 106.159 93.3463 106.369C93.3863 106.579 93.4663 106.819 93.5963 107.059H92.2463C92.2063 106.969 92.1663 106.839 92.1163 106.659C92.0963 106.579 92.0763 106.529 92.0663 106.499C91.8363 106.729 91.5863 106.899 91.3163 107.009C91.0463 107.119 90.7663 107.179 90.4663 107.179C89.9363 107.179 89.5163 107.039 89.2163 106.749C88.9063 106.459 88.7563 106.099 88.7563 105.659C88.7563 105.369 88.8263 105.109 88.9663 104.879C89.1063 104.649 89.2963 104.479 89.5463 104.359C89.7963 104.239 90.1563 104.129 90.6263 104.039C91.2663 103.919 91.7063 103.809 91.9563 103.709V103.569C91.9563 103.309 91.8963 103.119 91.7663 103.009C91.6363 102.899 91.3963 102.839 91.0363 102.839C90.7963 102.839 90.6063 102.889 90.4663 102.979C90.3263 103.069 90.2163 103.239 90.1363 103.479ZM91.9663 104.589C91.7963 104.649 91.5163 104.719 91.1363 104.799C90.7563 104.879 90.5063 104.959 90.3963 105.039C90.2163 105.169 90.1263 105.329 90.1263 105.519C90.1263 105.709 90.1963 105.879 90.3363 106.019C90.4763 106.159 90.6563 106.229 90.8763 106.229C91.1263 106.229 91.3563 106.149 91.5763 105.989C91.7463 105.869 91.8463 105.719 91.9063 105.539C91.9463 105.419 91.9563 105.199 91.9563 104.869V104.599L91.9663 104.589Z" fill="black"/>
<path d="M99.3267 107.059H97.9667V104.429C97.9667 103.869 97.9367 103.509 97.8767 103.349C97.8167 103.189 97.7267 103.059 97.5967 102.969C97.4667 102.879 97.3067 102.829 97.1267 102.829C96.8867 102.829 96.6767 102.899 96.4867 103.019C96.2967 103.149 96.1667 103.319 96.0967 103.529C96.0267 103.739 95.9967 104.139 95.9967 104.709V107.039H94.6367V101.889H95.9067V102.649C96.3567 102.069 96.9267 101.779 97.6067 101.779C97.9067 101.779 98.1867 101.829 98.4367 101.939C98.6867 102.049 98.8767 102.189 99.0067 102.359C99.1367 102.529 99.2267 102.719 99.2767 102.929C99.3267 103.139 99.3567 103.449 99.3567 103.849V107.049L99.3267 107.059Z" fill="black"/>
<path d="M100.236 105.589L101.606 105.379C101.666 105.649 101.786 105.849 101.956 105.979C102.126 106.109 102.386 106.189 102.706 106.189C103.056 106.189 103.326 106.129 103.506 105.999C103.626 105.909 103.686 105.789 103.686 105.639C103.686 105.539 103.656 105.449 103.586 105.379C103.516 105.319 103.366 105.259 103.126 105.199C102.026 104.959 101.326 104.739 101.036 104.529C100.626 104.249 100.426 103.859 100.426 103.369C100.426 102.919 100.606 102.549 100.956 102.239C101.306 101.939 101.856 101.779 102.596 101.779C103.336 101.779 103.826 101.889 104.166 102.119C104.506 102.349 104.746 102.689 104.876 103.139L103.586 103.379C103.526 103.179 103.426 103.029 103.276 102.919C103.126 102.809 102.906 102.759 102.616 102.759C102.256 102.759 101.996 102.809 101.846 102.909C101.746 102.979 101.686 103.069 101.686 103.189C101.686 103.289 101.726 103.369 101.826 103.439C101.946 103.529 102.376 103.659 103.096 103.819C103.816 103.979 104.326 104.189 104.616 104.429C104.906 104.669 105.046 105.009 105.046 105.439C105.046 105.909 104.846 106.319 104.456 106.659C104.066 106.999 103.476 107.169 102.706 107.169C102.006 107.169 101.446 107.029 101.036 106.739C100.626 106.449 100.356 106.069 100.236 105.579V105.589Z" fill="black"/>
<path d="M106.187 107.058V99.9385H107.547V102.498C107.967 102.018 108.467 101.778 109.047 101.778C109.677 101.778 110.197 102.008 110.607 102.458C111.017 102.908 111.227 103.568 111.227 104.418C111.227 105.268 111.017 105.978 110.597 106.448C110.177 106.918 109.667 107.158 109.067 107.158C108.777 107.158 108.487 107.088 108.197 106.938C107.907 106.788 107.667 106.578 107.457 106.288V107.048H106.187V107.058ZM107.537 104.368C107.537 104.898 107.617 105.298 107.787 105.548C108.027 105.908 108.337 106.088 108.727 106.088C109.027 106.088 109.287 105.958 109.497 105.698C109.707 105.438 109.817 105.038 109.817 104.478C109.817 103.888 109.707 103.468 109.497 103.208C109.287 102.948 109.007 102.818 108.677 102.818C108.347 102.818 108.077 102.948 107.867 103.198C107.647 103.448 107.537 103.838 107.537 104.358V104.368Z" fill="black"/>
<path d="M111.997 104.409C111.997 103.959 112.107 103.519 112.327 103.099C112.547 102.679 112.867 102.349 113.277 102.129C113.687 101.909 114.147 101.799 114.647 101.799C115.427 101.799 116.067 102.049 116.567 102.559C117.067 103.069 117.317 103.709 117.317 104.479C117.317 105.249 117.067 105.909 116.567 106.419C116.067 106.929 115.427 107.189 114.667 107.189C114.197 107.189 113.747 107.079 113.317 106.869C112.887 106.659 112.567 106.339 112.337 105.929C112.117 105.519 112.007 105.009 112.007 104.419L111.997 104.409ZM113.397 104.479C113.397 104.989 113.517 105.379 113.757 105.649C113.997 105.919 114.297 106.059 114.657 106.059C115.017 106.059 115.307 105.919 115.557 105.649C115.797 105.379 115.917 104.979 115.917 104.469C115.917 103.959 115.797 103.579 115.557 103.299C115.317 103.029 115.017 102.889 114.657 102.889C114.297 102.889 113.997 103.029 113.757 103.299C113.517 103.569 113.397 103.959 113.397 104.469V104.479Z" fill="black"/>
<path d="M119.687 107.059H118.327V101.909H119.597V102.639C119.817 102.289 120.007 102.069 120.177 101.959C120.347 101.849 120.547 101.789 120.767 101.789C121.077 101.789 121.377 101.869 121.667 102.049L121.247 103.239C121.017 103.089 120.807 103.019 120.607 103.019C120.407 103.019 120.257 103.069 120.117 103.179C119.987 103.279 119.877 103.469 119.807 103.749C119.727 104.019 119.697 104.599 119.697 105.479V107.069L119.687 107.059Z" fill="black"/>
<path d="M126.977 107.059H125.707V106.299C125.497 106.589 125.247 106.809 124.957 106.959C124.667 107.099 124.377 107.179 124.087 107.179C123.497 107.179 122.987 106.939 122.567 106.459C122.147 105.979 121.937 105.319 121.937 104.459C121.937 103.599 122.147 102.919 122.557 102.469C122.967 102.009 123.487 101.789 124.117 101.789C124.697 101.789 125.187 102.029 125.617 102.509V99.9487H126.977V107.069V107.059ZM123.337 104.369C123.337 104.919 123.417 105.319 123.567 105.559C123.787 105.919 124.097 106.089 124.487 106.089C124.797 106.089 125.067 105.959 125.287 105.689C125.507 105.419 125.617 105.019 125.617 104.489C125.617 103.899 125.507 103.469 125.297 103.209C125.087 102.949 124.807 102.819 124.477 102.819C124.147 102.819 123.887 102.949 123.667 103.209C123.447 103.469 123.337 103.849 123.337 104.359V104.369Z" fill="black"/>
<path d="M131.307 105.419L132.667 105.649C132.497 106.149 132.217 106.529 131.837 106.789C131.457 107.049 130.987 107.179 130.427 107.179C129.527 107.179 128.867 106.889 128.437 106.299C128.097 105.829 127.927 105.239 127.927 104.519C127.927 103.669 128.147 102.999 128.597 102.509C129.047 102.029 129.607 101.779 130.287 101.779C131.057 101.779 131.657 102.029 132.107 102.539C132.547 103.049 132.767 103.819 132.747 104.869H129.327C129.327 105.269 129.447 105.589 129.657 105.809C129.867 106.039 130.127 106.149 130.447 106.149C130.657 106.149 130.837 106.089 130.987 105.979C131.137 105.859 131.247 105.679 131.317 105.419H131.307ZM131.387 104.039C131.387 103.649 131.277 103.339 131.077 103.139C130.887 102.929 130.647 102.829 130.367 102.829C130.067 102.829 129.827 102.939 129.627 103.159C129.437 103.379 129.337 103.669 129.337 104.039H131.377H131.387Z" fill="black"/>
<path d="M135.156 107.059H133.796V101.909H135.066V102.639C135.286 102.289 135.476 102.069 135.646 101.959C135.816 101.849 136.016 101.789 136.236 101.789C136.546 101.789 136.846 101.869 137.136 102.049L136.716 103.239C136.486 103.089 136.276 103.019 136.076 103.019C135.876 103.019 135.726 103.069 135.586 103.179C135.456 103.279 135.346 103.469 135.276 103.749C135.196 104.019 135.166 104.599 135.166 105.479V107.069L135.156 107.059Z" fill="black"/>
<path d="M140.127 104.739L141.527 104.599C141.607 105.069 141.777 105.409 142.037 105.629C142.297 105.849 142.637 105.959 143.077 105.959C143.537 105.959 143.887 105.859 144.127 105.669C144.357 105.469 144.477 105.249 144.477 104.979C144.477 104.809 144.427 104.669 144.327 104.549C144.227 104.429 144.057 104.329 143.807 104.239C143.637 104.179 143.257 104.079 142.657 103.929C141.887 103.739 141.347 103.509 141.037 103.229C140.597 102.839 140.377 102.359 140.377 101.799C140.377 101.439 140.477 101.099 140.687 100.779C140.897 100.459 141.187 100.219 141.577 100.059C141.967 99.8986 142.427 99.8086 142.977 99.8086C143.867 99.8086 144.547 100.009 144.997 100.399C145.447 100.789 145.687 101.309 145.707 101.969L144.267 102.029C144.207 101.659 144.077 101.399 143.867 101.239C143.657 101.079 143.357 100.999 142.957 100.999C142.557 100.999 142.217 101.089 141.977 101.259C141.827 101.369 141.747 101.519 141.747 101.699C141.747 101.869 141.817 102.009 141.957 102.129C142.137 102.279 142.577 102.439 143.277 102.609C143.977 102.769 144.497 102.939 144.827 103.119C145.157 103.299 145.427 103.539 145.617 103.839C145.807 104.139 145.897 104.519 145.897 104.969C145.897 105.379 145.787 105.759 145.557 106.119C145.327 106.479 145.007 106.739 144.597 106.909C144.187 107.079 143.667 107.169 143.047 107.169C142.147 107.169 141.457 106.959 140.977 106.549C140.497 106.129 140.207 105.529 140.117 104.729L140.127 104.739Z" fill="black"/>
<path d="M149.477 101.909V102.999H148.547V105.079C148.547 105.499 148.547 105.749 148.577 105.819C148.597 105.889 148.637 105.949 148.697 105.989C148.757 106.029 148.837 106.059 148.927 106.059C149.057 106.059 149.237 106.019 149.477 105.929L149.597 106.989C149.277 107.129 148.917 107.189 148.517 107.189C148.267 107.189 148.047 107.149 147.847 107.069C147.647 106.989 147.507 106.879 147.417 106.749C147.327 106.619 147.257 106.439 147.227 106.219C147.197 106.059 147.187 105.739 147.187 105.259V103.009H146.557V101.919H147.187V100.899L148.557 100.099V101.919H149.487L149.477 101.909Z" fill="black"/>
<path d="M153.816 107.059V106.289C153.626 106.559 153.386 106.779 153.076 106.939C152.766 107.099 152.446 107.179 152.106 107.179C151.766 107.179 151.446 107.099 151.176 106.949C150.896 106.799 150.706 106.579 150.576 106.309C150.456 106.029 150.396 105.649 150.396 105.169V101.909H151.756V104.279C151.756 104.999 151.786 105.449 151.836 105.609C151.886 105.769 151.976 105.899 152.106 105.999C152.236 106.099 152.406 106.139 152.606 106.139C152.836 106.139 153.046 106.079 153.236 105.949C153.416 105.819 153.546 105.659 153.616 105.469C153.686 105.279 153.716 104.819 153.716 104.079V101.909H155.076V107.059H153.806H153.816Z" fill="black"/>
<path d="M161.217 107.059H159.947V106.299C159.737 106.589 159.487 106.809 159.197 106.959C158.907 107.099 158.617 107.179 158.327 107.179C157.737 107.179 157.227 106.939 156.807 106.459C156.387 105.979 156.177 105.319 156.177 104.459C156.177 103.599 156.387 102.919 156.797 102.469C157.207 102.009 157.727 101.789 158.357 101.789C158.937 101.789 159.427 102.029 159.857 102.509V99.9487H161.217V107.069V107.059ZM157.577 104.369C157.577 104.919 157.657 105.319 157.807 105.559C158.027 105.919 158.337 106.089 158.727 106.089C159.037 106.089 159.307 105.959 159.527 105.689C159.747 105.419 159.857 105.019 159.857 104.489C159.857 103.899 159.747 103.469 159.537 103.209C159.327 102.949 159.047 102.819 158.717 102.819C158.387 102.819 158.127 102.949 157.907 103.209C157.687 103.469 157.577 103.849 157.577 104.359V104.369Z" fill="black"/>
<path d="M162.566 101.209V99.9487H163.926V101.209H162.566ZM162.566 107.059V101.909H163.926V107.059H162.566Z" fill="black"/>
<path d="M168.307 105.419L169.667 105.649C169.497 106.149 169.217 106.529 168.837 106.789C168.457 107.049 167.987 107.179 167.427 107.179C166.527 107.179 165.867 106.889 165.437 106.299C165.097 105.829 164.927 105.239 164.927 104.519C164.927 103.669 165.147 102.999 165.597 102.509C166.047 102.029 166.607 101.779 167.287 101.779C168.057 101.779 168.657 102.029 169.107 102.539C169.547 103.049 169.767 103.819 169.747 104.869H166.327C166.327 105.269 166.447 105.589 166.657 105.809C166.867 106.039 167.127 106.149 167.447 106.149C167.657 106.149 167.837 106.089 167.987 105.979C168.137 105.859 168.247 105.679 168.317 105.419H168.307ZM168.387 104.039C168.387 103.649 168.277 103.339 168.077 103.139C167.887 102.929 167.647 102.829 167.367 102.829C167.067 102.829 166.827 102.939 166.627 103.159C166.437 103.379 166.337 103.669 166.337 104.039H168.377H168.387Z" fill="black"/>
<path d="M170.376 105.589L171.746 105.379C171.806 105.649 171.926 105.849 172.096 105.979C172.266 106.109 172.526 106.189 172.846 106.189C173.196 106.189 173.466 106.129 173.646 105.999C173.766 105.909 173.826 105.789 173.826 105.639C173.826 105.539 173.796 105.449 173.726 105.379C173.656 105.319 173.506 105.259 173.266 105.199C172.166 104.959 171.466 104.739 171.176 104.529C170.766 104.249 170.566 103.859 170.566 103.369C170.566 102.919 170.746 102.549 171.096 102.239C171.446 101.939 171.996 101.779 172.736 101.779C173.476 101.779 173.966 101.889 174.306 102.119C174.646 102.349 174.886 102.689 175.016 103.139L173.726 103.379C173.666 103.179 173.566 103.029 173.416 102.919C173.266 102.809 173.046 102.759 172.756 102.759C172.396 102.759 172.136 102.809 171.986 102.909C171.886 102.979 171.826 103.069 171.826 103.189C171.826 103.289 171.866 103.369 171.966 103.439C172.086 103.529 172.516 103.659 173.236 103.819C173.956 103.979 174.466 104.189 174.756 104.429C175.046 104.669 175.186 105.009 175.186 105.439C175.186 105.909 174.986 106.319 174.596 106.659C174.206 106.999 173.616 107.169 172.846 107.169C172.146 107.169 171.586 107.029 171.176 106.739C170.766 106.449 170.496 106.069 170.376 105.579V105.589Z" fill="black"/>
</g>
<defs>
<clipPath id="clip0_7069_1122">
<rect width="141.09" height="29" fill="white" transform="translate(34.0967 89.5884)"/>
</clipPath>
</defs>
</svg>
