<svg width="105" height="104" viewBox="0 0 105 104" fill="none" xmlns="http://www.w3.org/2000/svg">
<path d="M79.1466 53.5683L78.9404 53.7668L78.9635 53.8439H79.5977C79.4974 54.5302 79.4068 55.1258 79.2623 56.0876C79.056 57.5159 78.8806 58.019 78.7361 58.1424C78.6898 58.1886 78.6146 58.2118 78.5452 58.2118C78.4527 58.2118 78.3081 58.1424 78.2098 58.098C78.1173 58.0518 78.0421 58.1057 77.9959 58.152C77.9342 58.2214 77.8667 58.3274 77.8667 58.4122C77.8667 58.5645 78.0653 58.6416 78.1944 58.6416C78.339 58.6416 78.7052 58.5202 79.0348 58.1154C79.295 57.7935 79.6459 57.0533 79.9427 55.3282C79.9967 55.0082 80.0583 54.6863 80.1875 53.8478L80.9662 53.7707L81.1339 53.5722H80.2337C80.4631 52.1593 80.654 51.7333 80.9816 51.7333C81.211 51.7333 81.4018 51.8239 81.5695 51.9858C81.6235 52.0398 81.7064 52.0398 81.7835 51.9781C81.8452 51.9241 81.9358 51.8027 81.9358 51.6967C81.9435 51.5444 81.7372 51.3767 81.477 51.3767C81.0337 51.3767 80.5691 51.6369 80.2472 52.0186C79.9485 52.3771 79.7519 52.9573 79.6439 53.576H79.1485L79.1466 53.5683ZM75.7156 55.5691C75.7156 54.4396 76.2881 53.8285 76.5252 53.7302C76.5946 53.6994 76.7006 53.6685 76.7777 53.6685C77.1593 53.6685 77.381 53.9577 77.381 54.5456C77.3964 55.5383 76.8779 56.4384 76.556 56.5464C76.4943 56.5695 76.396 56.6003 76.3189 56.6003C75.891 56.6003 75.7156 56.1435 75.7156 55.5691ZM77.0205 53.3852C76.822 53.3852 76.5097 53.4758 76.1956 53.6608C75.6693 53.9731 75.0969 54.6844 75.0969 55.7522C75.0969 56.2861 75.3494 56.8817 76.0587 56.8817C76.3941 56.8817 76.876 56.6601 77.1959 56.371C77.699 55.9122 77.9978 55.1258 77.9978 54.4473C77.9978 53.8131 77.6624 53.3852 77.0205 53.3852ZM68.7726 51.8143L70.145 54.2931V56.3844L69.7132 56.8162H71.1782L70.7445 56.3844V54.2931L72.1439 51.8239L72.5949 51.3825H71.2495L71.6736 51.8065L70.5305 53.842L69.4434 51.8065L69.8674 51.3825H68.3293L68.7707 51.8143H68.7726ZM65.677 56.3825V51.7853H66.7082L67.2884 52.3655V51.3806H63.4661V52.3655L64.0559 51.7853H65.0775V56.3825L64.6535 56.8143H66.1087L65.675 56.3825H65.677ZM60.5189 51.3806L60.9506 51.8123V56.3806L60.5189 56.8124H61.9838L61.552 56.3806V51.8123L61.9838 51.3806H60.5189ZM58.7128 55.305C58.7128 54.7711 58.4641 54.4396 58.2058 54.2642L57.1014 53.4623C56.7043 53.177 56.5019 52.8089 56.5019 52.5313C56.5019 51.9607 56.9896 51.7584 57.2845 51.7584C57.4406 51.7584 57.5524 51.822 57.6334 51.822L58.1133 52.3385L58.6203 51.5829L57.5428 51.3806C57.4695 51.3613 57.4233 51.3536 57.2845 51.3536C56.3361 51.3536 55.9024 52.1651 55.9024 52.6894C55.9024 53.1038 56.1145 53.5741 56.6021 53.9326L57.7162 54.7345C58.0208 54.9465 58.1037 55.2588 58.1037 55.5267C58.1037 55.9874 57.8184 56.4847 57.2016 56.4847C57.0551 56.4847 56.9259 56.4558 56.8238 56.4114L56.3072 55.8043L55.8369 56.6524L56.8778 56.8548C56.8778 56.8548 57.0532 56.8914 57.1997 56.8914C57.8531 56.8914 58.7108 56.3382 58.7108 55.3069M51.498 51.7892H52.1611C52.7413 51.7892 53.2019 52.2865 53.2019 52.8763C53.2019 53.4662 52.7316 53.8806 52.1611 53.8806H51.498V51.7892ZM51.498 56.3864V54.2854H52.3172L53.6356 56.8181H54.5377L54.1137 56.3864L52.8974 54.1562C53.5046 53.9712 53.919 53.4006 53.919 52.886C53.919 51.9646 53.0612 51.3844 52.1591 51.3844H50.4745L50.8985 51.8162V56.3844L50.4745 56.8162H51.9298L51.498 56.3844V56.3864ZM48.8264 56.8181V55.8235L48.2462 56.4134H46.5982V54.1292H47.8241L48.2578 54.5629V53.2927L47.8241 53.7264H46.5982V51.7911H48.2462L48.8264 52.3713V51.3863H45.5747L45.9987 51.8181V56.3864L45.5747 56.8181H48.8264ZM41.55 51.3844H40.0118L40.4532 51.8162L41.9817 56.8181H42.2574L43.8322 51.8162L44.2736 51.3844H42.9648L43.3888 51.8085L42.2381 55.5672L41.124 51.8085L41.548 51.3844H41.55ZM37.1012 51.3844L37.533 51.8162V56.3844L37.1012 56.8162H38.5642L38.1324 56.3844V51.8162L38.5642 51.3844H37.1012ZM31.814 56.3497V52.2788L34.7419 56.8297H34.9173V51.8547L35.3876 51.3844H33.969L34.4393 51.8547V55.3089L31.9894 51.3844H30.8656L31.3263 51.8547V56.3497L30.8656 56.8201H32.2843L31.814 56.3497ZM25.4666 55.3648C25.4666 56.2572 26.2222 56.9396 27.1532 56.9396C28.0842 56.9396 28.913 56.2861 28.913 55.3648V51.8547L29.3737 51.3844H27.955L28.4254 51.8547V55.3648C28.4254 55.9912 27.9281 56.4885 27.3016 56.4885C26.6752 56.4885 26.1046 56.0009 26.1046 55.3648V51.8547L26.5749 51.3844H25.0001L25.4704 51.8547V55.3648H25.4666Z" fill="#332A86"/>
<path d="M80.9219 67.5198V62.0476L84.7866 68.154H85.0931V61.477L85.7253 60.8448H83.819L84.4512 61.477V66.1204L81.159 60.8467H79.6478L80.2665 61.4789V67.5198L79.6478 68.1521H81.5541L80.9219 67.5198ZM75.3609 67.755C73.8999 67.755 73.3929 66.0086 73.3929 64.4994C73.3929 62.9901 73.9018 61.2418 75.3609 61.2418C76.8201 61.2418 77.3424 62.9882 77.3424 64.4994C77.3424 66.0106 76.8355 67.755 75.3609 67.755ZM72.4388 64.4994C72.4388 66.3556 73.4912 68.3121 75.3609 68.3121C77.2306 68.3121 78.2946 66.3556 78.2946 64.4994C78.2946 62.6432 77.2422 60.6867 75.3609 60.6867C73.4797 60.6867 72.4388 62.6432 72.4388 64.4994ZM69.5378 67.57V61.3922H70.9237L71.7044 62.1728V60.8486H66.5656V62.1728L67.3578 61.3922H68.7321V67.57L68.1635 68.1521H70.1199L69.5378 67.57ZM64.212 64.8348V67.1864C64.0386 67.3598 63.6916 67.7068 63.0112 67.7068C61.3901 67.7068 60.5729 66.0723 60.5729 64.5013C60.5729 62.9304 61.6002 61.2939 63.0112 61.2939C63.3832 61.2939 63.655 61.3806 63.9017 61.6408L64.7074 62.4331V61.1705C64.2737 60.9469 63.84 60.7503 63.0112 60.7503C61.0181 60.7503 59.6187 62.5333 59.6187 64.5013C59.6187 66.4693 61.0181 68.2523 63.0112 68.2523C64.1369 68.2523 64.6207 67.9805 65.0158 67.7203V64.8367L65.5845 64.2546H63.628L64.2101 64.8367L64.212 64.8348ZM53.7841 67.5218V62.0495L57.6681 68.1501H57.9553V61.4809L58.5856 60.8486H56.6792L57.3095 61.4809V66.1243L54.0173 60.8505H52.5061L53.1248 61.4828V67.5237L52.5061 68.1559H54.4124L53.7802 67.5237L53.7841 67.5218ZM42.1128 64.4878H45.1834V67.57L44.6013 68.1521H46.5693L45.9872 67.57V61.4288L46.5693 60.8467H44.6013L45.1834 61.4288V63.9423H42.1128V61.4288L42.6949 60.8467H40.7385L41.3071 61.4288V67.57L40.7385 68.1521H42.6949L42.1128 67.57V64.4878ZM39.0056 66.1224C39.0056 65.4034 38.6702 64.9581 38.3252 64.723L36.8391 63.6455C36.3071 63.2619 36.0334 62.7665 36.0334 62.3945C36.0334 61.6273 36.6887 61.3536 37.0858 61.3536C37.2959 61.3536 37.4443 61.4404 37.5561 61.4404L38.1999 62.1343L38.8803 61.1185L37.4308 60.8467C37.3325 60.8216 37.2708 60.8101 37.0839 60.8101C35.8078 60.8101 35.2276 61.8991 35.2276 62.6046C35.2276 63.1617 35.5129 63.7939 36.1683 64.2758L37.666 65.3533C38.0746 65.6386 38.1864 66.0588 38.1864 66.4173C38.1864 67.036 37.8028 67.7049 36.974 67.7049C36.7755 67.7049 36.602 67.6683 36.4671 67.6046L35.7731 66.7874L35.1428 67.9265L36.5422 68.1983C36.5422 68.1983 36.7774 68.2484 36.9759 68.2484C37.8549 68.2484 39.0056 67.5063 39.0056 66.1185M31.0198 62.4658L32.0221 65.4863H29.979L31.0179 62.4658H31.0198ZM29.2619 67.5796L29.7939 66.0318H32.2072L32.7141 67.5796L32.1436 68.1482H34.2118L33.6297 67.5545L31.3514 60.8448H30.9793L28.6644 67.5545L28.0707 68.1482H29.8286L29.26 67.5796H29.2619ZM22.0009 68.1482L23.672 62.8629L25.2931 68.1482H25.6651L27.7816 61.425L28.3752 60.8428H26.6173L27.186 61.4115L25.6381 66.4635L24.1404 61.4115L24.7091 60.8428H22.6408L23.2229 61.425L23.3714 61.9068L21.972 66.4635L20.4743 61.4115L21.0429 60.8428H18.9766L19.5702 61.425L21.625 68.1482H22.0009Z" fill="#332A86"/>
<path d="M48.5373 60.8467L49.1194 61.4288V67.568L48.5373 68.1501H50.5053L49.9232 67.568V61.4288L50.5053 60.8467H48.5373Z" fill="#332A86"/>
<path d="M44.2793 35.4282V37.2825H45.4551L47.5156 45.5632H50.4069L51.7813 40.382L53.0978 45.5632H55.991L58.1653 37.2825H59.2832V35.4282H55.3029V37.2825H56.6194L55.1891 42.6719L53.4139 35.4282H51.5808L49.634 42.7297L48.2307 37.2825H49.6629V35.4282H44.2793Z" fill="#332A86"/>
</svg>
