<svg width="104" height="104" viewBox="0 0 104 104" fill="none" xmlns="http://www.w3.org/2000/svg">
<path d="M21.4648 68.2401V67.8539C21.8449 67.8251 22.0996 67.7348 22.2331 67.5869C22.3666 67.4369 22.4323 67.1411 22.4323 66.6995V62.4433C22.3728 62.3365 22.2783 62.2564 22.1633 62.2153C21.9866 62.166 21.8017 62.1475 21.6189 62.1578H21.4648V61.7387H23.2273L26.8159 66.6502V63.2855C26.8159 62.8151 26.7419 62.507 26.5961 62.3591C26.4482 62.2112 26.1647 62.1352 25.7416 62.129V61.7408H28.2661V62.129C27.884 62.1475 27.6252 62.2338 27.4876 62.3858C27.35 62.5378 27.2801 62.8397 27.2801 63.2855V68.4147H26.9145L22.9027 62.9322V66.6995C22.9027 67.1575 22.9787 67.4657 23.1308 67.6197C23.2828 67.7738 23.5642 67.8518 23.973 67.8539V68.2401H21.4648Z" fill="#EF404E"/>
<path d="M29.5068 66.2189V66.3996C29.4862 66.794 29.6012 67.1823 29.8334 67.5007C30.0449 67.7677 30.3695 67.9176 30.7105 67.9053C31.0042 67.9115 31.2918 67.8252 31.5363 67.6629C31.7971 67.476 32.0067 67.2233 32.1422 66.9317L32.4586 67.1124C32.2942 67.4965 32.0272 67.8252 31.6862 68.0655C31.3514 68.2833 30.957 68.3942 30.5564 68.386C30.0182 68.4045 29.4985 68.1765 29.1452 67.7697C28.4201 66.8146 28.4201 65.4938 29.1452 64.5386C29.4985 64.1298 30.0162 63.9018 30.5564 63.9203C31.0823 63.8936 31.5917 64.1052 31.9471 64.4913C32.284 64.8734 32.4524 65.3931 32.4524 66.0545V66.223H29.5068V66.2189ZM31.1932 65.8327C31.2836 65.843 31.3719 65.8204 31.4479 65.7711C31.4972 65.7074 31.5219 65.6252 31.5116 65.5451C31.5342 65.2144 31.4479 64.8837 31.2651 64.6064C31.0967 64.3866 30.8317 64.2654 30.5544 64.2798C30.2483 64.2633 29.9587 64.4092 29.7882 64.6639C29.6177 64.9206 29.5273 65.3109 29.5191 65.8327H31.1932Z" fill="#EF404E"/>
<path d="M34.7839 64.0661V64.444L34.599 64.4605C34.5189 64.4605 34.4408 64.481 34.371 64.52C34.3258 64.5488 34.3012 64.5981 34.3012 64.6494C34.3053 64.6987 34.3196 64.746 34.3402 64.7912C34.3463 64.8035 34.3504 64.8138 34.3546 64.8261L35.2235 67.0425L36.0164 64.937L35.9814 64.8056C35.9568 64.6926 35.889 64.5919 35.7945 64.5262C35.6692 64.4646 35.5295 64.4358 35.3898 64.4461H35.3303V64.0681H37.3105V64.4461L37.027 64.4625C36.9572 64.4625 36.8894 64.481 36.8277 64.5139C36.7846 64.5467 36.762 64.5981 36.7661 64.6494C36.7661 64.6864 36.7743 64.7213 36.7867 64.7563C36.801 64.7994 36.8195 64.861 36.8503 64.937L37.6597 67.024L38.3334 65.1137C38.3396 65.0993 38.3458 65.0849 38.3499 65.0705C38.393 64.9678 38.4177 64.859 38.4259 64.7501C38.4279 64.6618 38.3848 64.5775 38.3088 64.5282C38.2122 64.4687 38.0993 64.4399 37.9863 64.4481H37.9226V64.0702H39.5557V64.444C39.3913 64.4481 39.2311 64.5077 39.1037 64.6125C38.9661 64.7419 38.8634 64.9042 38.8059 65.0829L37.6186 68.3818H37.3187L36.2444 65.4937L35.1824 68.3818H34.901L33.4959 64.8014C33.459 64.6885 33.3871 64.5919 33.2905 64.5241C33.1755 64.4625 33.0481 64.4338 32.9187 64.4399V64.062H34.7839V64.0681V64.0661Z" fill="#EF404E"/>
<path d="M44.5227 62.5871C44.535 62.468 44.5022 62.3468 44.4303 62.2502C44.3194 62.1763 44.1838 62.1434 44.0523 62.1598H43.5347V61.7326H46.4783V62.1557H46.0079C45.8743 62.1393 45.7388 62.1722 45.6258 62.2461C45.5518 62.3427 45.519 62.4618 45.5313 62.583V66.2517C45.5313 66.9789 45.367 67.5191 45.0404 67.8724C44.7137 68.2237 44.2084 68.4003 43.5265 68.4003C43.0519 68.425 42.5836 68.2668 42.22 67.9587C41.8934 67.6608 41.7147 67.2336 41.7332 66.7919C41.7229 66.5044 41.8112 66.2209 41.9858 65.9908C42.1358 65.7895 42.372 65.6724 42.6226 65.6745C42.8096 65.6663 42.9924 65.7341 43.1279 65.8614C43.3724 66.1408 43.3827 66.5557 43.1485 66.8433C43.0273 66.9665 42.8589 67.0302 42.6884 67.022C42.6165 67.022 42.5446 67.0138 42.4727 67.0015L42.3453 66.9809C42.3125 66.9809 42.2816 66.9933 42.2611 67.0179C42.2385 67.0426 42.2241 67.0754 42.2262 67.1083C42.2323 67.3383 42.3535 67.5499 42.5487 67.6711C42.7829 67.8355 43.0663 67.9197 43.3539 67.9073C43.7647 67.9073 44.0626 67.8005 44.2454 67.5869C44.4282 67.3733 44.5207 67.0261 44.5207 66.5455V62.5851H44.5248L44.5227 62.5871Z" fill="#EF404E"/>
<path d="M47.6902 66.2189V66.3996C47.6697 66.794 47.7847 67.1823 48.0168 67.5007C48.2284 67.7677 48.5529 67.9176 48.8939 67.9053C49.1877 67.9115 49.4753 67.8252 49.7197 67.6629C49.9806 67.476 50.1901 67.2233 50.3257 66.9317L50.642 67.1124C50.4777 67.4965 50.2086 67.8273 49.8676 68.0655C49.5328 68.2833 49.1384 68.3942 48.7378 68.386C48.1996 68.4045 47.6799 68.1765 47.3266 67.7697C46.6015 66.8146 46.6015 65.4938 47.3266 64.5386C47.6799 64.1298 48.1976 63.9018 48.7378 63.9203C49.2637 63.8936 49.7731 64.1052 50.1285 64.4913C50.4654 64.8734 50.6338 65.3931 50.6338 66.0545V66.223H47.6902V66.2189ZM47.7046 65.8327H49.3787C49.467 65.843 49.5574 65.8204 49.6314 65.7711C49.6807 65.7074 49.7053 65.6252 49.695 65.5451C49.7156 65.2144 49.6293 64.8837 49.4486 64.6064C49.2801 64.3886 49.0151 64.2654 48.7399 64.2798C48.4338 64.2613 48.1421 64.4071 47.9737 64.6639C47.8052 64.9206 47.7149 65.3109 47.7066 65.8327H47.7046Z" fill="#EF404E"/>
<path d="M52.7618 67.5088C52.7515 67.6012 52.772 67.6937 52.8193 67.7738C52.8891 67.8251 52.9754 67.8498 53.0617 67.8436L53.6081 67.8621V68.2401H51.2355V67.8621L51.6587 67.8436C51.745 67.8498 51.8312 67.8251 51.9011 67.7738C51.9483 67.6937 51.9689 67.6012 51.9586 67.5088V64.7706C51.973 64.6659 51.938 64.5611 51.8641 64.4872C51.7244 64.4276 51.5704 64.4029 51.4183 64.4173H51.1493V64.0661L52.7166 63.9551V65.2267C52.8213 64.8651 53.0083 64.5324 53.263 64.2571C53.4622 64.0435 53.7416 63.9223 54.0333 63.9202C54.251 63.912 54.4646 63.9901 54.6249 64.138C54.7769 64.2797 54.8611 64.4789 54.8549 64.6864C54.8611 64.8343 54.8077 64.9802 54.707 65.089C54.6105 65.1938 54.4729 65.2493 54.3311 65.2451C54.1873 65.2534 54.0477 65.2041 53.9408 65.1075C53.8422 65.0069 53.7909 64.8713 53.797 64.7316C53.797 64.6535 53.8114 64.5775 53.8463 64.5056C53.8751 64.4399 53.9223 64.3824 53.9799 64.3372H53.9265C53.6122 64.3372 53.341 64.5488 53.111 64.9719C52.8665 65.4547 52.7474 65.9908 52.7638 66.531V67.5088H52.7618Z" fill="#EF404E"/>
<path d="M55.4774 66.5886H55.804C55.8821 66.9851 56.0731 67.3507 56.3525 67.6424C56.601 67.8848 56.9379 68.0162 57.285 68.008C57.5315 68.0204 57.7739 67.9485 57.9732 67.8026C58.1416 67.6732 58.2382 67.4719 58.2299 67.2583C58.2423 67.098 58.1807 66.9399 58.0615 66.8289C57.9485 66.7304 57.6918 66.642 57.2912 66.5619C56.5538 66.4099 56.0772 66.2332 55.8636 66.0319C55.6356 65.7978 55.5164 65.4753 55.5411 65.1487C55.5246 64.82 55.6458 64.4975 55.878 64.2613C56.1245 64.0312 56.4531 63.91 56.79 63.9244C56.9995 63.9203 57.207 63.947 57.4083 64.0045C57.5952 64.0641 57.7698 64.1565 57.9259 64.2756L58.1909 63.9593H58.4682V65.4568H58.1909C58.0985 65.1199 57.9157 64.8138 57.663 64.5735C57.4371 64.3742 57.1454 64.2695 56.8434 64.2756C56.6339 64.2633 56.4244 64.3229 56.2539 64.4441C56.1101 64.5447 56.0238 64.7111 56.0259 64.8878C56.0259 65.2349 56.3853 65.4773 57.1043 65.6191L57.1536 65.6273C57.7924 65.7526 58.2217 65.9149 58.4415 66.1121C58.6736 66.3401 58.7928 66.6564 58.7702 66.981C58.7907 67.3671 58.6449 67.743 58.3676 68.0142C58.0636 68.2792 57.6671 68.4147 57.2645 68.3901C57.055 68.3901 56.8475 68.3552 56.6503 68.2833C56.4428 68.2011 56.2518 68.0881 56.0793 67.9464L55.7752 68.3778H55.4815V66.5886H55.4774Z" fill="#EF404E"/>
<path d="M60.3313 66.2189V66.3996C60.3107 66.794 60.4258 67.1823 60.6579 67.5007C60.8695 67.7677 61.194 67.9176 61.535 67.9053C61.8287 67.9115 62.1163 67.8252 62.3608 67.6629C62.6216 67.476 62.8312 67.2233 62.9667 66.9317L63.2831 67.1124C63.1187 67.4965 62.8496 67.8273 62.5087 68.0655C62.1697 68.2833 61.7712 68.3942 61.3686 68.3798C60.8304 68.3983 60.3107 68.1703 59.9574 67.7636C59.2323 66.8084 59.2323 65.4876 59.9574 64.5324C60.3107 64.1257 60.8304 63.9018 61.3686 63.9203C61.8945 63.8936 62.4039 64.1052 62.7593 64.4913C63.0961 64.8734 63.2646 65.3931 63.2646 66.0545V66.223H60.3313V66.2189ZM60.3456 65.8327H62.0198C62.1081 65.843 62.1985 65.8204 62.2724 65.7711C62.3217 65.7074 62.3464 65.6252 62.3361 65.5451C62.3567 65.2144 62.2704 64.8837 62.0896 64.6064C61.9212 64.3886 61.6562 64.2654 61.3809 64.2798C61.0749 64.2613 60.7832 64.4071 60.6147 64.6639C60.4463 64.9206 60.3559 65.3109 60.3477 65.8327H60.3456Z" fill="#EF404E"/>
<path d="M65.7419 68.1292L64.3102 64.8323C64.2794 64.7686 64.2445 64.705 64.2034 64.6474C64.1767 64.6043 64.1397 64.5694 64.0966 64.5406C64.037 64.5057 63.9733 64.4811 63.9055 64.4687C63.809 64.4502 63.7104 64.4441 63.6118 64.4461V64.0682H65.7111V64.4461H65.4872C65.3886 64.4379 65.29 64.4523 65.1955 64.4852C65.1462 64.518 65.1175 64.5756 65.1257 64.6351C65.1257 64.6618 65.1319 64.6865 65.1401 64.7132C65.1503 64.746 65.175 64.8159 65.2181 64.9186L66.1733 67.1165L67.071 64.9494C67.071 64.9494 67.0812 64.933 67.0854 64.9227C67.1059 64.8693 67.1182 64.8118 67.1203 64.7543C67.1305 64.6598 67.0812 64.5694 66.997 64.5242C66.8347 64.4687 66.6642 64.4441 66.4917 64.4523V64.0743H68.2357V64.4523C68.0919 64.4461 67.9481 64.4872 67.8289 64.5673C67.7078 64.6639 67.6133 64.7912 67.5578 64.9371L66.0336 68.4825C65.857 68.9509 65.5879 69.3802 65.2448 69.7438C64.9881 69.9903 64.643 70.1279 64.2856 70.1238C64.0658 70.1361 63.848 70.0704 63.6734 69.9389C63.5276 69.8136 63.4454 69.6267 63.4536 69.4336C63.4516 69.2919 63.507 69.1542 63.6077 69.0556C63.7104 68.9529 63.8501 68.8975 63.9939 68.9016C64.1171 68.8975 64.2383 68.9406 64.3307 69.0228C64.417 69.107 64.4643 69.2241 64.4581 69.3453C64.4581 69.4028 64.4458 69.4603 64.4211 69.5137C64.3965 69.5671 64.3842 69.5959 64.3842 69.6C64.3842 69.6308 64.4006 69.6616 64.4273 69.676C64.4643 69.6945 64.5053 69.7048 64.5464 69.7027C64.7046 69.7027 64.8874 69.5733 65.0949 69.3165C65.3352 69.0002 65.5304 68.653 65.6742 68.2833L65.7378 68.1333L65.7419 68.1292Z" fill="#EF404E"/>
<path d="M45.3997 52.9716C44.0954 52.9716 43.6229 52.3492 43.6229 51.0756V44.2045C43.6229 42.9309 44.0974 42.3085 45.3997 42.3085H46.055C47.3594 42.3085 47.8319 42.9309 47.8319 44.2045V45.6568H53.1048V49.6254H47.8277V51.0777C47.8277 52.3512 47.3532 52.9737 46.0509 52.9737H45.3997V52.9716ZM28.603 49.8041L30.0245 42.1011H30.3203L31.7725 49.8041H28.603ZM21.4648 58.0063H27.0624L27.7444 54.3643H32.623L33.3049 58.0063H39.112L38.4608 54.8676C39.4982 57.1497 41.69 58.3637 45.1245 58.3637H45.7757C50.3092 58.3637 52.7084 56.2603 53.0925 52.6429V58.0043H66.6006V54.6005C67.7571 57.1477 70.0372 58.3617 73.5333 58.3617H74.3324C79.3096 58.3617 81.8875 55.8145 81.8875 50.9277V37.2718H76.0065V51.164C76.0065 52.341 75.5628 52.9716 74.2892 52.9716H73.6155C72.3111 52.9716 71.8982 52.3492 71.8982 51.164V37.2718H66.009V52.3512H58.9982V37.2718H53.109V42.4277C52.7166 38.9623 50.4653 36.9185 46.0571 36.9185H45.1389C40.0672 36.9185 37.7583 39.4964 37.7583 44.2045V51.4618L34.823 37.2718H25.7601L21.4648 58.0063Z" fill="#0055AA"/>
</svg>
