<svg width="104" height="104" viewBox="0 0 104 104" fill="none" xmlns="http://www.w3.org/2000/svg">
<path d="M54.1736 56.8965H44.1027C43.3372 56.8965 42.7131 56.2723 42.7131 55.5068V43.8029C42.7131 43.0375 43.3372 42.4133 44.1027 42.4133H52.994C54.6466 42.4133 55.9911 43.7578 55.9911 45.4104V46.1209C55.9911 47.2476 55.6044 48.2859 54.9548 49.1083C56.2875 49.9699 57.1707 51.4694 57.1707 53.1712V53.8993C57.1707 55.552 55.8262 56.8965 54.1736 56.8965ZM45.3333 54.2781H54.1736C54.3816 54.2781 54.5524 54.1094 54.5524 53.8993V53.1712C54.5524 51.9503 53.5592 50.9552 52.3364 50.9552H51.2314C51.2059 50.9552 51.1823 50.9552 51.1568 50.9552H46.4246V48.3369H51.2079C52.4071 48.3094 53.3728 47.3261 53.3728 46.1209V45.4104C53.3728 45.2024 53.204 45.0316 52.994 45.0316H45.3333V54.2781Z" fill="#CA5C27"/>
<path d="M77.9641 42.4506H75.3458V56.8965H77.9641V42.4506Z" fill="#CA5C27"/>
<path d="M68.9178 56.922H58.9195V54.3037H68.9178C69.8383 54.3037 70.5861 53.5559 70.5861 52.6353C70.5861 51.7148 69.8383 50.967 68.9178 50.967H63.055C60.6919 50.967 58.7684 49.0435 58.7684 46.6803V46.6057C58.7684 44.2426 60.6919 42.3191 63.055 42.3191H71.8737V44.9374H63.055C62.1345 44.9374 61.3867 45.6852 61.3867 46.6057V46.6803C61.3867 47.6009 62.1345 48.3487 63.055 48.3487H68.9178C71.281 48.3487 73.2045 50.2722 73.2045 52.6353C73.2045 54.9985 71.281 56.922 68.9178 56.922Z" fill="#CA5C27"/>
<path d="M27.3722 51.5342V56.8592C27.3722 57.448 27.8491 57.9269 28.4399 57.9269C29.0307 57.9269 29.5076 57.45 29.5076 56.8592V51.5342H27.3722Z" fill="#CA5C27"/>
<path d="M31.4272 51.5342V59.9858C31.4272 60.5747 31.9042 61.0536 32.495 61.0536C33.0858 61.0536 33.5627 60.5766 33.5627 59.9858V51.5342H31.4272Z" fill="#CA5C27"/>
<path d="M35.5824 51.5342V56.8592C35.5824 57.448 36.0593 57.9269 36.6501 57.9269C37.2409 57.9269 37.7179 57.45 37.7179 56.8592V51.5342H35.5824Z" fill="#CA5C27"/>
<path d="M32.0023 63.0438C30.8659 62.2803 29.7393 61.4599 28.7304 60.6159C24.3888 56.9809 24.5124 54.0269 24.5144 54.0151L24.5183 49.809H41.6355V42.9334C41.6355 42.6096 41.3804 42.3446 41.0565 42.3328L40.607 42.3171C35.8807 42.1424 32.7325 39.0079 32.703 38.9765L32.5852 38.8548C32.2457 38.5074 31.6902 38.4937 31.335 38.8273L31.2113 38.9431C27.5213 42.3937 23.5055 42.3662 23.4702 42.3642L22.8598 42.3485C22.5948 42.3426 22.375 42.5546 22.375 42.8196V45.2063C22.375 45.8305 22.9108 46.329 23.5468 46.2681C24.1022 46.2152 24.5085 45.7166 24.5085 45.1612V44.4271C26.0552 44.2406 29.015 43.5635 31.9395 41.1434C33.176 42.1483 35.8513 43.956 39.502 44.3702V47.6715H22.3848V53.8836C22.3593 54.4548 22.4064 58.0996 27.3604 62.2489C28.7932 63.4481 30.4262 64.5885 32.0023 65.5954V63.0399V63.0438Z" fill="#606060"/>
<path d="M80.0132 56.3253V56.2232H80.5628V56.3253H80.3489V56.8709H80.2292V56.3253H80.0132Z" fill="#CA5C27"/>
<path d="M81.2302 56.8709V56.4411L81.0162 56.7964H80.9632L80.7512 56.447V56.8709H80.6374V56.2232H80.7355L80.9927 56.6531L81.2459 56.2232H81.344V56.8709H81.2302Z" fill="#CA5C27"/>
<path d="M46.2323 61.6601C46.2323 62.0801 45.9026 62.3254 45.2725 62.3254H44.0537V59.8739H45.2019C45.7907 59.8739 46.1047 60.1232 46.1047 60.5118C46.1047 60.765 45.9791 60.9495 45.7887 61.0516C46.0517 61.136 46.2304 61.3421 46.2304 61.6601H46.2323ZM44.509 60.2312V60.9064H45.1528C45.4688 60.9064 45.6474 60.7945 45.6474 60.5707C45.6474 60.347 45.4688 60.2312 45.1528 60.2312H44.509ZM45.773 61.6149C45.773 61.3696 45.5866 61.2616 45.2451 61.2616H44.509V61.9682H45.2451C45.5885 61.9682 45.773 61.8603 45.773 61.6149Z" fill="#606060"/>
<path d="M47.6848 60.8494C47.6455 60.8416 47.6141 60.8396 47.5827 60.8396C47.251 60.8396 47.041 61.0359 47.041 61.4167V62.3235H46.6033V60.453H47.0194V60.7258C47.145 60.5295 47.3727 60.4314 47.6848 60.4314V60.8494Z" fill="#606060"/>
<path d="M49.5376 61.2282V62.3235H49.1235V62.0958C49.0175 62.2567 48.8153 62.347 48.5346 62.347C48.1067 62.347 47.8379 62.1115 47.8379 61.7876C47.8379 61.4638 48.0479 61.2302 48.6151 61.2302H49.0979V61.2027C49.0979 60.9476 48.9448 60.7964 48.6328 60.7964C48.4228 60.7964 48.2049 60.8671 48.0655 60.9829L47.8948 60.6649C48.095 60.5099 48.3855 60.4333 48.6858 60.4333C49.2255 60.4333 49.5356 60.6885 49.5356 61.2282H49.5376ZM49.0999 61.7386V61.5207H48.6485C48.3501 61.5207 48.2697 61.6326 48.2697 61.77C48.2697 61.927 48.4031 62.0291 48.6269 62.0291C48.8506 62.0291 49.0253 61.9309 49.0999 61.7386Z" fill="#606060"/>
<path d="M51.8654 61.2538V62.3254H51.4277V61.3107C51.4277 60.979 51.2629 60.818 50.9841 60.818C50.6721 60.818 50.4621 61.0065 50.4621 61.3813V62.3274H50.0244V60.4569H50.4405V60.6983C50.5837 60.5275 50.8114 60.4353 51.0842 60.4353C51.5318 60.4353 51.8654 60.6905 51.8654 61.2538Z" fill="#606060"/>
<path d="M54.1991 59.7267V62.3254H53.7791V62.084C53.6319 62.2626 53.414 62.3509 53.1589 62.3509C52.6172 62.3509 52.2128 61.9721 52.2128 61.3912C52.2128 60.8102 52.6152 60.4353 53.1589 60.4353C53.4003 60.4353 53.6142 60.5158 53.7614 60.6865V59.7267H54.1991ZM53.7693 61.3892C53.7693 61.032 53.5279 60.8043 53.2119 60.8043C52.8959 60.8043 52.6545 61.032 52.6545 61.3892C52.6545 61.7464 52.8959 61.9741 53.2119 61.9741C53.5279 61.9741 53.7693 61.7464 53.7693 61.3892Z" fill="#606060"/>
<path d="M55.4651 62.0644L55.6221 61.7111C55.8184 61.8681 56.1305 61.98 56.4308 61.98C56.8116 61.98 56.9725 61.8426 56.9725 61.662C56.9725 61.134 55.5161 61.4795 55.5161 60.5688C55.5161 60.1723 55.8322 59.8367 56.5034 59.8367C56.7978 59.8367 57.106 59.9132 57.3199 60.0545L57.1766 60.4078C56.9568 60.2783 56.7154 60.2155 56.5014 60.2155C56.1226 60.2155 55.9695 60.3627 55.9695 60.5472C55.9695 61.0693 57.422 60.7297 57.422 61.6286C57.422 62.0212 57.104 62.3568 56.4308 62.3568C56.05 62.3568 55.6673 62.2371 55.4651 62.0624V62.0644Z" fill="#606060"/>
<path d="M59.3631 61.2282V62.3235H58.949V62.0958C58.843 62.2567 58.6409 62.347 58.3602 62.347C57.9323 62.347 57.6634 62.1115 57.6634 61.7876C57.6634 61.4638 57.8734 61.2302 58.4407 61.2302H58.9235V61.2027C58.9235 60.9476 58.7704 60.7964 58.4583 60.7964C58.2483 60.7964 58.0304 60.8671 57.8911 60.9829L57.7203 60.6649C57.9205 60.5099 58.211 60.4333 58.5113 60.4333C59.0511 60.4333 59.3612 60.6885 59.3612 61.2282H59.3631ZM58.9255 61.7386V61.5207H58.474C58.1757 61.5207 58.0952 61.6326 58.0952 61.77C58.0952 61.927 58.2287 62.0291 58.4524 62.0291C58.6762 62.0291 58.8509 61.9309 58.9255 61.7386Z" fill="#606060"/>
<path d="M60.372 60.3568V60.4687H60.8862V60.818H60.3857V62.3235H59.948V60.818H59.6399V60.4687H59.948V60.3489C59.948 59.9564 60.1836 59.7012 60.6173 59.7012C60.7685 59.7012 60.9157 59.7326 61.0138 59.8033L60.8921 60.133C60.8254 60.0879 60.741 60.0565 60.6507 60.0565C60.4682 60.0565 60.374 60.1585 60.374 60.3568H60.372Z" fill="#606060"/>
<path d="M62.8686 61.5305H61.4024C61.4554 61.8033 61.6831 61.978 62.0089 61.978C62.219 61.978 62.3838 61.9113 62.5173 61.7739L62.7528 62.0428C62.584 62.243 62.323 62.347 61.9991 62.347C61.373 62.347 60.9667 61.9447 60.9667 61.3872C60.9667 60.8298 61.3769 60.4314 61.9324 60.4314C62.4879 60.4314 62.8784 60.8121 62.8784 61.397C62.8784 61.4324 62.8745 61.4854 62.8706 61.5266L62.8686 61.5305ZM61.3985 61.24H62.4604C62.425 60.9711 62.219 60.7847 61.9324 60.7847C61.6458 60.7847 61.4417 60.9672 61.4005 61.24H61.3985Z" fill="#606060"/>
<path d="M64.3839 62.2234C64.2779 62.3078 64.1209 62.349 63.9638 62.349C63.5536 62.349 63.3201 62.1311 63.3201 61.7189V60.82H63.0119V60.4706H63.3201V60.0427H63.7578V60.4706H64.2583V60.82H63.7578V61.7091C63.7578 61.8917 63.848 61.9898 64.0168 61.9898C64.1071 61.9898 64.1954 61.9662 64.2622 61.9132L64.3839 62.2253V62.2234Z" fill="#606060"/>
<path d="M66.4251 60.4549L65.5497 62.4746C65.379 62.8986 65.1395 63.0281 64.8294 63.0281C64.643 63.0281 64.4486 62.9653 64.3289 62.8573L64.5036 62.5354C64.588 62.6159 64.7058 62.665 64.8255 62.665C64.9805 62.665 65.0708 62.5904 65.1552 62.4059L65.1866 62.3333L64.3701 60.4569H64.8255L65.4143 61.8406L66.0051 60.4569H66.4251V60.4549Z" fill="#606060"/>
<path d="M67.6381 59.8739H68.0935V62.3254H67.6381V59.8739Z" fill="#606060"/>
<path d="M70.5194 61.2538V62.3254H70.0817V61.3107C70.0817 60.979 69.9169 60.818 69.6382 60.818C69.3261 60.818 69.1161 61.0065 69.1161 61.3813V62.3274H68.6784V60.4569H69.0945V60.6983C69.2378 60.5275 69.4654 60.4353 69.7383 60.4353C70.1858 60.4353 70.5194 60.6905 70.5194 61.2538Z" fill="#606060"/>
<path d="M70.7393 62.139L70.9081 61.8073C71.0729 61.9152 71.3242 61.9937 71.5597 61.9937C71.8364 61.9937 71.9523 61.9172 71.9523 61.7876C71.9523 61.4304 70.7962 61.766 70.7962 61.0202C70.7962 60.6669 71.1142 60.4353 71.6186 60.4353C71.8679 60.4353 72.1505 60.4942 72.3193 60.5962L72.1505 60.9279C71.9719 60.822 71.7933 60.7886 71.6147 60.7886C71.3477 60.7886 71.2221 60.8769 71.2221 60.9986C71.2221 61.3774 72.3782 61.0398 72.3782 61.7719C72.3782 62.1213 72.0563 62.349 71.5303 62.349C71.2182 62.349 70.9061 62.2587 70.7393 62.139Z" fill="#606060"/>
<path d="M73.758 62.2234C73.652 62.3078 73.495 62.349 73.338 62.349C72.9277 62.349 72.6942 62.1311 72.6942 61.7189V60.82H72.386V60.4706H72.6942V60.0427H73.1319V60.4706H73.6324V60.82H73.1319V61.7091C73.1319 61.8917 73.2222 61.9898 73.391 61.9898C73.4812 61.9898 73.5696 61.9662 73.6363 61.9132L73.758 62.2253V62.2234Z" fill="#606060"/>
<path d="M73.9366 59.8838C73.9366 59.7366 74.0563 59.6208 74.2173 59.6208C74.3782 59.6208 74.4979 59.7287 74.4979 59.872C74.4979 60.027 74.3821 60.1448 74.2173 60.1448C74.0524 60.1448 73.9366 60.029 73.9366 59.8818V59.8838ZM73.9955 60.4549H74.4332V62.3254H73.9955V60.4549Z" fill="#606060"/>
<path d="M76.0093 62.2234C75.9033 62.3078 75.7463 62.349 75.5892 62.349C75.179 62.349 74.9455 62.1311 74.9455 61.7189V60.82H74.6373V60.4706H74.9455V60.0427H75.3831V60.4706H75.8836V60.82H75.3831V61.7091C75.3831 61.8917 75.4734 61.9898 75.6422 61.9898C75.7325 61.9898 75.8208 61.9662 75.8876 61.9132L76.0093 62.2253V62.2234Z" fill="#606060"/>
<path d="M78.0564 60.4549V62.3254H77.6403V62.0879C77.501 62.2587 77.2792 62.3509 77.0377 62.3509C76.5588 62.3509 76.233 62.0879 76.233 61.5246V60.4569H76.6707V61.4657C76.6707 61.8053 76.8317 61.9662 77.1084 61.9662C77.4126 61.9662 77.6187 61.7778 77.6187 61.4029V60.4569H78.0564V60.4549Z" fill="#606060"/>
<path d="M79.6325 62.2234C79.5265 62.3078 79.3695 62.349 79.2125 62.349C78.8023 62.349 78.5687 62.1311 78.5687 61.7189V60.82H78.2606V60.4706H78.5687V60.0427H79.0064V60.4706H79.5069V60.82H79.0064V61.7091C79.0064 61.8917 79.0967 61.9898 79.2655 61.9898C79.3558 61.9898 79.4441 61.9662 79.5108 61.9132L79.6325 62.2253V62.2234Z" fill="#606060"/>
<path d="M81.5599 61.5305H80.0938C80.1468 61.8033 80.3744 61.978 80.7003 61.978C80.9103 61.978 81.0751 61.9113 81.2086 61.7739L81.4441 62.0428C81.2753 62.243 81.0143 62.347 80.6904 62.347C80.0643 62.347 79.658 61.9447 79.658 61.3872C79.658 60.8298 80.0682 60.4314 80.6237 60.4314C81.1792 60.4314 81.5698 60.8121 81.5698 61.397C81.5698 61.4324 81.5658 61.4854 81.5619 61.5266L81.5599 61.5305ZM80.0898 61.24H81.1517C81.1164 60.9711 80.9103 60.7847 80.6237 60.7847C80.3371 60.7847 80.133 60.9672 80.0918 61.24H80.0898Z" fill="#606060"/>
</svg>
