<svg width="104" height="104" viewBox="0 0 104 104" fill="none" xmlns="http://www.w3.org/2000/svg">
<path d="M78.2162 29.4922H25.7969V64.6787H78.2124V29.4922H78.2162Z" fill="white"/>
<path d="M58.5752 50.8604H53.4258V54.2214H58.5752V50.8604Z" fill="#DE2E21"/>
<path d="M58.3565 40.0601H53.207V44.2074H58.3565V40.0601Z" fill="#DE2E21"/>
<path d="M78.2162 29.4961H25.8008V34.6725H78.2162V29.4961Z" fill="#DE2E21"/>
<path d="M78.2162 35.498H25.8008V40.6745H78.2162V35.498Z" fill="#DE2E21"/>
<path d="M78.2162 41.4985H25.8008V46.6749H78.2162V41.4985Z" fill="#DE2E21"/>
<path d="M78.2162 47.498H25.8008V52.6745H78.2162V47.498Z" fill="#DE2E21"/>
<path d="M78.2162 53.5005H25.8008V58.6769H78.2162V53.5005Z" fill="#DE2E21"/>
<path d="M78.2162 59.5029H25.8008V64.6793H78.2162V59.5029Z" fill="#DE2E21"/>
<path d="M48.5195 50.2314L53.2797 49.8884C53.3837 50.7749 53.5919 51.4533 53.9079 51.9158C54.4244 52.6674 55.1606 53.0451 56.1165 53.0451C56.8295 53.0451 57.3807 52.8524 57.7661 52.4669C58.1516 52.0815 58.3482 51.6383 58.3482 51.1295C58.3482 50.6207 58.1631 50.216 57.797 49.8344C57.427 49.4528 56.5751 49.0944 55.2338 48.7552C53.0407 48.1886 51.4758 47.437 50.5431 46.4965C49.5988 45.5599 49.1285 44.3612 49.1285 42.9043C49.1285 41.9484 49.3675 41.0465 49.8493 40.1947C50.3311 39.3467 51.0557 38.676 52.0231 38.1904C52.9906 37.7047 54.3203 37.4619 56.0008 37.4619C58.0668 37.4619 59.6471 37.9013 60.7301 38.7878C61.8171 39.6743 62.4608 41.0773 62.6689 43.0083L57.955 43.3244C57.8317 42.488 57.5657 41.879 57.1649 41.4974C56.764 41.1158 56.209 40.927 55.5036 40.927C54.9216 40.927 54.4861 41.0696 54.1893 41.351C53.8925 41.6323 53.7499 41.9792 53.7499 42.3839C53.7499 42.6807 53.8732 42.9467 54.1161 43.1818C54.3512 43.4246 54.9101 43.6559 55.7966 43.8679C57.982 44.4113 59.5469 44.9587 60.495 45.5098C61.4394 46.0649 62.1293 46.7509 62.561 47.5719C62.9888 48.3929 63.2047 49.3102 63.2047 50.3239C63.2047 51.5149 62.9156 52.6173 62.3451 53.6233C61.7708 54.6292 60.9691 55.3924 59.94 55.9128C58.907 56.4331 57.612 56.6913 56.0432 56.6913C53.2912 56.6913 51.3872 56.0823 50.3234 54.8644C49.2634 53.6464 48.6621 52.0969 48.5234 50.2199H48.5195V50.2314Z" fill="white"/>
<path d="M67.0391 37.7871H72.0536V56.3883H67.0391V37.7871Z" fill="white"/>
<path d="M39.9126 37.7871V49.2461C39.9126 50.3793 39.7816 51.1849 39.5234 51.6628C39.2651 52.1408 38.8527 52.3797 38.2938 52.3797C37.9431 52.3797 37.6694 52.2988 37.4767 52.1408C37.1953 51.8979 36.9987 51.5742 36.8793 51.1772C36.8446 51.0654 36.8176 50.9382 36.7945 50.7994H31.9727C32.1037 51.9326 32.3697 52.9116 32.7744 53.7249C33.2639 54.7 33.9577 55.4439 34.8557 55.9489C35.7538 56.4576 37.018 56.7082 38.6523 56.7082C40.1979 56.7082 41.4659 56.3227 42.4565 55.5557C43.4471 54.7848 44.1062 53.8482 44.4338 52.742C44.7614 51.6358 44.9272 50.0209 44.9272 47.901V37.7948H39.9126V37.7871Z" fill="white"/>
<path d="M22.6249 70.4928L23.8429 70.2846V70.8011C23.8429 71.2983 24.1667 71.5296 24.5406 71.5296C24.9645 71.5296 25.2151 71.229 25.2151 70.8088V66.9814H26.4986V70.8397C26.4986 71.8611 25.6969 72.7167 24.5483 72.7167C23.3997 72.7167 22.6211 71.9806 22.6211 70.8628V70.4928H22.6249Z" fill="#DE2E21"/>
<path d="M31.579 70.6253C31.579 71.8433 30.6424 72.7182 29.436 72.7182C28.2296 72.7182 27.293 71.8471 27.293 70.6253C27.293 69.4035 28.2373 68.5439 29.436 68.5439C30.6347 68.5439 31.579 69.4073 31.579 70.6253ZM30.3418 70.6253C30.3418 69.9624 29.9024 69.6501 29.4321 69.6501C28.9619 69.6501 28.5225 69.9585 28.5225 70.6253C28.5225 71.2921 28.9696 71.6082 29.4321 71.6082C29.8947 71.6082 30.3418 71.2921 30.3418 70.6253Z" fill="#DE2E21"/>
<path d="M33.6123 72.5995H32.3789V66.8643H33.6123V68.9148C33.8628 68.672 34.2868 68.5563 34.6453 68.5563C35.7014 68.5563 36.1716 69.2617 36.1716 70.125V72.5957H34.9382V70.3332C34.9382 69.9439 34.7262 69.651 34.2791 69.651C33.8898 69.651 33.6354 69.9208 33.6123 70.2831V72.5957V72.5995Z" fill="#DE2E21"/>
<path d="M38.4443 72.5999H37.2109V68.6646H38.4058V69.1156C38.6255 68.7456 39.1188 68.5605 39.5351 68.5605C40.5488 68.5605 41.0036 69.2659 41.0036 70.1293V72.5999H39.7702V70.3374C39.7702 69.9481 39.5582 69.6552 39.1111 69.6552C38.7064 69.6552 38.4443 69.9481 38.4443 70.3451V72.6038V72.5999Z" fill="#DE2E21"/>
<path d="M46.9448 68.6791C46.9024 68.417 46.6866 67.9738 45.9851 67.9738C45.5071 67.9738 45.1949 68.2667 45.1949 68.5751C45.1949 68.8449 45.3645 69.0414 45.7654 69.1147L46.5362 69.2573C47.6309 69.4577 48.2013 70.1438 48.2013 70.9416C48.2013 71.8204 47.4459 72.7185 46.0699 72.7185C44.478 72.7185 43.7958 71.7125 43.7148 70.9185L44.8943 70.641C44.9405 71.1575 45.299 71.6084 46.0891 71.6084C46.5941 71.6084 46.9024 71.3695 46.9024 71.0226C46.9024 70.7374 46.6673 70.5292 46.2857 70.4598L45.4956 70.3172C44.5204 70.1361 43.9268 69.5001 43.9268 68.6676C43.9268 67.6076 44.8866 66.8599 45.9889 66.8599C47.4266 66.8599 47.9739 67.7001 48.0934 68.3554L46.9409 68.6714H46.9448V68.6791Z" fill="#DE2E21"/>
<path d="M50.167 72.5999H48.9336V68.6646H50.1284V69.1156C50.3481 68.7456 50.8415 68.5605 51.2578 68.5605C52.2715 68.5605 52.7263 69.2659 52.7263 70.1293V72.5999H51.4929V70.3374C51.4929 69.9481 51.2809 69.6552 50.8376 69.6552C50.4329 69.6552 50.1708 69.9481 50.1708 70.3451V72.6038L50.167 72.5999Z" fill="#DE2E21"/>
<path d="M57.7665 70.6253C57.7665 71.8433 56.8299 72.7182 55.6235 72.7182C54.4171 72.7182 53.4805 71.8471 53.4805 70.6253C53.4805 69.4035 54.4248 68.5439 55.6235 68.5439C56.8222 68.5439 57.7665 69.4073 57.7665 70.6253ZM56.5331 70.6253C56.5331 69.9624 56.0937 69.6501 55.6235 69.6501C55.1533 69.6501 54.7139 69.9585 54.7139 70.6253C54.7139 71.2921 55.161 71.6082 55.6235 71.6082C56.086 71.6082 56.5331 71.2921 56.5331 70.6253Z" fill="#DE2E21"/>
<path d="M62.0468 68.6597L62.837 70.9954L63.5115 68.6597H64.7217L63.4691 72.595H62.2395L61.3607 70.0511L60.5012 72.595H59.2486L57.9805 68.6597H59.264L59.9385 70.9877L60.7363 68.6597H62.0468Z" fill="#DE2E21"/>
<path d="M65.6883 71.1645C66.2549 71.1645 66.5671 71.6309 66.5671 72.1551C66.5671 73.3846 65.6729 73.905 65.0215 73.9743V73.4116C65.3722 73.3499 65.8193 73.0339 65.8347 72.5559C65.7923 72.5868 65.7037 72.6099 65.6073 72.6099C65.1602 72.6099 64.875 72.2938 64.875 71.8968C64.875 71.4767 65.2257 71.1606 65.6883 71.1606V71.1645Z" fill="#DE2E21"/>
<path d="M69.6484 72.5992V66.9834H70.9474V72.5992H69.6484Z" fill="#DE2E21"/>
<path d="M73.3467 72.5999H72.1133V68.6646H73.3081V69.1156C73.5278 68.7456 74.0212 68.5605 74.4375 68.5605C75.4512 68.5605 75.906 69.2659 75.906 70.1293V72.5999H74.6726V70.3374C74.6726 69.9481 74.4606 69.6552 74.0135 69.6552C73.6088 69.6552 73.3467 69.9481 73.3467 70.3451V72.6038V72.5999Z" fill="#DE2E21"/>
<path d="M77.878 70.6334C77.878 71.2579 78.3097 71.6086 78.8223 71.6086C79.3002 71.6086 79.57 71.3157 79.6587 71.0227L80.7456 71.3465C80.5645 72.0364 79.9015 72.7148 78.8184 72.7148C77.6159 72.7148 76.6484 71.8514 76.6484 70.6334C76.6484 69.4155 77.5928 68.5405 78.7799 68.5405C79.8938 68.5405 80.5413 69.2035 80.7225 69.9088L79.6163 70.2326C79.5276 69.932 79.281 69.6467 78.803 69.6467C78.2904 69.6467 77.878 69.9936 77.878 70.6296V70.6334Z" fill="#DE2E21"/>
</svg>
