<svg width="131" height="82" viewBox="0 0 131 82" fill="none" xmlns="http://www.w3.org/2000/svg">
<path d="M91.7828 20.4258L91.7839 20.4247C93.7703 18.4449 93.7703 15.2348 91.7839 13.2549L82.9696 4.46962C80.9832 2.48973 77.7626 2.48973 75.7762 4.46962L75.7751 4.47069C73.7887 6.45058 73.7887 9.66061 75.7751 11.6405L84.5894 20.4258C86.5758 22.4057 89.7964 22.4057 91.7828 20.4258Z" fill="#FFD800"/>
<path d="M84.5714 20.4258L84.5704 20.4247C82.5839 18.4449 82.5839 15.2348 84.5704 13.2549L93.3846 4.46962C95.3711 2.48973 98.5917 2.48973 100.578 4.46962L100.579 4.47069C102.566 6.45058 102.566 9.66061 100.579 11.6405L91.7649 20.4258C89.7785 22.4057 86.5578 22.4057 84.5714 20.4258Z" fill="#FF2AAB"/>
<path d="M122.935 46.7061H7.29499C5.94545 46.7061 4.65118 46.17 3.69691 45.2157C2.74265 44.2615 2.20654 42.9672 2.20654 41.6177V15.213C2.20654 13.8634 2.74265 12.5692 3.69691 11.6149C4.65118 10.6606 5.94545 10.1245 7.29499 10.1245H122.935C124.284 10.1245 125.579 10.6606 126.533 11.6149C127.487 12.5692 128.023 13.8634 128.023 15.213V41.6177C128.023 42.9672 127.487 44.2615 126.533 45.2157C125.579 46.17 124.284 46.7061 122.935 46.7061Z" fill="#0199EC"/>
<path d="M9.17749 36.188V20.8205C9.17749 16.4068 11.466 13.791 15.7983 13.791C20.1307 13.791 22.4192 16.4068 22.4192 20.8205V21.963C22.4192 22.2421 22.3642 22.5185 22.2574 22.7763C22.1506 23.0342 21.994 23.2684 21.7967 23.4658C21.5994 23.6631 21.3651 23.8197 21.1072 23.9265C20.8494 24.0333 20.5731 24.0882 20.294 24.0882C20.0149 24.0882 19.7386 24.0333 19.4807 23.9265C19.2229 23.8197 18.9886 23.6631 18.7913 23.4658C18.5939 23.2684 18.4374 23.0342 18.3306 22.7763C18.2238 22.5185 18.1688 22.2421 18.1688 21.963V20.5348C18.1688 18.653 17.2695 17.8787 15.9206 17.8787C14.5717 17.8787 13.6725 18.655 13.6725 20.5348V36.5153C13.6725 38.3972 14.5717 39.1311 15.9206 39.1311C17.2695 39.1311 18.1688 38.3958 18.1688 36.5153V34.0225C18.1531 33.7393 18.1972 33.4559 18.2985 33.191C18.3997 32.926 18.5557 32.6853 18.7563 32.4848C18.9568 32.2842 19.1975 32.1282 19.4624 32.027C19.7274 31.9257 20.0108 31.8816 20.294 31.8973C20.578 31.8782 20.8628 31.92 21.1294 32.02C21.3959 32.1201 21.6379 32.276 21.8392 32.4773C22.0405 32.6786 22.1964 32.9206 22.2964 33.1871C22.3965 33.4536 22.4383 33.7385 22.4192 34.0225V36.1887C22.4192 40.6023 20.1307 43.2181 15.7983 43.2181C11.466 43.2181 9.17749 40.6017 9.17749 36.188Z" fill="white"/>
<path d="M25.1183 40.8068V16.448C25.0862 16.1449 25.1223 15.8385 25.224 15.5511C25.3256 15.2638 25.4902 15.0028 25.7058 14.7873C25.9213 14.5718 26.1822 14.4072 26.4696 14.3055C26.7569 14.2039 27.0633 14.1678 27.3664 14.1998H31.7801C36.4397 14.1998 38.4426 16.366 38.4426 20.7796V22.5372C38.4426 25.4796 37.5017 27.3602 35.5002 28.1774V28.2594C37.7483 28.9544 38.4836 31.0822 38.4836 34.3083V38.763C38.4622 39.3263 38.5171 39.8899 38.6469 40.4385C38.7582 40.7957 38.8133 41.168 38.8102 41.5421C38.8102 42.5227 38.034 43.0543 36.6851 43.0543C34.8462 43.0543 33.9879 42.1134 33.9879 39.5392V34.063C33.9879 31.4069 33.2117 30.5479 31.1651 30.5479H29.6139V40.8068C29.6191 41.1053 29.5648 41.4018 29.4541 41.679C29.3435 41.9562 29.1787 42.2087 28.9695 42.4216C28.7602 42.6345 28.5107 42.8035 28.2354 42.919C27.9601 43.0344 27.6646 43.0938 27.3661 43.0938C27.0676 43.0938 26.7721 43.0344 26.4968 42.919C26.2215 42.8035 25.972 42.6345 25.7627 42.4216C25.5535 42.2087 25.3887 41.9562 25.2781 41.679C25.1674 41.4018 25.1131 41.1053 25.1183 40.8068ZM31.2512 26.4609C32.9267 26.4609 33.949 25.7256 33.949 23.4364V21.23C33.949 19.1861 33.254 18.2875 31.6598 18.2875H29.6166V26.4609H31.2512Z" fill="white"/>
<path d="M41.5907 40.5619V16.4484C41.5794 16.1502 41.6297 15.8529 41.7387 15.575C41.8476 15.2972 42.0127 15.0449 42.2237 14.8338C42.4347 14.6228 42.687 14.4575 42.9648 14.3485C43.2426 14.2395 43.5399 14.189 43.8382 14.2003H52.0539C52.3248 14.1907 52.5949 14.237 52.8471 14.3363C53.0994 14.4357 53.3285 14.5859 53.5202 14.7776C53.7119 14.9694 53.862 15.1985 53.9613 15.4508C54.0605 15.7031 54.1067 15.9732 54.0971 16.2441C54.1066 16.515 54.0603 16.785 53.9611 17.0373C53.8618 17.2895 53.7116 17.5187 53.52 17.7104C53.3283 17.9021 53.0992 18.0523 52.847 18.1517C52.5948 18.2511 52.3248 18.2974 52.0539 18.288H46.0863V25.8491H50.4597C51.0016 25.8491 51.5214 26.0644 51.9046 26.4476C52.2879 26.8308 52.5032 27.3506 52.5032 27.8926C52.5032 28.4345 52.2879 28.9543 51.9046 29.3375C51.5214 29.7208 51.0016 29.9361 50.4597 29.9361H46.0863V38.7238H52.0539C52.5894 38.7335 53.0998 38.953 53.4751 39.3352C53.8504 39.7174 54.0607 40.2316 54.0607 40.7673C54.0607 41.3029 53.8504 41.8171 53.4751 42.1993C53.0998 42.5815 52.5894 42.8011 52.0539 42.8108H43.8382C43.5399 42.822 43.2426 42.7715 42.9648 42.6625C42.687 42.5535 42.4347 42.3883 42.2237 42.1772C42.0127 41.9662 41.8476 41.7138 41.7387 41.436C41.6297 41.1582 41.5794 40.8602 41.5907 40.5619Z" fill="white"/>
<path d="M55.4875 40.845C55.4947 40.5981 55.5222 40.3522 55.5695 40.1097L59.4523 16.8552C59.5433 15.995 59.9561 15.201 60.608 14.6325C61.26 14.0639 62.1027 13.7629 62.9673 13.7897C63.8271 13.765 64.6643 14.0678 65.3093 14.6369C65.9542 15.2061 66.3589 15.999 66.4414 16.8552L70.3241 40.1097C70.357 40.3261 70.3707 40.5449 70.3651 40.7637C70.3651 42.1536 69.6258 43.0522 68.3212 43.0522C66.9724 43.0522 66.1961 42.1939 65.9918 40.8867L65.4601 37.1263V37.2076H60.1062L59.5746 40.968C59.3729 42.3982 58.594 43.0515 57.4494 43.0515C56.3868 43.0515 55.4875 42.3572 55.4875 40.845ZM64.9292 33.3249L62.804 18.7747H62.722L60.6385 33.3249H64.9292Z" fill="white"/>
<path d="M74.4537 40.8074V18.2868H71.5529C71.2771 18.3172 70.998 18.2852 70.7363 18.1932C70.4745 18.1012 70.2368 17.9516 70.0406 17.7554C69.8445 17.5592 69.6949 17.3214 69.603 17.0596C69.5112 16.7978 69.4793 16.5187 69.5097 16.243C69.4794 15.9672 69.5114 15.6882 69.6033 15.4265C69.6953 15.1647 69.8448 14.927 70.0409 14.7308C70.2371 14.5346 70.4747 14.385 70.7364 14.293C70.9981 14.2009 71.2772 14.1689 71.5529 14.1991H81.8521C82.1279 14.1688 82.407 14.2007 82.6688 14.2927C82.9306 14.3847 83.1684 14.5343 83.3646 14.7305C83.5608 14.9267 83.7104 15.1645 83.8024 15.4263C83.8943 15.6881 83.9263 15.9672 83.896 16.243C83.9263 16.5188 83.8943 16.7979 83.8024 17.0596C83.7104 17.3214 83.5608 17.5592 83.3646 17.7554C83.1684 17.9516 82.9306 18.1012 82.6688 18.1932C82.407 18.2852 82.1279 18.3172 81.8521 18.2868H78.946V40.8074C78.9511 41.1059 78.8968 41.4024 78.7862 41.6796C78.6755 41.9569 78.5108 42.2093 78.3015 42.4222C78.0923 42.6351 77.8427 42.8042 77.5675 42.9196C77.2922 43.035 76.9967 43.0945 76.6982 43.0945C76.3996 43.0945 76.1041 43.035 75.8288 42.9196C75.5536 42.8042 75.304 42.6351 75.0948 42.4222C74.8855 42.2093 74.7208 41.9569 74.6101 41.6796C74.4995 41.4024 74.4452 41.1059 74.4503 40.8074" fill="white"/>
<path d="M85.8167 40.8064V16.2029C85.8268 15.6135 86.0682 15.0517 86.4886 14.6384C86.909 14.2252 87.475 13.9937 88.0645 13.9937C88.654 13.9937 89.2199 14.2252 89.6404 14.6384C90.0608 15.0517 90.3021 15.6135 90.3123 16.2029V40.8064C90.3021 41.3958 90.0608 41.9577 89.6404 42.3709C89.2199 42.7842 88.654 43.0157 88.0645 43.0157C87.475 43.0157 86.909 42.7842 86.4886 42.3709C86.0682 41.9577 85.8268 41.3958 85.8167 40.8064Z" fill="white"/>
<path d="M96.4028 40.1525L92.8057 16.8979C92.7734 16.6815 92.7599 16.4627 92.7654 16.2439C92.7329 15.9494 92.7642 15.6513 92.8572 15.3699C92.9502 15.0886 93.1027 14.8305 93.3043 14.6134C93.506 14.3962 93.752 14.2251 94.0257 14.1115C94.2995 13.998 94.5944 13.9448 94.8906 13.9554C96.2388 13.9554 96.9741 14.8137 97.1387 16.1216L99.9615 36.802H100.043L102.822 16.0396C103.024 14.6087 103.803 13.9561 104.947 13.9561C106.01 13.9561 106.908 14.6504 106.908 16.1633C106.902 16.4102 106.874 16.6561 106.827 16.8986L103.19 40.1531C102.863 42.156 101.8 43.2186 99.7976 43.2186C97.8364 43.2186 96.7328 42.156 96.4055 40.1531" fill="white"/>
<path d="M109.278 40.5619V16.4484C109.267 16.1502 109.317 15.8529 109.426 15.575C109.535 15.2972 109.7 15.0449 109.911 14.8338C110.122 14.6228 110.374 14.4575 110.652 14.3485C110.93 14.2395 111.227 14.189 111.525 14.2003H119.741C120.012 14.1907 120.282 14.237 120.534 14.3363C120.787 14.4357 121.016 14.5859 121.207 14.7776C121.399 14.9694 121.549 15.1985 121.649 15.4508C121.748 15.7031 121.794 15.9732 121.784 16.2441C121.794 16.515 121.748 16.785 121.648 17.0373C121.549 17.2895 121.399 17.5187 121.207 17.7104C121.016 17.9021 120.786 18.0523 120.534 18.1517C120.282 18.2511 120.012 18.2974 119.741 18.288H113.774V25.8491H118.147C118.689 25.8491 119.209 26.0644 119.592 26.4476C119.975 26.8308 120.19 27.3506 120.19 27.8926C120.19 28.4345 119.975 28.9543 119.592 29.3375C119.209 29.7208 118.689 29.9361 118.147 29.9361H113.774V38.7238H119.741C120.277 38.7335 120.787 38.953 121.162 39.3352C121.538 39.7174 121.748 40.2316 121.748 40.7673C121.748 41.3029 121.538 41.8171 121.162 42.1993C120.787 42.5815 120.277 42.8011 119.741 42.8108H111.525C111.227 42.822 110.93 42.7715 110.652 42.6625C110.374 42.5535 110.122 42.3883 109.911 42.1772C109.7 41.9662 109.535 41.7138 109.426 41.436C109.317 41.1582 109.267 40.8602 109.278 40.5619Z" fill="white"/>
<path d="M0.00143324 78.7045V54.3456C-0.00940804 54.0476 0.0413479 53.7506 0.150528 53.473C0.259708 53.1955 0.424964 52.9435 0.635965 52.7328C0.846966 52.522 1.09917 52.3571 1.37682 52.2482C1.65447 52.1394 1.95159 52.089 2.2496 52.1002H10.0963C10.6319 52.1099 11.1422 52.3294 11.5175 52.7116C11.8928 53.0938 12.1031 53.608 12.1031 54.1437C12.1031 54.6793 11.8928 55.1936 11.5175 55.5757C11.1422 55.9579 10.6319 56.1775 10.0963 56.1872H4.49911V64.1569H8.50481C9.04678 64.1569 9.56656 64.3722 9.94979 64.7554C10.333 65.1387 10.5483 65.6585 10.5483 66.2004C10.5483 66.7424 10.333 67.2622 9.94979 67.6454C9.56656 68.0286 9.04678 68.2439 8.50481 68.2439H4.49911V78.7072C4.51042 79.0054 4.46004 79.3027 4.3511 79.5805C4.24217 79.8584 4.07703 80.1107 3.86605 80.3218C3.65506 80.5328 3.40276 80.698 3.12496 80.8071C2.84715 80.9161 2.54983 80.9666 2.25162 80.9553C1.95337 80.9665 1.65602 80.9161 1.37818 80.8071C1.10034 80.698 0.848005 80.5328 0.636964 80.3218C0.425923 80.1108 0.260725 79.8584 0.151715 79.5806C0.0427045 79.3028 -0.0077707 79.0054 0.00344971 78.7072" fill="#0199EC"/>
<path d="M14.0624 78.7046V54.3464C14.0303 54.0433 14.0664 53.7369 14.1681 53.4496C14.2697 53.1622 14.4343 52.9013 14.6499 52.6857C14.8654 52.4702 15.1263 52.3056 15.4137 52.204C15.701 52.1023 16.0074 52.0662 16.3105 52.0982H20.7242C25.3838 52.0982 27.3867 54.2637 27.3867 58.6781V60.4343C27.3867 63.3767 26.4458 65.2566 24.4442 66.0745V66.1558C26.6924 66.8508 27.4277 68.9786 27.4277 72.2047V76.6594C27.4063 77.2227 27.4613 77.7863 27.591 78.3349C27.7023 78.6921 27.7574 79.0644 27.7543 79.4385C27.7543 80.4191 26.9781 80.9507 25.6292 80.9507C23.7903 80.9507 22.932 80.0098 22.932 77.4357V71.9587C22.932 69.3026 22.1558 68.4437 20.1092 68.4437H18.558V78.7019C18.59 79.0049 18.5539 79.3113 18.4523 79.5986C18.3507 79.8858 18.1862 80.1468 17.9707 80.3623C17.7553 80.5778 17.4944 80.7424 17.2072 80.8441C16.9199 80.9458 16.6136 80.982 16.3105 80.95C16.0074 80.9821 15.701 80.946 15.4137 80.8443C15.1263 80.7427 14.8654 80.5781 14.6499 80.3626C14.4343 80.147 14.2697 79.8861 14.1681 79.5987C14.0664 79.3114 14.0303 79.005 14.0624 78.7019M20.1926 64.356C21.8681 64.356 22.8904 63.6207 22.8904 61.3315V59.125C22.8904 57.0812 22.1954 56.1826 20.6012 56.1826H18.558V64.3593L20.1926 64.356Z" fill="#0199EC"/>
<path d="M30.2073 73.923V58.8828C30.2073 54.3052 32.6188 51.6914 37.0331 51.6914C41.4474 51.6914 43.8582 54.3072 43.8582 58.8828V73.9237C43.8582 78.5014 41.4468 81.1152 37.0331 81.1152C32.6194 81.1152 30.2073 78.4994 30.2073 73.9237M39.3626 74.21V58.5972C39.3626 56.5534 38.4633 55.7744 37.0331 55.7744C35.6029 55.7744 34.7029 56.5507 34.7029 58.5972V74.21C34.7029 76.2539 35.6022 77.0328 37.0331 77.0328C38.464 77.0328 39.3626 76.2566 39.3626 74.21Z" fill="#0199EC"/>
<path d="M46.8879 78.949V55.1621C46.8879 53.1183 48.0304 51.8521 49.8303 51.8521C51.7512 51.8521 52.6914 52.9946 53.1814 54.8355L56.9008 69.3037H56.9828V53.8549C56.9828 53.3237 57.1938 52.8143 57.5694 52.4387C57.945 52.0631 58.4544 51.8521 58.9856 51.8521C59.5168 51.8521 60.0263 52.0631 60.4019 52.4387C60.7775 52.8143 60.9885 53.3237 60.9885 53.8549V78.334C60.9885 80.2959 60.0079 80.9498 58.618 80.9498C57.0648 80.9498 56.2885 80.1729 55.7952 78.293L50.9722 59.7378H50.8902V78.947C50.8902 79.4782 50.6792 79.9876 50.3036 80.3632C49.928 80.7388 49.4186 80.9498 48.8874 80.9498C48.3562 80.9498 47.8467 80.7388 47.4711 80.3632C47.0955 79.9876 46.8845 79.4782 46.8845 78.947" fill="#0199EC"/>
<path d="M67.8523 78.7045V56.1845H64.9509C64.4153 56.1748 63.905 55.9552 63.5297 55.5731C63.1544 55.1909 62.9441 54.6767 62.9441 54.141C62.9441 53.6054 63.1544 53.0911 63.5297 52.709C63.905 52.3268 64.4153 52.1072 64.9509 52.0975H75.2501C75.5216 52.0926 75.7913 52.1418 76.0436 52.2423C76.2958 52.3428 76.5255 52.4925 76.7192 52.6828C76.9129 52.873 77.0668 53.0999 77.1719 53.3503C77.2769 53.6007 77.331 53.8695 77.331 54.141C77.331 54.4125 77.2769 54.6813 77.1719 54.9317C77.0668 55.1821 76.9129 55.409 76.7192 55.5993C76.5255 55.7895 76.2958 55.9393 76.0436 56.0397C75.7913 56.1402 75.5216 56.1895 75.2501 56.1845H72.3507V78.7045C72.3558 79.003 72.3015 79.2995 72.1909 79.5767C72.0802 79.8539 71.9155 80.1064 71.7062 80.3193C71.497 80.5321 71.2474 80.7012 70.9721 80.8167C70.6969 80.9321 70.4013 80.9915 70.1028 80.9915C69.8043 80.9915 69.5088 80.9321 69.2335 80.8167C68.9583 80.7012 68.7087 80.5321 68.4995 80.3193C68.2902 80.1064 68.1255 79.8539 68.0148 79.5767C67.9042 79.2995 67.8498 79.003 67.855 78.7045" fill="#0199EC"/>
<path d="M79.2162 78.7035V54.1C79.211 53.8016 79.2653 53.5051 79.376 53.2278C79.4866 52.9506 79.6514 52.6982 79.8606 52.4853C80.0698 52.2724 80.3194 52.1033 80.5947 51.9879C80.87 51.8724 81.1655 51.813 81.464 51.813C81.7625 51.813 82.058 51.8724 82.3333 51.9879C82.6086 52.1033 82.8581 52.2724 83.0674 52.4853C83.2766 52.6982 83.4414 52.9506 83.552 53.2278C83.6627 53.5051 83.717 53.8016 83.7118 54.1V78.7035C83.7016 79.2929 83.4603 79.8548 83.0399 80.268C82.6194 80.6812 82.0535 80.9128 81.464 80.9128C80.8745 80.9128 80.3085 80.6812 79.8881 80.268C79.4677 79.8548 79.2263 79.2929 79.2162 78.7035Z" fill="#0199EC"/>
<path d="M87.0643 78.4594V54.3459C87.053 54.0477 87.1034 53.7503 87.2123 53.4725C87.3212 53.1947 87.4864 52.9423 87.6974 52.7313C87.9084 52.5202 88.1607 52.355 88.4385 52.246C88.7163 52.137 89.0136 52.0865 89.3118 52.0977H97.5275C98.0631 52.1074 98.5734 52.327 98.9487 52.7092C99.324 53.0914 99.5343 53.6056 99.5343 54.1412C99.5343 54.6769 99.324 55.1911 98.9487 55.5733C98.5734 55.9555 98.0631 56.175 97.5275 56.1848H91.56V63.7458H95.9333C96.4753 63.7458 96.995 63.9611 97.3783 64.3444C97.7615 64.7276 97.9768 65.2474 97.9768 65.7894C97.9768 66.3313 97.7615 66.8511 97.3783 67.2343C96.995 67.6176 96.4753 67.8329 95.9333 67.8329H91.56V76.6199H97.5275C98.0631 76.6296 98.5734 76.8492 98.9487 77.2313C99.324 77.6135 99.5343 78.1277 99.5343 78.6634C99.5343 79.199 99.324 79.7133 98.9487 80.0954C98.5734 80.4776 98.0631 80.6972 97.5275 80.7069H89.3118C89.0136 80.7181 88.7163 80.6676 88.4385 80.5586C88.1607 80.4496 87.9084 80.2844 87.6974 80.0734C87.4864 79.8623 87.3212 79.61 87.2123 79.3321C87.1034 79.0543 87.053 78.7569 87.0643 78.4587" fill="#0199EC"/>
<path d="M101.901 78.7043V54.3461C101.87 54.0434 101.906 53.7374 102.008 53.4504C102.109 53.1635 102.274 52.9029 102.489 52.6877C102.704 52.4725 102.965 52.308 103.252 52.2063C103.539 52.1046 103.845 52.0683 104.147 52.1H108.561C113.221 52.1 115.224 54.2655 115.224 58.6798V60.434C115.224 63.3764 114.283 65.2563 112.281 66.0742V66.1555C114.529 66.8505 115.265 68.9783 115.265 72.2044V76.6591C115.243 77.2224 115.298 77.786 115.428 78.3346C115.539 78.6918 115.594 79.0641 115.591 79.4382C115.591 80.4188 114.815 80.9504 113.466 80.9504C111.627 80.9504 110.769 80.0095 110.769 77.4354V71.9584C110.769 69.3023 109.993 68.4434 107.946 68.4434H106.393V78.7016C106.398 79 106.344 79.2965 106.233 79.5738C106.122 79.851 105.958 80.1034 105.748 80.3163C105.539 80.5292 105.29 80.6983 105.014 80.8137C104.739 80.9292 104.444 80.9886 104.145 80.9886C103.847 80.9886 103.551 80.9292 103.276 80.8137C103 80.6983 102.751 80.5292 102.542 80.3163C102.332 80.1034 102.168 79.851 102.057 79.5738C101.946 79.2965 101.892 79 101.897 78.7016M108.027 64.3557C109.703 64.3557 110.725 63.6204 110.725 61.3312V59.1247C110.725 57.0809 110.03 56.1823 108.436 56.1823H106.393V64.359L108.027 64.3557Z" fill="#0199EC"/>
<path d="M117.596 74.167C117.569 73.8793 117.605 73.5892 117.702 73.3169C117.799 73.0446 117.954 72.7967 118.156 72.5905C118.358 72.3842 118.603 72.2246 118.874 72.1228C119.144 72.0209 119.433 71.9793 119.722 72.0008C120.907 72.0008 121.847 72.6137 121.847 74.249C121.847 76.2921 122.746 77.0281 124.176 77.0281C125.606 77.0281 126.506 76.2888 126.506 74.167C126.506 71.7965 125.606 70.2843 122.664 67.7094C118.904 64.3987 117.678 62.0692 117.678 58.7994C117.678 54.3038 120.007 51.688 124.381 51.688C128.754 51.688 130.918 54.5081 130.918 58.1865C130.955 58.4763 130.926 58.7707 130.833 59.0477C130.74 59.3247 130.586 59.5769 130.381 59.7855C130.177 59.994 129.927 60.1534 129.652 60.2517C129.377 60.3499 129.083 60.3845 128.793 60.3527C128.505 60.3744 128.215 60.333 127.945 60.2312C127.674 60.1294 127.429 59.9698 127.227 59.7635C127.024 59.5572 126.869 59.3092 126.773 59.0368C126.676 58.7644 126.64 58.4742 126.668 58.1865C126.668 56.6743 125.85 55.7757 124.419 55.7757C122.989 55.7757 122.172 56.5526 122.172 58.5138C122.172 60.5973 123.113 62.1102 126.055 64.6857C129.815 67.9964 131 70.2849 131 73.841C131 78.5 128.63 81.1158 124.215 81.1158C119.801 81.1158 117.594 78.5 117.594 74.1676" fill="#0199EC"/>
</svg>
