<svg width="110" height="53" viewBox="0 0 110 53" fill="none" xmlns="http://www.w3.org/2000/svg">
<g clip-path="url(#clip0_3875_2029)">
<g clip-path="url(#clip1_3875_2029)">
<path d="M25.7909 6.4048C25.6199 6.22238 25.4558 6.04606 25.2902 5.87051C25.2383 5.81479 25.1841 5.7606 25.1299 5.70717C21.8127 2.3869 17.7978 0.945823 13.1471 1.40303C8.46595 1.86405 4.89227 4.18137 2.50244 8.22141C0.369074 11.8287 -0.101106 15.7504 0.703391 19.8172C1.42927 23.4832 3.22069 26.5661 6.299 28.7369C10.8474 31.9442 15.7408 32.225 20.8051 30.0795C22.7897 29.2383 24.4185 27.8858 25.8955 26.2005C24.7544 25.125 23.6216 24.058 22.4805 22.9825C22.5187 22.9542 22.4958 22.9672 22.4782 22.9848C22.2615 23.1993 22.0439 23.4137 21.8287 23.6297C19.7877 25.6799 17.3261 26.7187 14.4279 26.6607C11.3885 26.5997 8.8972 25.3838 7.10807 22.9191C5.08691 20.1362 4.67474 16.9923 5.37467 13.6918C5.98529 10.8143 7.52406 8.54962 10.1467 7.12763C13.7425 5.17745 18.368 5.8499 21.4684 8.73128C21.8195 9.0572 22.1577 9.39763 22.4752 9.70675C23.5896 8.59618 24.6773 7.51232 25.7894 6.40328L25.7909 6.4048ZM51.0692 10.4021C51.0692 10.5593 51.0692 10.6952 51.0692 10.8318C51.0692 12.2691 51.0707 13.7056 51.0692 15.1428C51.0654 17.4701 51.1058 19.7988 51.0379 22.1238C50.9875 23.8465 50.2441 25.2334 48.658 26.0654C47.784 26.5241 46.836 26.7142 45.8621 26.705C44.2707 26.689 43.1883 25.8959 42.722 24.3625C42.5289 23.7282 42.4174 23.0436 42.4128 22.381C42.3846 18.541 42.3991 14.7001 42.3991 10.8593C42.3991 10.7112 42.3991 10.5632 42.3991 10.4189C42.2968 10.3998 42.2472 10.3823 42.1984 10.3823C40.6977 10.38 39.1971 10.3861 37.6965 10.3746C37.3698 10.3723 37.4065 10.5654 37.4065 10.7738C37.408 14.5383 37.3889 18.3028 37.4217 22.0666C37.4301 23.013 37.5233 23.9755 37.7156 24.9014C38.1598 27.0393 39.1613 28.875 41.0473 30.0795C43.4005 31.5824 45.9567 31.7236 48.6 31.0275C49.4747 30.797 50.2876 30.426 51.0723 29.8116V31.4465H56.0046C56.0145 31.316 56.0305 31.2053 56.0305 31.0939C56.0313 24.3159 56.029 17.5372 56.0366 10.7593C56.0366 10.4586 55.9511 10.3693 55.6496 10.3723C54.2506 10.3868 52.8522 10.3777 51.4531 10.3792C51.3417 10.3792 51.2295 10.3929 51.0707 10.4029L51.0692 10.4021ZM89.4584 13.517C88.9775 13.0988 88.5379 12.6744 88.0562 12.3057C85.3405 10.2265 82.2698 9.60066 78.9488 10.2243C75.8895 10.799 73.5112 12.4217 71.9419 15.1375C70.774 17.1587 70.3878 19.3622 70.5901 21.6735C70.8198 24.3037 71.8152 26.6065 73.7356 28.43C76.4811 31.0366 79.7846 31.8297 83.4636 31.1816C85.8343 30.7641 87.8097 29.6062 89.3637 27.9263C88.2783 26.7775 87.1998 25.6357 86.1022 24.4747C85.8412 24.7037 85.6237 24.8953 85.4061 25.0869C83.6208 26.6569 81.5645 27.0401 79.3243 26.376C76.8994 25.657 75.3033 23.445 75.2636 20.8781C75.2354 19.0798 75.7331 17.48 77.1016 16.2504C79.2961 14.278 82.9468 14.2345 85.2168 16.1237C85.516 16.3732 85.813 16.6251 86.0976 16.8648C87.2189 15.7481 88.3173 14.6536 89.4584 13.5178V13.517ZM61.0109 15.3375V31.4404H65.9631V15.3298H69.6436C69.665 15.2505 69.6833 15.2146 69.6833 15.1779C69.6871 13.6651 69.6856 12.1515 69.6955 10.6387C69.6971 10.3609 69.5291 10.3769 69.3444 10.3769C68.3529 10.3784 67.3606 10.3639 66.3691 10.3853C66.028 10.3929 65.9432 10.2838 65.9455 9.95177C65.96 7.76497 65.9532 5.57817 65.9524 3.39061C65.9524 3.24406 65.9387 3.09827 65.9318 2.95096H60.9903V10.3792H57.3098V15.3359H61.0109V15.3375ZM33.6687 31.4511V0.486328H28.7661V31.4511H33.6687ZM77.526 20.7362C77.5428 22.7451 79.1213 24.3014 81.1279 24.2877C83.0743 24.274 84.6787 22.6711 84.6757 20.7407C84.6726 18.6936 83.0636 17.1152 80.9982 17.1304C79.0717 17.1449 77.51 18.7669 77.526 20.7354V20.7362Z" fill="black"/>
<path d="M109.436 31.4663H104.477C104.468 31.3099 104.454 31.1763 104.454 31.0427C104.453 26.9096 104.466 22.7764 104.442 18.6432C104.438 17.9403 104.346 17.219 104.171 16.5389C103.877 15.4085 103.058 14.8116 101.894 14.7398C99.6748 14.6032 97.9743 15.6245 97.3552 17.5579C97.1377 18.2364 97.0194 18.9753 97.0133 19.6882C96.9805 23.4397 96.998 27.1912 96.998 30.9427C96.998 31.0946 96.998 31.2473 96.998 31.4335H92.0649V0.486328H96.9766V11.6096C97.1324 11.502 97.2209 11.4447 97.3049 11.3822C100.327 9.12513 106.163 9.3213 108.463 14.0582C109.026 15.2169 109.255 16.4641 109.357 17.7388C109.375 17.9647 109.41 18.1883 109.437 18.4135V31.4656L109.436 31.4663Z" fill="#17313B"/>
<path d="M25.7913 6.40471C24.6785 7.51376 23.5908 8.59762 22.4772 9.70819C22.1589 9.39906 21.8208 9.05864 21.4704 8.73272C18.37 5.85133 13.7437 5.17888 10.1487 7.12906C7.52604 8.55106 5.98727 10.8157 5.37665 13.6933C4.67672 16.9937 5.08889 20.1376 7.11006 22.9206C8.89995 25.3844 11.3905 26.6011 14.4299 26.6622C17.3281 26.7202 19.7897 25.6814 21.8307 23.6312C22.0459 23.4152 22.2635 23.2007 22.4802 22.9862C22.4978 22.9687 22.5207 22.9557 22.4825 22.9839C23.6236 24.0594 24.7563 25.1264 25.8974 26.2019C24.4205 27.8872 22.7916 29.2398 20.8071 30.0809C15.7428 32.2265 10.8494 31.9456 6.30098 28.7383C3.22267 26.5675 1.43049 23.4846 0.705375 19.8186C-0.100649 15.7503 0.369531 11.8286 2.5029 8.22132C4.89273 4.18128 8.4664 1.86396 13.1476 1.40294C17.7983 0.945732 21.8131 2.3868 25.1303 5.70631C25.1845 5.7605 25.238 5.81393 25.2906 5.86965C25.4555 6.04521 25.6204 6.22152 25.7913 6.40395V6.40471Z" fill="#17313B"/>
<path d="M51.0702 10.4012C51.2298 10.3913 51.3412 10.3776 51.4526 10.3776C52.8517 10.376 54.2508 10.3852 55.6492 10.3707C55.9506 10.3676 56.0369 10.4569 56.0361 10.7577C56.0285 17.5356 56.0308 24.3143 56.03 31.0922C56.03 31.2029 56.014 31.3136 56.0041 31.4449H51.0718V29.8099C50.2871 30.4243 49.4742 30.7961 48.5995 31.0258C45.9563 31.7219 43.3993 31.5807 41.0468 30.0778C39.1608 28.8734 38.1594 27.0377 37.7151 24.8997C37.5228 23.9731 37.4297 23.0114 37.4213 22.0649C37.3884 18.3012 37.4075 14.5367 37.406 10.7722C37.406 10.5646 37.3694 10.3707 37.696 10.373C39.1967 10.3852 40.6973 10.3791 42.1979 10.3806C42.2475 10.3806 42.2971 10.3982 42.3986 10.4172C42.3986 10.5623 42.3986 10.7096 42.3986 10.8577C42.3986 14.6985 42.3841 18.5393 42.4124 22.3794C42.4169 23.0419 42.5291 23.7258 42.7215 24.3608C43.1878 25.8943 44.2702 26.6873 45.8616 26.7034C46.8356 26.7133 47.7836 26.5225 48.6575 26.0637C50.2436 25.2317 50.987 23.8449 51.0374 22.1221C51.1053 19.7972 51.0649 17.4684 51.0687 15.1412C51.071 13.7039 51.0687 12.2674 51.0687 10.8302C51.0687 10.6943 51.0687 10.5577 51.0687 10.4004L51.0702 10.4012Z" fill="#17313B"/>
<path d="M89.459 13.5171C88.3186 14.6528 87.2203 15.7474 86.0983 16.864C85.8143 16.6244 85.5174 16.3717 85.2174 16.1229C82.9474 14.2338 79.2967 14.2773 77.1022 16.2496C75.7344 17.4793 75.236 19.0799 75.2643 20.8774C75.304 23.4435 76.9 25.6563 79.3249 26.3753C81.5644 27.0393 83.6207 26.6562 85.4067 25.0861C85.6243 24.8945 85.8418 24.7037 86.1028 24.474C87.1997 25.6349 88.279 26.7768 89.3643 27.9255C87.8103 29.6055 85.8357 30.7634 83.4642 31.1809C79.7852 31.8289 76.4817 31.0359 73.7362 28.4293C71.8158 26.6058 70.8204 24.303 70.5907 21.6727C70.3884 19.3623 70.7754 17.1587 71.9425 15.1367C73.511 12.421 75.8901 10.7983 78.9494 10.2235C82.2696 9.59991 85.3411 10.2258 88.0568 12.305C88.5385 12.6736 88.9781 13.098 89.459 13.5163V13.5171Z" fill="#17313B"/>
<path d="M61.0112 15.3379H57.3101V10.3812H60.9906V2.95215H65.9321C65.9397 3.0987 65.9527 3.24525 65.9527 3.3918C65.9542 5.5786 65.9603 7.76616 65.9458 9.95296C65.9435 10.2842 66.029 10.3934 66.3694 10.3865C67.3609 10.3651 68.3532 10.3796 69.3447 10.3781C69.5294 10.3781 69.6973 10.3621 69.6958 10.6399C69.6859 12.1527 69.6874 13.6656 69.6836 15.1791C69.6836 15.2158 69.6653 15.2516 69.6439 15.331H65.9634V31.4416H61.0112V15.3387V15.3379Z" fill="#17313B"/>
<path d="M33.6682 31.4511H28.7656V0.486328H33.6682V31.4511Z" fill="#17313B"/>
<path d="M77.5265 20.735C77.5105 18.7665 79.0721 17.1445 80.9987 17.13C83.0649 17.114 84.6731 18.6932 84.6761 20.7403C84.6792 22.6699 83.0748 24.2735 81.1284 24.2873C79.1217 24.301 77.5425 22.7439 77.5265 20.735Z" fill="#E62415"/>
</g>
<path d="M16.7751 37.1013C16.8552 36.8547 17.2041 36.8547 17.2842 37.1013L18.7723 41.6813C18.8081 41.7915 18.9109 41.8662 19.0269 41.8662H23.8425C24.1018 41.8662 24.2096 42.198 23.9998 42.3504L20.1039 45.181C20.0101 45.2491 19.9708 45.3699 20.0067 45.4802L21.4948 50.0602C21.5749 50.3068 21.2927 50.5118 21.0829 50.3594L17.187 47.5289C17.0931 47.4607 16.9661 47.4607 16.8723 47.5289L12.9764 50.3594C12.7666 50.5118 12.4844 50.3068 12.5645 50.0602L14.0526 45.4802C14.0884 45.3699 14.0492 45.2491 13.9554 45.181L10.0594 42.3504C9.84967 42.198 9.95747 41.8662 10.2168 41.8662H15.0324C15.1484 41.8662 15.2511 41.7915 15.287 41.6813L16.7751 37.1013Z" fill="#FFD801"/>
<path d="M35.509 37.1013C35.5891 36.8547 35.938 36.8547 36.0181 37.1013L37.5062 41.6813C37.542 41.7915 37.6448 41.8662 37.7607 41.8662H42.5764C42.8357 41.8662 42.9435 42.198 42.7337 42.3504L38.8378 45.181C38.744 45.2491 38.7047 45.3699 38.7405 45.4802L40.2287 50.0602C40.3088 50.3068 40.0265 50.5118 39.8168 50.3594L35.9208 47.5289C35.827 47.4607 35.7 47.4607 35.6062 47.5289L31.7103 50.3594C31.5005 50.5118 31.2183 50.3068 31.2984 50.0602L32.7865 45.4802C32.8223 45.3699 32.7831 45.2491 32.6893 45.181L28.7933 42.3504C28.5836 42.198 28.6914 41.8662 28.9506 41.8662H33.7663C33.8822 41.8662 33.985 41.7915 34.0208 41.6813L35.509 37.1013Z" fill="#FFD801"/>
<path d="M54.2443 37.1013C54.3244 36.8547 54.6733 36.8547 54.7534 37.1013L56.2415 41.6813C56.2774 41.7915 56.3801 41.8662 56.4961 41.8662H61.3117C61.571 41.8662 61.6788 42.198 61.4691 42.3504L57.5731 45.181C57.4793 45.2491 57.4401 45.3699 57.4759 45.4802L58.964 50.0602C59.0441 50.3068 58.7619 50.5118 58.5521 50.3594L54.6562 47.5289C54.5624 47.4607 54.4354 47.4607 54.3415 47.5289L50.4456 50.3594C50.2358 50.5118 49.9536 50.3068 50.0337 50.0602L51.5218 45.4802C51.5577 45.3699 51.5184 45.2491 51.4246 45.181L47.5287 42.3504C47.3189 42.198 47.4267 41.8662 47.686 41.8662H52.5016C52.6176 41.8662 52.7204 41.7915 52.7562 41.6813L54.2443 37.1013Z" fill="#FFD801"/>
<path d="M72.9821 37.1013C73.0622 36.8547 73.4111 36.8547 73.4912 37.1013L74.9793 41.6813C75.0152 41.7915 75.1179 41.8662 75.2339 41.8662H80.0495C80.3088 41.8662 80.4166 42.198 80.2069 42.3504L76.3109 45.181C76.2171 45.2491 76.1779 45.3699 76.2137 45.4802L77.7018 50.0602C77.7819 50.3068 77.4997 50.5118 77.2899 50.3594L73.394 47.5289C73.3002 47.4607 73.1731 47.4607 73.0793 47.5289L69.1834 50.3594C68.9736 50.5118 68.6914 50.3068 68.7715 50.0602L70.2596 45.4802C70.2955 45.3699 70.2562 45.2491 70.1624 45.181L66.2665 42.3504C66.0567 42.198 66.1645 41.8662 66.4238 41.8662H71.2394C71.3554 41.8662 71.4582 41.7915 71.494 41.6813L72.9821 37.1013Z" fill="#FFD801"/>
<path d="M91.716 37.1013C91.7961 36.8547 92.145 36.8547 92.2251 37.1013L93.7132 41.6813C93.7491 41.7915 93.8518 41.8662 93.9678 41.8662H98.7834C99.0427 41.8662 99.1505 42.198 98.9408 42.3504L95.0448 45.181C94.951 45.2491 94.9117 45.3699 94.9476 45.4802L96.4357 50.0602C96.5158 50.3068 96.2336 50.5118 96.0238 50.3594L92.1279 47.5289C92.0341 47.4607 91.907 47.4607 91.8132 47.5289L87.9173 50.3594C87.7075 50.5118 87.4253 50.3068 87.5054 50.0602L88.9935 45.4802C89.0294 45.3699 88.9901 45.2491 88.8963 45.181L85.0003 42.3504C84.7906 42.198 84.8984 41.8662 85.1577 41.8662H89.9733C90.0893 41.8662 90.192 41.7915 90.2279 41.6813L91.716 37.1013Z" fill="#FFD801"/>
</g>
<defs>
<clipPath id="clip0_3875_2029">
<rect width="109.103" height="51.5354" fill="white" transform="translate(0.333984 0.664062)"/>
</clipPath>
<clipPath id="clip1_3875_2029">
<rect width="109.103" height="30.98" fill="white" transform="translate(0.333984 0.486328)"/>
</clipPath>
</defs>
</svg>
