<svg width="60" height="54" viewBox="0 0 60 54" fill="none" xmlns="http://www.w3.org/2000/svg">
<circle cx="19.9275" cy="26.5129" r="16.8729" stroke="#7B2587" stroke-width="2.10912"/>
<path d="M19.9283 27.8367L24.1465 34.164" stroke="#7B2587" stroke-width="2.10912" stroke-linecap="round"/>
<path d="M19.9277 15.7092L19.9277 27.8366" stroke="#7B2587" stroke-width="2.10912" stroke-linecap="round"/>
<path d="M2.03906 9.35718L5.69773 13.0158" stroke="#7B2587" stroke-width="2.10912" stroke-linecap="round"/>
<path d="M38.3496 9.38184L34.6909 13.0405" stroke="#7B2587" stroke-width="2.10912" stroke-linecap="round"/>
<path d="M25.1719 2L13.2202 2" stroke="#7B2587" stroke-width="2.10912" stroke-linecap="round"/>
<path d="M19.3164 4.927L19.3164 9.31741" stroke="#7B2587" stroke-width="2.10912" stroke-linecap="round"/>
<circle cx="44.1816" cy="37.855" r="14.7638" fill="white" stroke="#7B2587" stroke-width="2.10912"/>
<path d="M44.4664 47.6928C44.2389 47.6928 44.047 47.6146 43.8906 47.4582C43.7342 47.3018 43.656 47.1099 43.656 46.8824V44.8138L44.0612 45.1977C43.066 45.1835 42.1632 45.0484 41.3529 44.7925C40.5425 44.5366 39.8672 44.2167 39.3269 43.8329C39.1421 43.7049 39.0142 43.5556 38.9431 43.385C38.872 43.2002 38.8507 43.0225 38.8791 42.8519C38.9075 42.6671 38.9786 42.5107 39.0923 42.3827C39.2203 42.2548 39.3696 42.1766 39.5402 42.1481C39.7108 42.1197 39.9098 42.1766 40.1373 42.3187C40.5922 42.6315 41.1467 42.9088 41.8007 43.1504C42.4689 43.3779 43.2935 43.4917 44.2744 43.4917C45.0564 43.4917 45.7033 43.3921 46.2151 43.1931C46.7269 42.9798 47.1036 42.6884 47.3453 42.3187C47.6012 41.9491 47.7292 41.5297 47.7292 41.0605C47.7292 40.6625 47.6368 40.3213 47.4519 40.0369C47.2813 39.7526 47.0041 39.5109 46.6202 39.3119C46.2364 39.1128 45.7246 38.9493 45.0848 38.8214L42.9096 38.3522C41.6301 38.0679 40.6704 37.6058 40.0307 36.966C39.4051 36.3121 39.0923 35.4519 39.0923 34.3857C39.0923 33.5611 39.2914 32.8218 39.6895 32.1678C40.1018 31.5138 40.6704 30.9949 41.3955 30.611C42.1348 30.2272 42.9878 30.0139 43.9546 29.9713L43.656 30.2698V28.2652C43.656 28.0378 43.7342 27.8458 43.8906 27.6895C44.047 27.5331 44.2389 27.4549 44.4664 27.4549C44.6938 27.4549 44.8858 27.5331 45.0422 27.6895C45.1985 27.8458 45.2767 28.0378 45.2767 28.2652V30.2698L44.9355 29.9713C45.6037 29.9855 46.3075 30.1277 47.0468 30.3978C47.786 30.6537 48.4187 31.0162 48.9447 31.4854C49.1011 31.6133 49.2006 31.7626 49.2433 31.9332C49.3002 32.1038 49.3002 32.2673 49.2433 32.4237C49.2006 32.5801 49.1153 32.7081 48.9874 32.8076C48.8736 32.9071 48.7244 32.964 48.5395 32.9782C48.3689 32.9782 48.177 32.9071 47.9638 32.7649C47.4946 32.4237 46.9757 32.1536 46.407 31.9546C45.8525 31.7555 45.1843 31.656 44.4024 31.656C43.3788 31.656 42.5613 31.9048 41.95 32.4024C41.3529 32.8858 41.0543 33.5255 41.0543 34.3217C41.0543 34.9472 41.2391 35.4448 41.6088 35.8145C41.9926 36.1699 42.6111 36.44 43.4641 36.6248L45.6819 37.1153C47.0468 37.3997 48.0562 37.8546 48.7101 38.4802C49.3641 39.0915 49.6911 39.9161 49.6911 40.9539C49.6911 41.7643 49.485 42.4751 49.0727 43.0865C48.6746 43.6978 48.113 44.1812 47.388 44.5366C46.6771 44.892 45.8525 45.1053 44.9142 45.1764L45.2767 44.7925V46.8824C45.2767 47.1099 45.1985 47.3018 45.0422 47.4582C44.9 47.6146 44.7081 47.6928 44.4664 47.6928Z" fill="#7B2587"/>
<path d="M43.8906 47.4582L44.0587 47.2901V47.2901L43.8906 47.4582ZM43.656 44.8138L43.8195 44.6413L43.4183 44.2612V44.8138H43.656ZM44.0612 45.1977L44.0578 45.4354L44.6669 45.4441L44.2247 45.0251L44.0612 45.1977ZM41.3529 44.7925L41.2813 45.0192L41.3529 44.7925ZM39.3269 43.8329L39.4646 43.6391L39.4622 43.6374L39.3269 43.8329ZM38.9431 43.385L38.7211 43.4704L38.7236 43.4764L38.9431 43.385ZM38.8791 42.8519L39.1136 42.891L39.114 42.888L38.8791 42.8519ZM39.0923 42.3827L38.924 42.2143L38.9147 42.2248L39.0923 42.3827ZM39.5402 42.1481L39.5011 41.9137H39.5011L39.5402 42.1481ZM40.1373 42.3187L40.2721 42.1227L40.2633 42.1172L40.1373 42.3187ZM41.8007 43.1504L41.7183 43.3735L41.7241 43.3755L41.8007 43.1504ZM46.2151 43.1931L46.3012 43.4147L46.3065 43.4125L46.2151 43.1931ZM47.3453 42.3187L47.1498 42.1834L47.1464 42.1887L47.3453 42.3187ZM47.4519 40.0369L47.248 40.1593L47.2526 40.1665L47.4519 40.0369ZM46.6202 39.3119L46.7297 39.1008V39.1008L46.6202 39.3119ZM45.0848 38.8214L45.0347 39.0538L45.0382 39.0545L45.0848 38.8214ZM42.9096 38.3522L42.858 38.5843L42.8595 38.5846L42.9096 38.3522ZM40.0307 36.966L39.8589 37.1304L39.8626 37.1341L40.0307 36.966ZM39.6895 32.1678L39.4884 32.041L39.4864 32.0442L39.6895 32.1678ZM41.3955 30.611L41.286 30.4001L41.2843 30.401L41.3955 30.611ZM43.9546 29.9713L44.1226 30.1394L44.5552 29.7068L43.9441 29.7338L43.9546 29.9713ZM43.656 30.2698H43.4183V30.8437L43.8241 30.4379L43.656 30.2698ZM43.8906 27.6895L44.0587 27.8575V27.8575L43.8906 27.6895ZM45.2767 30.2698L45.1202 30.4487L45.5145 30.7937V30.2698H45.2767ZM44.9355 29.9713L44.9406 29.7336L44.2871 29.7197L44.779 30.1502L44.9355 29.9713ZM47.0468 30.3978L46.9652 30.6211L46.969 30.6224L47.0468 30.3978ZM48.9447 31.4854L48.7864 31.663L48.7942 31.6694L48.9447 31.4854ZM49.2433 31.9332L49.0127 31.9909L49.0149 31.9997L49.0178 32.0084L49.2433 31.9332ZM49.2433 32.4237L49.0199 32.3425L49.0165 32.3517L49.014 32.3612L49.2433 32.4237ZM48.9874 32.8076L48.8412 32.6196L48.8308 32.6287L48.9874 32.8076ZM48.5395 32.9782V33.2159H48.5487L48.5578 33.2152L48.5395 32.9782ZM47.9638 32.7649L47.8238 32.9573L47.8319 32.9627L47.9638 32.7649ZM46.407 31.9546L46.3267 32.1783L46.3285 32.1789L46.407 31.9546ZM41.95 32.4024L42.0995 32.5871L42.1 32.5867L41.95 32.4024ZM41.6088 35.8145L41.4405 35.9827L41.4473 35.9889L41.6088 35.8145ZM43.4641 36.6248L43.5154 36.3927L43.5144 36.3925L43.4641 36.6248ZM45.6819 37.1153L45.6306 37.3474L45.6334 37.348L45.6819 37.1153ZM48.7101 38.4802L48.5458 38.6519L48.5478 38.6538L48.7101 38.4802ZM49.0727 43.0865L48.8756 42.9535L48.8735 42.9568L49.0727 43.0865ZM47.388 44.5366L47.2833 44.3232L47.2817 44.324L47.388 44.5366ZM44.9142 45.1764L44.7414 45.0132L44.3196 45.4598L44.9322 45.4134L44.9142 45.1764ZM45.2767 44.7925H45.5145V44.1946L45.1039 44.6293L45.2767 44.7925ZM45.0422 47.4582L44.8739 47.2899L44.8663 47.2983L45.0422 47.4582ZM44.4664 47.4551C44.2999 47.4551 44.1691 47.4005 44.0587 47.2901L43.7225 47.6263C43.9249 47.8286 44.1779 47.9305 44.4664 47.9305V47.4551ZM44.0587 47.2901C43.9483 47.1797 43.8937 47.0488 43.8937 46.8824H43.4183C43.4183 47.1709 43.5201 47.4239 43.7225 47.6263L44.0587 47.2901ZM43.8937 46.8824V44.8138H43.4183V46.8824H43.8937ZM43.4925 44.9864L43.8977 45.3703L44.2247 45.0251L43.8195 44.6413L43.4925 44.9864ZM44.0646 44.96C43.0887 44.9461 42.2093 44.8137 41.4244 44.5658L41.2813 45.0192C42.1171 45.2831 43.0433 45.4209 44.0578 45.4354L44.0646 44.96ZM41.4244 44.5658C40.6314 44.3154 39.9799 44.0052 39.4646 43.6391L39.1892 44.0266C39.7544 44.4282 40.4536 44.7578 41.2813 45.0192L41.4244 44.5658ZM39.4622 43.6374C39.3067 43.5297 39.2126 43.4139 39.1625 43.2936L38.7236 43.4764C38.8157 43.6974 38.9775 43.8801 39.1916 44.0283L39.4622 43.6374ZM39.1649 43.2997C39.1068 43.1486 39.0931 43.014 39.1136 42.891L38.6446 42.8128C38.6082 43.031 38.6371 43.2518 38.7212 43.4704L39.1649 43.2997ZM39.114 42.888C39.1362 42.7441 39.1895 42.6312 39.27 42.5406L38.9147 42.2248C38.7677 42.3901 38.6789 42.59 38.6441 42.8157L39.114 42.888ZM39.2604 42.5508C39.3551 42.4562 39.4599 42.4025 39.5793 42.3826L39.5011 41.9137C39.2793 41.9506 39.0855 42.0534 38.9243 42.2146L39.2604 42.5508ZM39.5793 42.3826C39.6684 42.3678 39.8071 42.3927 40.0113 42.5203L40.2633 42.1172C40.0126 41.9605 39.7532 41.8717 39.5011 41.9137L39.5793 42.3826ZM40.0026 42.5146C40.4774 42.841 41.0504 43.1266 41.7183 43.3734L41.8831 42.9275C41.243 42.6909 40.7071 42.422 40.272 42.1229L40.0026 42.5146ZM41.7241 43.3755C42.4245 43.6139 43.2768 43.7294 44.2744 43.7294V43.2539C43.3102 43.2539 42.5133 43.1419 41.8773 42.9254L41.7241 43.3755ZM44.2744 43.7294C45.0744 43.7294 45.7529 43.6279 46.3012 43.4146L46.1289 42.9715C45.6536 43.1564 45.0384 43.2539 44.2744 43.2539V43.7294ZM46.3065 43.4125C46.851 43.1856 47.2705 42.8675 47.5443 42.4488L47.1464 42.1887C46.9367 42.5093 46.6027 42.7741 46.1236 42.9737L46.3065 43.4125ZM47.5408 42.4541C47.8254 42.0429 47.9669 41.5758 47.9669 41.0605H47.4915C47.4915 41.4836 47.377 41.8554 47.1499 42.1834L47.5408 42.4541ZM47.9669 41.0605C47.9669 40.6246 47.8652 40.2366 47.6512 39.9074L47.2526 40.1665C47.4083 40.4059 47.4915 40.7003 47.4915 41.0605H47.9669ZM47.6558 39.9146C47.4566 39.5827 47.141 39.3141 46.7297 39.1008L46.5108 39.5229C46.8673 39.7077 47.1061 39.9225 47.2481 40.1592L47.6558 39.9146ZM46.7297 39.1008C46.3187 38.8877 45.7832 38.7186 45.1314 38.5883L45.0382 39.0545C45.666 39.18 46.1541 39.3379 46.5108 39.5229L46.7297 39.1008ZM45.1349 38.589L42.9597 38.1198L42.8595 38.5846L45.0347 39.0537L45.1349 38.589ZM42.9612 38.1202C41.707 37.8415 40.7953 37.3945 40.1988 36.798L39.8626 37.1341C40.5456 37.8172 41.5531 38.2943 42.858 38.5843L42.9612 38.1202ZM40.2024 36.8017C39.6266 36.1998 39.3301 35.4024 39.3301 34.3857H38.8546C38.8546 35.5015 39.1836 36.4244 39.8589 37.1304L40.2024 36.8017ZM39.3301 34.3857C39.3301 33.6012 39.5189 32.9053 39.8925 32.2914L39.4864 32.0442C39.0639 32.7383 38.8546 33.521 38.8546 34.3857H39.3301ZM39.8905 32.2946C40.2793 31.6779 40.816 31.1868 41.5067 30.8211L41.2843 30.401C40.5248 30.803 39.9242 31.3497 39.4884 32.041L39.8905 32.2946ZM41.505 30.822C42.209 30.4565 43.0273 30.2501 43.965 30.2088L43.9441 29.7338C42.9483 29.7777 42.0605 29.9979 41.286 30.4001L41.505 30.822ZM43.7865 29.8032L43.4879 30.1018L43.8241 30.4379L44.1226 30.1394L43.7865 29.8032ZM43.8937 30.2698V28.2652H43.4183V30.2698H43.8937ZM43.8937 28.2652C43.8937 28.0988 43.9483 27.9679 44.0587 27.8575L43.7225 27.5214C43.5201 27.7237 43.4183 27.9767 43.4183 28.2652H43.8937ZM44.0587 27.8575C44.1691 27.7471 44.2999 27.6926 44.4664 27.6926V27.2172C44.1779 27.2172 43.9249 27.319 43.7225 27.5214L44.0587 27.8575ZM44.4664 27.6926C44.6328 27.6926 44.7637 27.7471 44.8741 27.8575L45.2102 27.5214C45.0079 27.319 44.7549 27.2172 44.4664 27.2172V27.6926ZM44.8741 27.8575C44.9845 27.9679 45.039 28.0988 45.039 28.2652H45.5145C45.5145 27.9767 45.4126 27.7237 45.2102 27.5214L44.8741 27.8575ZM45.039 28.2652V30.2698H45.5145V28.2652H45.039ZM45.4333 30.0909L45.0921 29.7924L44.779 30.1502L45.1202 30.4487L45.4333 30.0909ZM44.9305 30.2089C45.5684 30.2225 46.2462 30.3584 46.9652 30.6211L47.1283 30.1745C46.3688 29.897 45.6391 29.7485 44.9406 29.7336L44.9305 30.2089ZM46.969 30.6224C47.6819 30.8692 48.2864 31.2167 48.7865 31.6628L49.103 31.308C48.551 30.8157 47.8902 30.4382 47.1245 30.1732L46.969 30.6224ZM48.7942 31.6694C48.9171 31.77 48.9842 31.8771 49.0127 31.9909L49.4739 31.8756C49.417 31.6482 49.2851 31.4567 49.0953 31.3014L48.7942 31.6694ZM49.0178 32.0084C49.0591 32.1325 49.0569 32.2407 49.0199 32.3425L49.4667 32.505C49.5434 32.294 49.5412 32.0752 49.4688 31.8581L49.0178 32.0084ZM49.014 32.3612C48.9848 32.4679 48.9288 32.552 48.8414 32.6199L49.1333 32.9952C49.3019 32.8641 49.4164 32.6923 49.4726 32.4863L49.014 32.3612ZM48.8308 32.6287C48.7638 32.6874 48.6668 32.73 48.5213 32.7412L48.5578 33.2152C48.7819 33.1979 48.9835 33.1268 49.1439 32.9865L48.8308 32.6287ZM48.5395 32.7405C48.4339 32.7405 48.2882 32.6955 48.0956 32.5671L47.8319 32.9627C48.0658 33.1187 48.3039 33.2159 48.5395 33.2159V32.7405ZM48.1036 32.5727C47.6149 32.2173 47.0752 31.9366 46.4855 31.7302L46.3285 32.1789C46.8761 32.3706 47.3742 32.6301 47.8239 32.9572L48.1036 32.5727ZM46.4873 31.7308C45.9002 31.5201 45.2033 31.4183 44.4024 31.4183V31.8937C45.1654 31.8937 45.8049 31.991 46.3267 32.1783L46.4873 31.7308ZM44.4024 31.4183C43.3406 31.4183 42.4649 31.6768 41.7999 32.218L42.1 32.5867C42.6577 32.1328 43.4169 31.8937 44.4024 31.8937V31.4183ZM41.8004 32.2176C41.1452 32.748 40.8166 33.4568 40.8166 34.3217H41.292C41.292 33.5942 41.5605 33.0235 42.0995 32.5871L41.8004 32.2176ZM40.8166 34.3217C40.8166 34.997 41.0179 35.5597 41.4407 35.9826L41.7768 35.6464C41.4604 35.3299 41.292 34.8975 41.292 34.3217H40.8166ZM41.4473 35.9889C41.8767 36.3866 42.5438 36.6687 43.4137 36.8572L43.5144 36.3925C42.6783 36.2114 42.1085 35.9532 41.7703 35.6401L41.4473 35.9889ZM43.4127 36.8569L45.6306 37.3474L45.7333 36.8832L43.5154 36.3927L43.4127 36.8569ZM45.6334 37.348C46.9764 37.6278 47.937 38.0695 48.5458 38.6519L48.8745 38.3084C48.1754 37.6397 47.1171 37.1715 45.7304 36.8826L45.6334 37.348ZM48.5478 38.6538C49.1459 39.2129 49.4534 39.9704 49.4534 40.9539H49.9288C49.9288 39.8617 49.5823 38.9701 48.8725 38.3065L48.5478 38.6538ZM49.4534 40.9539C49.4534 41.7218 49.2588 42.3854 48.8756 42.9536L49.2698 43.2194C49.7111 42.5649 49.9288 41.8068 49.9288 40.9539H49.4534ZM48.8735 42.9568C48.5012 43.5284 47.9741 43.9845 47.2833 44.3232L47.4926 44.75C48.2519 44.3778 48.848 43.8672 49.2719 43.2162L48.8735 42.9568ZM47.2817 44.324C46.603 44.6633 45.8094 44.8702 44.8963 44.9393L44.9322 45.4134C45.8957 45.3404 46.7513 45.1207 47.4943 44.7492L47.2817 44.324ZM45.087 45.3396L45.4496 44.9557L45.1039 44.6293L44.7414 45.0132L45.087 45.3396ZM45.039 44.7925V46.8824H45.5145V44.7925H45.039ZM45.039 46.8824C45.039 47.0488 44.9845 47.1797 44.8741 47.2901L45.2102 47.6263C45.4126 47.4239 45.5145 47.1709 45.5145 46.8824H45.039ZM44.8663 47.2983C44.7758 47.3978 44.6517 47.4551 44.4664 47.4551V47.9305C44.7644 47.9305 45.0242 47.8314 45.2181 47.6181L44.8663 47.2983Z" fill="#7B2587"/>
</svg>
