<svg width="72" height="43" viewBox="0 0 72 43" fill="none" xmlns="http://www.w3.org/2000/svg">
<path d="M55.4551 10.1196L58.0212 1.28076M58.0212 12.1155L60.8724 8.69398" stroke="#0199EC" stroke-width="2" stroke-miterlimit="10" stroke-linecap="round" stroke-linejoin="round"/>
<path d="M37.4959 17.4008V8.56198C37.4959 6.04247 35.4499 4 32.9304 4C22.8324 4 15.6635 4 5.56547 4C3.04595 4 1 6.04247 1 8.56199V19.6818C1 22.2013 3.04247 24.2438 5.56198 24.2438H8.1308C8.31163 24.2438 8.48505 24.3156 8.61292 24.4435V24.4435C8.66943 24.5 8.71556 24.566 8.74922 24.6385L11.4258 30.4034C11.8249 31.2631 13.0377 31.289 13.4732 30.4471L16.2888 25.0035C16.5302 24.5369 17.0118 24.2438 17.5372 24.2438V24.2438H25.5207" stroke="#0199EC" stroke-width="2" stroke-miterlimit="10" stroke-linecap="round" stroke-linejoin="round"/>
<path d="M34.0742 22.8181H49.4709" stroke="#0199EC" stroke-width="1.5" stroke-miterlimit="10" stroke-linecap="round" stroke-linejoin="round"/>
<path d="M34.0742 26.8181H49.4709" stroke="#0199EC" stroke-width="1.5" stroke-miterlimit="10" stroke-linecap="round" stroke-linejoin="round"/>
<path d="M34.0742 30.8181H49.4709" stroke="#0199EC" stroke-width="1.5" stroke-miterlimit="10" stroke-linecap="round" stroke-linejoin="round"/>
<path d="M30.0844 17.686H52.8919C55.4114 17.686 57.4551 19.7285 57.4551 22.248V30.9386C57.4551 33.4581 55.4126 35.5006 52.8931 35.5006H51.2168C51.0579 35.5006 50.9055 35.5639 50.7935 35.6766C50.7442 35.7261 50.7041 35.7839 50.6748 35.8473L48.4559 40.6537C48.0576 41.5165 46.8408 41.5424 46.4062 40.6973L44.0758 36.1662C43.8656 35.7575 43.4446 35.5006 42.985 35.5006H30.0832C27.5637 35.5006 25.5212 33.4581 25.5212 30.9386V22.248C25.5212 19.7285 27.5649 17.686 30.0844 17.686Z" stroke="#0199EC" stroke-width="2" stroke-miterlimit="10" stroke-linecap="round" stroke-linejoin="round"/>
<circle cx="12.4041" cy="13.6941" r="1.71074" stroke="#0199EC" stroke-width="1.5" stroke-miterlimit="10" stroke-linecap="round" stroke-linejoin="round"/>
<circle cx="19.2479" cy="13.6941" r="1.71074" stroke="#0199EC" stroke-width="1.5" stroke-miterlimit="10" stroke-linecap="round" stroke-linejoin="round"/>
<circle cx="26.0896" cy="13.6941" r="1.71074" stroke="#0199EC" stroke-width="1.5" stroke-miterlimit="10" stroke-linecap="round" stroke-linejoin="round"/>
<path d="M62 19.8512L70.2686 17" stroke="#0199EC" stroke-width="2" stroke-miterlimit="10" stroke-linecap="round" stroke-linejoin="round"/>
</svg>
