<svg width="62" height="47" viewBox="0 0 62 47" fill="none" xmlns="http://www.w3.org/2000/svg">
<path d="M14.0008 36H3.69311C2.20619 36 1.0008 34.7946 1.0008 33.3077V31.25V8.5V3.69231C1.0008 2.20539 2.20619 1 3.69311 1H21.7415C22.2388 1 26.4159 5.32687 28.9977 8.08007C29.4626 8.57586 29.7188 9.23031 29.7188 9.91V26" stroke="#00C2C0" stroke-width="2" stroke-linecap="round" stroke-linejoin="round"/>
<path d="M29.2695 9.07692C28.7552 9.07692 26.1963 9.07692 23.8846 9.07692C22.3977 9.07692 21.1926 7.87154 21.1926 6.38462V1" stroke="#00C2C0" stroke-width="2" stroke-linecap="round" stroke-linejoin="round"/>
<path d="M40.1621 20.6772H55.646" stroke="#00C2C0" stroke-width="2" stroke-linecap="round" stroke-linejoin="round"/>
<path d="M40.1621 25.6772H48.4202" stroke="#00C2C0" stroke-width="2" stroke-linecap="round" stroke-linejoin="round"/>
<path d="M37.2246 15H50.5914H58.5806C59.8099 15 60.8065 15.9965 60.8065 17.2258V28.7742C60.8065 30.0035 59.8099 31 58.5806 31H37.2258C35.9965 31 35 30.0035 35 28.7742V17.2258C35 15.9965 35.9954 15 37.2246 15Z" stroke="#00C2C0" stroke-width="2" stroke-linecap="round" stroke-linejoin="round"/>
<path d="M35.9399 35.2453C35.9731 40.9036 31.3259 45.5181 25.5601 45.5519C19.7944 45.5858 15.0934 41.0262 15.0601 35.3679C15.0467 33.0753 15.8016 30.954 17.0879 29.2394C18.2194 27.7313 19.7619 26.5377 21.5544 25.8189C22.7538 25.3379 24.065 25.0693 25.4399 25.0613C26.8589 25.0529 28.2134 25.3228 29.4497 25.8189" stroke="#00C2C0" stroke-width="2" stroke-linecap="round" stroke-linejoin="round"/>
<path d="M31.0194 37.4997L35.1772 34.6683C35.6566 34.3418 36.3122 34.4903 36.6042 34.9914L38.9994 39.1026" stroke="#00C2C0" stroke-width="2.5" stroke-linecap="round" stroke-linejoin="round"/>
<path d="M5 10H8.14103" stroke="#00C2C0" stroke-width="2" stroke-linecap="round" stroke-linejoin="round"/>
<path d="M5 15H16" stroke="#00C2C0" stroke-width="2" stroke-linecap="round" stroke-linejoin="round"/>
<path d="M24 20H5" stroke="#00C2C0" stroke-width="2" stroke-linecap="round" stroke-linejoin="round"/>
</svg>
