<svg width="95" height="95" viewBox="0 0 95 95" fill="none" xmlns="http://www.w3.org/2000/svg">
<circle cx="64" cy="31" r="25" stroke="white" stroke-opacity="0.3" stroke-width="0.6"/>
<circle cx="64" cy="31" r="44" stroke="white" stroke-opacity="0.3" stroke-width="0.6"/>
<circle cx="64" cy="31" r="63" stroke="white" stroke-opacity="0.3" stroke-width="0.6"/>
<path d="M50 37.5669H52.2755M78.6534 37.5669H55.6127" stroke="white" stroke-width="1.2" stroke-linecap="round" stroke-linejoin="round"/>
<circle cx="53.9435" cy="37.5738" r="1.57725" stroke="white" stroke-width="1.2" stroke-linecap="round" stroke-linejoin="round"/>
<circle cx="73.9458" cy="24.1186" r="2.88242" transform="rotate(8.29254 73.9458 24.1186)" stroke="white" stroke-width="1.2" stroke-linecap="round" stroke-linejoin="round"/>
<path d="M63.6495 32.8628C64.3162 28.2884 61.1484 24.0396 56.574 23.3728C54.5618 23.0796 52.6127 23.5282 51.0038 24.5121" stroke="white" stroke-width="1.2" stroke-linecap="round" stroke-linejoin="round"/>
<path d="M63.7579 32.7848C64.1072 31.1179 64.9096 29.6918 66.0067 28.5071M67.2612 27.4306C67.5391 27.1927 67.8196 26.9702 68.0974 26.7636" stroke="white" stroke-width="1.2" stroke-linecap="round" stroke-linejoin="round"/>
<path d="M70.5158 25.3379C70.1832 25.4867 69.9791 25.5691 69.6166 25.7789" stroke="white" stroke-width="1.2" stroke-linecap="round" stroke-linejoin="round"/>
</svg>
