<svg width="95" height="95" viewBox="0 0 95 95" fill="none" xmlns="http://www.w3.org/2000/svg">
<circle cx="64" cy="31" r="25" stroke="white" stroke-opacity="0.3" stroke-width="0.6"/>
<circle cx="64" cy="31" r="44" stroke="white" stroke-opacity="0.3" stroke-width="0.6"/>
<circle cx="64" cy="31" r="63" stroke="white" stroke-opacity="0.3" stroke-width="0.6"/>
<path d="M55.5576 20.5986H62.6365" stroke="white" stroke-width="1.17" stroke-linecap="round" stroke-linejoin="round"/>
<path d="M66.5186 20.5986H73.1407" stroke="white" stroke-width="1.17" stroke-linecap="round" stroke-linejoin="round"/>
<path d="M55.5576 41.4238H62.6365" stroke="white" stroke-width="1.17" stroke-linecap="round" stroke-linejoin="round"/>
<path d="M66.29 41.4238H73.1405" stroke="white" stroke-width="1.17" stroke-linecap="round" stroke-linejoin="round"/>
<path d="M53.5938 22.6538V29.276" stroke="white" stroke-width="1.17" stroke-linecap="round" stroke-linejoin="round"/>
<path d="M53.5938 33.1577V39.6428" stroke="white" stroke-width="1.17" stroke-linecap="round" stroke-linejoin="round"/>
<path d="M54.4433 19H52.749C52.3334 19 52 19.338 52 19.749V21.4433C52 21.8589 52.338 22.1923 52.749 22.1923H54.4433C54.8589 22.1923 55.1923 21.8544 55.1923 21.4433V19.749C55.1923 19.3334 54.8544 19 54.4433 19Z" stroke="white" stroke-width="1.17" stroke-linecap="round" stroke-linejoin="round"/>
<path d="M54.4433 29.5039H52.749C52.3334 29.5039 52 29.8419 52 30.2529V31.9472C52 32.3628 52.338 32.6962 52.749 32.6962H54.4433C54.8589 32.6962 55.1923 32.3583 55.1923 31.9472V30.2529C55.1923 29.8373 54.8544 29.5039 54.4433 29.5039Z" stroke="white" stroke-width="1.17" stroke-linecap="round" stroke-linejoin="round"/>
<path d="M54.4433 39.8257H52.749C52.3334 39.8257 52 40.1636 52 40.5747V42.269C52 42.6846 52.338 43.018 52.749 43.018H54.4433C54.8589 43.018 55.1923 42.6801 55.1923 42.269V40.5747C55.1923 40.1591 54.8544 39.8257 54.4433 39.8257Z" stroke="white" stroke-width="1.17" stroke-linecap="round" stroke-linejoin="round"/>
<path d="M74.9673 22.6538V29.276" stroke="white" stroke-width="1.17" stroke-linecap="round" stroke-linejoin="round"/>
<path d="M74.9673 33.1577V39.6428" stroke="white" stroke-width="1.17" stroke-linecap="round" stroke-linejoin="round"/>
<path d="M75.8169 19H74.1225C73.7069 19 73.3735 19.338 73.3735 19.749V21.4433C73.3735 21.8589 73.7115 22.1923 74.1225 22.1923H75.8169C76.2325 22.1923 76.5659 21.8544 76.5659 21.4433V19.749C76.5659 19.3334 76.2279 19 75.8169 19Z" stroke="white" stroke-width="1.17" stroke-linecap="round" stroke-linejoin="round"/>
<path d="M75.8169 29.5039H74.1225C73.7069 29.5039 73.3735 29.8419 73.3735 30.2529V31.9472C73.3735 32.3628 73.7115 32.6962 74.1225 32.6962H75.8169C76.2325 32.6962 76.5659 32.3583 76.5659 31.9472V30.2529C76.5659 29.8373 76.2279 29.5039 75.8169 29.5039Z" stroke="white" stroke-width="1.17" stroke-linecap="round" stroke-linejoin="round"/>
<path d="M75.8169 39.8257H74.1225C73.7069 39.8257 73.3735 40.1636 73.3735 40.5747V42.269C73.3735 42.6846 73.7115 43.018 74.1225 43.018H75.8169C76.2325 43.018 76.5659 42.6801 76.5659 42.269V40.5747C76.5659 40.1591 76.2279 39.8257 75.8169 39.8257Z" stroke="white" stroke-width="1.17" stroke-linecap="round" stroke-linejoin="round"/>
<path d="M65.313 19H63.6186C63.203 19 62.8696 19.338 62.8696 19.749V21.4433C62.8696 21.8589 63.2076 22.1923 63.6186 22.1923H65.313C65.7286 22.1923 66.062 21.8544 66.062 21.4433V19.749C66.062 19.3334 65.724 19 65.313 19Z" stroke="white" stroke-width="1.17" stroke-linecap="round" stroke-linejoin="round"/>
<path d="M65.313 39.8257H63.6186C63.203 39.8257 62.8696 40.1636 62.8696 40.5747V42.269C62.8696 42.6846 63.2076 43.018 63.6186 43.018H65.313C65.7286 43.018 66.062 42.6801 66.062 42.269V40.5747C66.062 40.1591 65.724 39.8257 65.313 39.8257Z" stroke="white" stroke-width="1.17" stroke-linecap="round" stroke-linejoin="round"/>
<path d="M65.5903 29.106V35.7305L67.6284 33.8603H70.5159L65.5903 29.1025V29.106Z" stroke="white" stroke-width="1.17" stroke-linecap="round" stroke-linejoin="round"/>
</svg>
