<svg width="139" height="140" viewBox="0 0 139 140" fill="none" xmlns="http://www.w3.org/2000/svg">
<path d="M123.435 34.1468C123.435 43.6142 115.76 51.2891 106.293 51.2891C96.8251 51.2891 89.1503 43.6142 89.1503 34.1468C89.1503 24.6794 96.8251 17.0046 106.293 17.0046C115.76 17.0046 123.435 24.6794 123.435 34.1468ZM106.293 52.0925C116.204 52.0925 124.238 44.058 124.238 34.1468C124.238 24.2357 116.204 16.2011 106.293 16.2011C96.3814 16.2011 88.3468 24.2357 88.3468 34.1468C88.3468 44.058 96.3814 52.0925 106.293 52.0925ZM160.862 34.147C160.862 64.2852 136.43 88.717 106.292 88.717C76.1537 88.717 51.7219 64.2852 51.7219 34.147C51.7219 4.00887 76.1537 -20.423 106.292 -20.423C136.43 -20.423 160.862 4.00887 160.862 34.147ZM106.292 89.5205C136.874 89.5205 161.665 64.729 161.665 34.147C161.665 3.56513 136.874 -21.2264 106.292 -21.2264C75.71 -21.2264 50.9185 3.56513 50.9185 34.147C50.9185 64.729 75.71 89.5205 106.292 89.5205ZM211.545 34.1471C211.545 92.2768 164.421 139.4 106.292 139.4C48.1619 139.4 1.03845 92.2768 1.03845 34.1471C1.03845 -23.9826 48.1619 -71.1061 106.292 -71.1061C164.421 -71.1061 211.545 -23.9826 211.545 34.1471Z" stroke="white" stroke-opacity="0.3" stroke-width="0.803459"/>
<path d="M98.8928 39.6047C98.579 39.9185 98.579 40.4272 98.8928 40.741C99.2066 41.0548 99.7153 41.0548 100.029 40.741L98.8928 39.6047ZM112.316 28.121C112.316 27.6772 111.957 27.3175 111.513 27.3175L104.282 27.3175C103.838 27.3175 103.478 27.6772 103.478 28.121C103.478 28.5647 103.838 28.9244 104.282 28.9244L110.709 28.9244L110.709 35.3521C110.709 35.7958 111.069 36.1556 111.513 36.1556C111.957 36.1556 112.316 35.7958 112.316 35.3521L112.316 28.121ZM100.029 40.741L112.081 28.6891L110.945 27.5528L98.8928 39.6047L100.029 40.741Z" fill="white"/>
</svg>
